<svg xmlns="http://www.w3.org/2000/svg" viewBox="0 0 1072.98 672.53"><defs><style>.cls-1{fill:#18536b;}.cls-2{fill:#f15939;}</style></defs><title>Asset 18</title><g id="Layer_2" data-name="Layer 2"><g id="Layer_1-2" data-name="Layer 1"><path class="cls-1" d="M3.82,394.64V0H144.59q41.1,0,73.76,15.11a163.15,163.15,0,0,1,55.47,41.4q22.8,26.3,35.19,62.24T321.4,197q0,42.91-12.39,78.87t-35.19,62.54a157.8,157.8,0,0,1-55.47,41.4q-32.65,14.82-73.76,14.81Zm80-67.08h49q25.33,0,44.76-10a96,96,0,0,0,32.66-27.2q13.23-17.22,20.27-41.1t7-52.27a182.11,182.11,0,0,0-7-51.67q-7-23.86-20.27-41.1a95.91,95.91,0,0,0-32.66-27.19q-19.42-10-44.76-10h-49Z"/><polygon class="cls-1" points="467.23 224.22 597.86 224.22 597.86 157.13 467.23 157.13 467.23 157.22 388.4 157.22 388.4 394.64 609.69 394.64 609.69 327.56 467.23 327.56 467.23 224.22"/><polygon class="cls-2" points="597.86 67.08 609.69 0 388.4 0 388.4 67.08 467.23 67.08 597.86 67.08"/><path class="cls-1" d="M890.66,111.81a182.33,182.33,0,0,0-44.21-27.2q-22.8-9.66-43.07-9.67-22,0-32.66,6.35T760,108.79q0,10.88,4.22,18.73a43.24,43.24,0,0,0,12.11,13.9A82.5,82.5,0,0,0,795.22,152q11,4.53,23.92,9.37Q838.28,168,858,176.47a146.57,146.57,0,0,1,35.76,21.76,101.8,101.8,0,0,1,26.18,33.84q10.14,20.55,10.14,52,0,30.82-11,52.89a104.77,104.77,0,0,1-29,36.25A122.79,122.79,0,0,1,849,394.34a165.65,165.65,0,0,1-47.86,7q-36,0-71.23-15.11a168.68,168.68,0,0,1-61.1-44.72l27-68.9q23.08,26,52.09,40.49t55.46,14.51q23.64,0,36.32-7.25t13.24-29.62q0-12.69-4.51-21.76a45.89,45.89,0,0,0-12.95-15.7,87.37,87.37,0,0,0-19.71-11.49q-11.28-4.83-24.78-9.67-19.14-6.63-38.29-14.81a127.56,127.56,0,0,1-34.34-21.45,99.43,99.43,0,0,1-24.49-32.94q-9.3-19.62-9.3-49.86t10.14-51.67q10.14-21.44,27-35.05A109.66,109.66,0,0,1,760.59,6.35,163.47,163.47,0,0,1,806.2,0a167.87,167.87,0,0,1,59.4,10.88,194.12,194.12,0,0,1,52.65,29.61Z"/><path class="cls-1" d="M1069.16,0V394.64H990.89V0Z"/><path class="cls-2" d="M193.41,589.53c0,22.35-.13,44.7.11,67.05,0,4.18-1.3,5.52-5.39,6.35-34,6.88-68.3,10.82-103.09,9.26a152.64,152.64,0,0,1-36.42-5.59C17.26,657.34.61,635.36,0,603.39c-.43-22.94,7.12-41.87,27-55.19a54.8,54.8,0,0,1,18.28-8.14c2.69-.61,3.6-.11,3.89,2.58.64,5.88,1.71,11.7,2.39,17.57.35,3,1.37,4.45,4.81,3.7,5.27-1.14,10.59-2.08,15.92-2.86,2.53-.37,2.59-1.45,1.82-3.33-1.76-4.27-3.5-8.55-5.13-12.87-.48-1.29-1.93-2.73-.68-4.05,1.06-1.13,2.54.05,3.79.33,18.16,4.07,34.35,12.53,50.32,21.48,2.2,1.23,4.34,2.54,6.55,3.74,5.66,3.08,9.3,2,12.53-3.53a36.89,36.89,0,0,0,4.18-13.13,166.25,166.25,0,0,0-2.87-64.57,40,40,0,0,0-1.85-5.61c-4-9.79-11.34-11.49-19.25-4.41A113.55,113.55,0,0,1,91,494.67c-16.57,7.21-34.14,10.09-52.08,11-9.36.5-9.47.22-11-8.93-2.05-12.48-3.62-25.06-6.08-37.47-.94-4.75.77-5.86,4.83-6.86a328.37,328.37,0,0,1,54-8.16,185.62,185.62,0,0,1,49.38,2.4c25.41,4.93,45.78,16.75,56,41.2,5.4,12.93,7.32,26.61,7.38,40.51C193.48,548.77,193.41,569.15,193.41,589.53Zm-61,9.85c0-6.41-.13-12.83.05-19.23.09-3.08-1-4.27-4.18-4.7a151.3,151.3,0,0,0-22.69-1.68c-10,.19-20,.39-29.16,4.93-7.65,3.78-12.25,9.6-12.77,18.15-.92,14.9,5.69,23.31,21.39,26.15,14.74,2.67,29.6,1.42,44.41.25,2.93-.23,3-2.07,3-4.15C132.39,612.52,132.41,606,132.41,599.38Z"/><path class="cls-2" d="M121.92,517.69a139.93,139.93,0,0,1,5.21-37c.6-2.09.8-5.06,3.8-5.19,2.77-.13,3.78,2.45,4.78,4.51,4.88,10,6.48,20.64,7.17,31.53a163.49,163.49,0,0,1-3.18,44.08c-.69,3.34-1.31,7.94-5.1,8.34a3.93,3.93,0,0,1-3.09-1.06,10.88,10.88,0,0,1-2.62-4.83A141.34,141.34,0,0,1,123.07,535a37.13,37.13,0,0,1-.69-5.64c-.09-1-.17-1.93-.23-2.9C122,523.56,121.88,520.62,121.92,517.69Zm16,1.57a17.61,17.61,0,0,0-8.57-14.34c-2.12-1.32-3.59-1.65-3.92,1.62a123.57,123.57,0,0,0,.26,26c.33,3,1.64,3.19,3.94,1.64C134.82,530.68,137.51,525.85,137.89,519.26Z"/><path class="cls-2" d="M238.59,525l-.07-5.06a2.5,2.5,0,0,0-2.59-2.43l-32.33.85a2.49,2.49,0,0,0-2.46,2.49l.07,5.13a2.5,2.5,0,0,0,2.6,2.43l32.33-.92A2.49,2.49,0,0,0,238.59,525Z"/><path class="cls-2" d="M198.26,546.13c5.72,5.2,11.09,10,16.44,15,4.42,4,8.6,8.36,13.26,12.13,3.65,2.95,1.73,4.73-.52,7s-3.21,3.37-6.64.58c-5.85-4.76-10.44-9.18-15.47-14.12C198.4,561.52,195.81,555.28,198.26,546.13Z"/><path class="cls-2" d="M196.42,506c-.95-6.93-2.93-13.36,3.65-18.76,5.78-5.89,11.08-11,16.43-16.68,1.83-2,10.71,3.18,8.08,6.09C215.5,486.74,205.85,496.3,196.42,506Z"/><path class="cls-2" d="M536.57,462.6a35.89,35.89,0,0,1-.59,5.83q-.6,3.46-2.16,9.94L487.05,652.63a19.11,19.11,0,0,1-2.56,5.94,10.36,10.36,0,0,1-4.81,3.57,32.39,32.39,0,0,1-9.24,1.72q-6,.43-15.62.44c-6.42,0-11.66-.19-15.72-.54a38,38,0,0,1-9.53-1.84,10.17,10.17,0,0,1-5-3.56,16.19,16.19,0,0,1-2.36-5.73l-29.48-117-.39-1.94-.39,1.94-27.12,117a17.85,17.85,0,0,1-2.26,5.94,9.71,9.71,0,0,1-5,3.57,36.72,36.72,0,0,1-9.63,1.72q-6.09.43-15.72.44c-6.55,0-11.83-.19-15.82-.54a37.64,37.64,0,0,1-9.43-1.84,10.17,10.17,0,0,1-5-3.56,16.19,16.19,0,0,1-2.36-5.73L253.2,478.37a78.19,78.19,0,0,1-2.26-9.83,44.32,44.32,0,0,1-.49-5.94,6.68,6.68,0,0,1,1.08-3.78,7.47,7.47,0,0,1,3.93-2.59,34.48,34.48,0,0,1,7.67-1.4q4.8-.43,12.08-.43,7.86,0,12.77.43a28.76,28.76,0,0,1,7.67,1.51,7.37,7.37,0,0,1,3.83,2.92,15.37,15.37,0,0,1,1.67,4.42l34.78,141.45.39,2.59.4-2.59,32.62-141.45a12.33,12.33,0,0,1,1.87-4.42,8.56,8.56,0,0,1,3.83-2.92,25.09,25.09,0,0,1,7.17-1.51q4.62-.43,11.89-.43a103.55,103.55,0,0,1,11.79.54,32.82,32.82,0,0,1,7.17,1.51A7.4,7.4,0,0,1,416.8,459a13.33,13.33,0,0,1,1.67,3.78l35,142.52.59,2.38.4-2.59,33.4-141.45a11.25,11.25,0,0,1,1.57-4.42,8,8,0,0,1,3.94-2.92,28.08,28.08,0,0,1,7.46-1.51q4.72-.43,12-.43t11.89.43a30.54,30.54,0,0,1,7.27,1.4,6.79,6.79,0,0,1,3.63,2.59A7.13,7.13,0,0,1,536.57,462.6Z"/><path class="cls-2" d="M1073,640.76a83.17,83.17,0,0,1-.59,10.69,32.55,32.55,0,0,1-1.57,7,6.9,6.9,0,0,1-2.56,3.57,6.58,6.58,0,0,1-3.54,1H950.16a9.51,9.51,0,0,1-8.16-3.89q-2.85-3.89-2.84-12.74v-9.93c0-2.59.09-4.93.29-7a31.14,31.14,0,0,1,1.18-6,39.31,39.31,0,0,1,2.36-5.93,66.22,66.22,0,0,1,3.83-6.7l65.63-111.43H950.36c-2.49,0-4.49-1.72-6-5.18s-2.26-9-2.26-16.63a94.75,94.75,0,0,1,.49-10.47,27.06,27.06,0,0,1,1.48-6.69,7.51,7.51,0,0,1,2.55-3.57,6.51,6.51,0,0,1,3.74-1.08h107.09a15.2,15.2,0,0,1,4.72.65,6.48,6.48,0,0,1,3.24,2.38,12.73,12.73,0,0,1,2,4.75,35.43,35.43,0,0,1,.68,7.56v10.58a66.79,66.79,0,0,1-.39,7.66,45.55,45.55,0,0,1-1.18,6.37,31.4,31.4,0,0,1-2.26,6.05q-1.47,3-3.44,6.48L995.55,619.38h69.17a6.87,6.87,0,0,1,3.34.86,6.69,6.69,0,0,1,2.66,3.24,24.62,24.62,0,0,1,1.67,6.59A80.06,80.06,0,0,1,1073,640.76Z"/><path class="cls-2" d="M905.43,593.41c-.18-20.5,0-41,0-61.5v-8.12q0-20.23-4.4-35t-14-24.07q-9.6-9.35-24.51-13.85t-35.91-4.51a123.77,123.77,0,0,0-22.9,2.09,141,141,0,0,0-20.51,5.38,109.45,109.45,0,0,0-16.4,7.15q-7,3.86-9.81,7a17.07,17.07,0,0,0-3.8,7.15,45.69,45.69,0,0,0-1,10.77,65.29,65.29,0,0,0,.6,9.24,32.94,32.94,0,0,0,1.7,7,11.28,11.28,0,0,0,2.8,4.4,5.68,5.68,0,0,0,3.9,1.54q3.21,0,8.31-3.08t12.7-6.82a121.38,121.38,0,0,1,17.51-6.81,75.8,75.8,0,0,1,22.5-3.08,51,51,0,0,1,16.11,2.2,22.93,22.93,0,0,1,10.4,6.81,27.86,27.86,0,0,1,5.6,11.55,68.39,68.39,0,0,1,1.7,16.16V537h-17.4q-23.82,0-41.82,3.95t-30.1,12.21A52.56,52.56,0,0,0,748.5,574q-6.11,12.65-6.1,29.79,0,15.83,4.8,27.7a54.28,54.28,0,0,0,13.5,19.9,57.34,57.34,0,0,0,20.61,12.09c12.72,4.34,26.26,4.89,39.57,5.29,13.74.41,28,.69,41.9.23,7.74-.26,15.66-.65,23.4-1.27,13.21-1,20.08-8.88,20.6-21.82C907.48,628.39,905.58,610.94,905.43,593.41Zm-49.14,13.47c0,5.47-.29,10.92.07,16.39.22,3.44-4.14,4-6.66,4.17-11.07.84-22,.67-33.07.67-7.71-.78-16-2.5-22.3-7.26-6-4.5-8.57-11.39-8.17-18.74a26.14,26.14,0,0,1,7.68-17c5.12-5.06,12.07-7.33,19.06-8.36A91.42,91.42,0,0,1,828,576c4.17.08,8.34.35,12.51.59,3.89.23,8.17,0,11.92,1.23,5.18,1.73,3.93,7.79,3.9,12C856.26,595.52,856.29,601.2,856.29,606.88Z"/><path class="cls-2" d="M711.83,593.41c-.18-20.5,0-41,0-61.5v-8.12q0-20.23-4.4-35t-14-24.07q-9.6-9.35-24.51-13.85T633,446.4a123.77,123.77,0,0,0-22.9,2.09,141,141,0,0,0-20.51,5.38,109.45,109.45,0,0,0-16.4,7.15q-7,3.86-9.81,7a17.07,17.07,0,0,0-3.8,7.15,45.69,45.69,0,0,0-1,10.77,65.29,65.29,0,0,0,.6,9.24,32.94,32.94,0,0,0,1.7,7,11.28,11.28,0,0,0,2.8,4.4,5.68,5.68,0,0,0,3.9,1.54q3.21,0,8.31-3.08t12.7-6.82a121.38,121.38,0,0,1,17.51-6.81,75.8,75.8,0,0,1,22.5-3.08,51,51,0,0,1,16.11,2.2,22.93,22.93,0,0,1,10.4,6.81,27.86,27.86,0,0,1,5.6,11.55,68.39,68.39,0,0,1,1.7,16.16V537H645q-23.82,0-41.82,3.95t-30.1,12.21A52.56,52.56,0,0,0,554.9,574q-6.1,12.65-6.1,29.79,0,15.83,4.8,27.7a54.28,54.28,0,0,0,13.5,19.9,57.34,57.34,0,0,0,20.61,12.09c12.72,4.34,26.26,4.89,39.57,5.29,13.74.41,28,.69,41.9.23,7.74-.26,15.66-.65,23.4-1.27,13.21-1,20.08-8.88,20.6-21.82C713.88,628.39,712,610.94,711.83,593.41Zm-49.14,13.47c0,5.47-.29,10.92.07,16.39.22,3.44-4.14,4-6.66,4.17-11.07.84-22,.67-33.07.67-7.71-.78-16-2.5-22.3-7.26-6-4.5-8.57-11.39-8.17-18.74a26.14,26.14,0,0,1,7.68-17c5.12-5.06,12.07-7.33,19.06-8.36a91.42,91.42,0,0,1,15.07-.73c4.17.08,8.34.35,12.51.59,3.89.23,8.17,0,11.92,1.23,5.18,1.73,3.93,7.79,3.9,12C662.66,595.52,662.69,601.2,662.69,606.88Z"/></g></g></svg>