<svg xmlns="http://www.w3.org/2000/svg" viewBox="0 0 1105.33 700.53"><defs><style>.cls-1{fill:#18536b;}.cls-2{fill:#fff;}.cls-3{fill:#f15939;}</style></defs><title>Asset 20</title><g id="Layer_2" data-name="Layer 2"><g id="Layer_1-2" data-name="Layer 1"><path class="cls-1" d="M10,424.64V10H160.77c28.71,0,54.94,5.39,77.95,16A173.9,173.9,0,0,1,297.55,70c16,18.4,28.44,40.45,37.09,65.53s12.94,52.37,12.94,81.53c0,29.56-4.36,57.19-12.94,82.12C326,324.22,313.53,346.36,297.59,365a168.7,168.7,0,0,1-58.93,44c-23,10.42-49.17,15.7-77.89,15.7Zm138.94-87.08c15.21,0,28.74-3,40.21-8.87a86.5,86.5,0,0,0,29.29-24.39c8-10.46,14.29-23.19,18.6-37.83A175.3,175.3,0,0,0,243.67,217,173.19,173.19,0,0,0,237,168.17c-4.32-14.65-10.58-27.38-18.61-37.83A86.26,86.26,0,0,0,189.14,106c-11.46-5.89-25-8.88-40.2-8.88H110V337.56Z"/><path class="cls-2" d="M160.77,20q41.1,0,73.76,15.11A163.34,163.34,0,0,1,290,76.51q22.8,26.3,35.18,62.24T337.58,217q0,42.91-12.4,78.87T290,358.43a158,158,0,0,1-55.47,41.4q-32.65,14.82-73.76,14.81H20V20H160.77M100,347.56h49q25.35,0,44.77-10a96,96,0,0,0,32.66-27.2q13.22-17.22,20.27-41.1t7-52.27a182.47,182.47,0,0,0-7-51.67q-7-23.86-20.27-41.1a95.91,95.91,0,0,0-32.66-27.19q-19.43-10-44.77-10H100V347.56M160.77,0H0V434.64H160.77c30.16,0,57.75-5.58,82-16.59a178.57,178.57,0,0,0,62.39-46.6C322,351.91,335,328.68,344.09,302.4c9-26,13.49-54.71,13.49-85.38,0-30.27-4.54-58.79-13.48-84.78-9.08-26.31-22.19-49.46-39-68.83A183.64,183.64,0,0,0,242.93,17c-24.35-11.26-52-17-82.16-17ZM120,107.08h29c13.61,0,25.6,2.62,35.63,7.77a75.52,75.52,0,0,1,25.94,21.59c7.27,9.46,13,21.1,16.94,34.57a163,163,0,0,1,6.22,46,165.26,165.26,0,0,1-6.22,46.62c-4,13.46-9.67,25.09-16.95,34.57a75.5,75.5,0,0,1-25.93,21.59c-10,5.15-22,7.76-35.63,7.76H120V107.08Z"/><polygon class="cls-1" points="394.58 424.64 394.58 167.22 473.4 167.22 483.4 167.13 624.04 167.13 624.04 254.22 493.4 254.22 493.4 337.56 635.87 337.56 635.87 424.64 394.58 424.64"/><path class="cls-2" d="M614,177.13v67.09H483.41V347.56H625.87v67.08H404.58V177.22h78.83v-.09H614m20-20H463.41v.09H384.58V434.64H645.87V327.56H503.41V264.22H634V157.13Z"/><polygon class="cls-3" points="394.58 97.08 394.58 10 637.79 10 622.43 97.08 394.58 97.08"/><path class="cls-2" d="M625.87,20h0m0,0L614,87.08H404.58V20H625.87M649.71,0H384.58V107.08H630.82l2.92-16.52,11.83-67.09L649.71,0ZM625.88,0Zm0,40h0Z"/><path class="cls-1" d="M817.3,431.29c-25.25,0-50.54-5.35-75.16-15.92A179.32,179.32,0,0,1,677.45,368l-4-4.58,35.21-89.73,10.83,12.19a163.53,163.53,0,0,0,49.08,38.19c17.83,8.92,35,13.45,51,13.45,13.92,0,24.48-2,31.36-5.93,5.13-2.94,7.89-10,8.19-21.06,0-6.8-1.18-12.59-3.46-17.19a35.85,35.85,0,0,0-10.18-12.3A78.5,78.5,0,0,0,828,270.93c-7.26-3.11-15.39-6.28-24.15-9.43C791,257.06,778,252,765,246.46a138.4,138.4,0,0,1-37-23.12,109.86,109.86,0,0,1-27-36.19c-6.8-14.36-10.25-32.58-10.25-54.14s3.73-40.37,11.09-55.94,17.42-28.6,29.81-38.57A120.28,120.28,0,0,1,774,16.74,174.44,174.44,0,0,1,822.37,10a178.71,178.71,0,0,1,62.92,11.51,205.21,205.21,0,0,1,55.34,31.14l5.78,4.57-35.22,91.07-10.69-8.74a173.16,173.16,0,0,0-41.77-25.73c-13.9-5.89-27.08-8.88-39.17-8.88-15.88,0-23.75,2.69-27.56,5-5,3-5.8,13.12-5.8,18.9,0,5.55,1,10.26,3,14a33.49,33.49,0,0,0,9.37,10.69,73.67,73.67,0,0,0,16.61,9.29c7.29,3,15.2,6.1,23.5,9.2,12.91,4.49,26.17,9.64,39.41,15.32a156.9,156.9,0,0,1,38.19,23.25,112.05,112.05,0,0,1,28.77,37.11c7.42,15,11.18,34,11.18,56.4,0,22-4,41.3-12,57.34A115.25,115.25,0,0,1,912.46,401a133.36,133.36,0,0,1-44.41,22.88A176.45,176.45,0,0,1,817.3,431.29Z"/><path class="cls-2" d="M822.37,20a168,168,0,0,1,59.41,10.88,194.12,194.12,0,0,1,52.65,29.61l-27.59,71.32a182.33,182.33,0,0,0-44.21-27.2q-22.8-9.66-43.07-9.67-22,0-32.66,6.35t-10.7,27.5q0,10.88,4.23,18.73a43.2,43.2,0,0,0,12.1,13.9A82.72,82.72,0,0,0,811.39,172q11,4.53,23.93,9.37,19.14,6.65,38.85,15.1a146.19,146.19,0,0,1,35.76,21.76,101.7,101.7,0,0,1,26.19,33.84q10.14,20.55,10.14,52,0,30.82-11,52.89a104.63,104.63,0,0,1-29,36.25,122.79,122.79,0,0,1-41.11,21.16,165.67,165.67,0,0,1-47.87,7q-36,0-71.22-15.11A168.68,168.68,0,0,1,685,361.46l27-68.9q23.09,26,52.09,40.49t55.46,14.51q23.64,0,36.32-7.25t13.23-29.62q0-12.69-4.5-21.76a46.12,46.12,0,0,0-13-15.7A87.81,87.81,0,0,0,832,261.74q-11.28-4.83-24.78-9.67-19.15-6.63-38.29-14.81a127.61,127.61,0,0,1-34.35-21.45A99.7,99.7,0,0,1,710,182.87q-9.28-19.62-9.29-49.86t10.13-51.67q10.14-21.44,27-35.05a109.71,109.71,0,0,1,38.86-19.94A163.45,163.45,0,0,1,822.37,20m0-20a184.4,184.4,0,0,0-51.15,7.13,130.33,130.33,0,0,0-45.85,23.58C711.8,41.63,700.84,55.79,692.8,72.79s-12,37.19-12,60.22,3.77,42.71,11.22,58.42a119.74,119.74,0,0,0,29.41,39.45A148.09,148.09,0,0,0,761,255.66c13.2,5.63,26.48,10.77,39.48,15.27,8.56,3.07,16.48,6.17,23.55,9.2a68,68,0,0,1,15.22,8.81,26.19,26.19,0,0,1,7.42,8.92c1.56,3.15,2.38,7.4,2.4,12.58-.24,8-2,11.86-3.18,12.52-3,1.71-10.42,4.6-26.37,4.6-14.44,0-30.09-4.17-46.51-12.39A153.84,153.84,0,0,1,727,279.28L705.3,254.9l-11.91,30.36-27,68.89-4.44,11.32,8,9.15a189.28,189.28,0,0,0,68.28,49.94c25.87,11.1,52.49,16.73,79.1,16.73a186,186,0,0,0,53.62-7.8,143.24,143.24,0,0,0,47.74-24.6,125.18,125.18,0,0,0,34.52-43.05c8.68-17.44,13.08-38.23,13.08-61.8,0-23.94-4.11-44.41-12.21-60.82a122,122,0,0,0-31.35-40.39,167,167,0,0,0-40.62-24.73c-13.43-5.76-26.88-11-40-15.55-8.16-3.05-15.92-6.09-23.08-9a62.89,62.89,0,0,1-14.3-7.95l0,0,0,0a23.3,23.3,0,0,1-6.63-7.47,19.74,19.74,0,0,1-1.84-9.26c0-6.77,1.07-9.71,1.5-10.63,2.32-1.17,8.34-3.22,21.86-3.22,10.74,0,22.61,2.72,35.27,8.08a163.39,163.39,0,0,1,39.34,24.27l21.36,17.48,10-25.75,27.59-71.31L958.4,54l-11.56-9.15a215.19,215.19,0,0,0-58-32.66A188.71,188.71,0,0,0,822.37,0Z"/><rect class="cls-1" x="997.06" y="10" width="98.27" height="414.64"/><path class="cls-2" d="M1085.33,20V414.64h-78.27V20h78.27m20-20H987.06V434.64h118.27V0Z"/><path class="cls-3" d="M116.51,696.53c-5.18,0-10.39-.12-15.48-.35-14.19-.63-26.42-2.51-37.36-5.74-33-9.75-50.84-32.91-51.47-67-.49-26.14,8.93-45.3,28.8-58.59a58.4,58.4,0,0,1,19.62-8.72,11.22,11.22,0,0,1,2.56-.33c1.65,0,5.56.62,6.2,6.38.32,3,.78,6.06,1.21,9,.41,2.78.84,5.66,1.17,8.52q0,.13,0,.24c4.52-1,9.25-1.84,14.09-2.59-1.58-3.87-3-7.46-4.41-11.14-.07-.16-.17-.32-.26-.49-.62-1.14-2.53-4.62.41-7.72a5.46,5.46,0,0,1,4-1.73,8.14,8.14,0,0,1,3.12.73,3.12,3.12,0,0,0,.48.18c18.92,4.24,35.76,13.14,51.37,21.89,1,.54,1.91,1.09,2.86,1.64,1.21.71,2.42,1.41,3.65,2.08a8.08,8.08,0,0,0,3.58,1.22c.46,0,1.69,0,3.58-3.25a32.31,32.31,0,0,0,3.68-11.72,162.75,162.75,0,0,0-2.8-63,34.84,34.84,0,0,0-1.66-5c-1.18-2.86-3.23-6.26-6.32-6.26-1.88,0-4.15,1.14-6.56,3.31a118.57,118.57,0,0,1-31.88,20.26C93.48,525,76.49,528.58,55.26,529.7c-1.81.09-3.08.15-4.22.15-8.87,0-9.69-4.94-10.92-12.43-.73-4.45-1.41-9-2.07-13.36-1.19-7.9-2.42-16.06-4-24-1.82-9.16,4.92-10.81,7.8-11.52a331,331,0,0,1,54.62-8.27c5.69-.43,11.3-.64,16.67-.64a175.59,175.59,0,0,1,33.77,3.1c29.81,5.78,49.08,20,58.93,43.59,5.1,12.19,7.62,25.94,7.7,42,.07,14.35.05,28.94,0,43q0,9.06,0,18.12,0,8.64,0,17.27c0,16.31,0,33.17.13,49.74.06,6-2.51,9.08-8.6,10.31C172.91,693.36,143.93,696.53,116.51,696.53Zm7-98.78-1.68,0c-9.81.19-19.06.36-27.47,4.52-6.79,3.35-10.14,8.06-10.55,14.81-.8,12.95,4.62,19.52,18.11,22a104.15,104.15,0,0,0,18.75,1.53c7.84,0,15.9-.64,23.7-1.25l.2,0v-.21q0-7.23,0-14.46v-5.28q0-2.79,0-5.58c0-4.5-.05-9.15.08-13.76a4,4,0,0,0,0-.49c-.17,0-.4-.08-.71-.12A154,154,0,0,0,123.53,597.75Z"/><path class="cls-2" d="M113.17,463.65a172.68,172.68,0,0,1,33,3c25.41,4.93,45.78,16.75,56,41.2,5.41,12.93,7.32,26.61,7.39,40.51.1,20.38,0,40.76,0,61.14,0,22.35-.13,44.7.11,67.05,0,4.17-1.3,5.52-5.39,6.35-29,5.87-58.24,9.6-87.8,9.6q-7.64,0-15.3-.34A152.63,152.63,0,0,1,64.8,686.6c-31.37-9.26-48-31.24-48.61-63.21-.42-22.94,7.13-41.87,27-55.18a54.76,54.76,0,0,1,18.29-8.15,7.76,7.76,0,0,1,1.67-.23c1.42,0,2,.78,2.22,2.81.64,5.88,1.71,11.7,2.39,17.57.28,2.49,1,3.9,3.21,3.9a7.83,7.83,0,0,0,1.6-.2c5.26-1.14,10.58-2.08,15.92-2.86,2.53-.37,2.59-1.45,1.82-3.33-1.76-4.27-3.51-8.55-5.13-12.87-.48-1.29-1.93-2.73-.69-4.05a1.47,1.47,0,0,1,1.1-.48,14,14,0,0,1,2.69.81c18.17,4.07,34.36,12.53,50.33,21.48,2.19,1.23,4.34,2.54,6.55,3.74a11.79,11.79,0,0,0,5.49,1.71c2.78,0,5-1.71,7-5.24a36.87,36.87,0,0,0,4.17-13.13A165.86,165.86,0,0,0,159,505.12a38.77,38.77,0,0,0-1.85-5.61c-2.37-5.78-5.89-8.74-10-8.74-2.85,0-6,1.42-9.23,4.33a113.71,113.71,0,0,1-30.8,19.57c-16.57,7.21-34.14,10.09-52.08,11-1.59.09-2.91.15-4,.15-5.43,0-5.72-1.48-7-9.08C42,504.29,40.45,491.71,38,479.3c-.94-4.75.77-5.86,4.83-6.86a328.41,328.41,0,0,1,54-8.16c5.48-.41,10.94-.63,16.39-.63m7.52,180.94c8.31,0,16.64-.68,24.95-1.34,2.93-.23,3-2.07,3-4.15q0-9.87,0-19.72c0-6.41-.13-12.83,0-19.23.09-3.08-1-4.27-4.18-4.7a159.76,159.76,0,0,0-20.93-1.7l-1.76,0c-10,.19-20,.39-29.16,4.93-7.65,3.78-12.25,9.6-12.78,18.15-.91,14.9,5.7,23.31,21.4,26.15a108.89,108.89,0,0,0,19.46,1.59m-7.52-188.94h0c-5.47,0-11.19.22-17,.65a336.94,336.94,0,0,0-55.28,8.37c-2.91.72-6.2,1.84-8.57,4.72-3.6,4.39-2.54,9.72-2.2,11.47,1.55,7.82,2.77,15.94,4,23.79.66,4.39,1.35,8.94,2.09,13.42s1.28,7.81,3.21,10.62c3.55,5.16,9.43,5.16,11.65,5.16,1.23,0,2.55-.06,4.43-.16,21.72-1.15,39.15-4.86,54.85-11.68a122.49,122.49,0,0,0,33-20.95c2-1.81,3.39-2.29,3.89-2.29.17,0,1.35.7,2.62,3.78a30.92,30.92,0,0,1,1.47,4.46A158.76,158.76,0,0,1,154,568.49a28.26,28.26,0,0,1-3.19,10.31,10.33,10.33,0,0,1-.68,1.05,10,10,0,0,1-1.11-.53c-1.16-.63-2.31-1.3-3.54-2-1-.56-1.93-1.12-2.91-1.67-15.8-8.85-32.84-17.85-52.2-22.24l-.12,0a12,12,0,0,0-4.61-1,9.43,9.43,0,0,0-6.91,3c-1.84,2-4.42,6.15-1,12.4l.1.17c.8,2.14,1.63,4.25,2.49,6.4-1.71.29-3.41.61-5.08.94-.21-1.54-.44-3.05-.66-4.54-.45-3.07-.88-6-1.2-8.9-.8-7.33-5.78-9.94-10.17-9.94a15,15,0,0,0-3.45.43,62.25,62.25,0,0,0-20.95,9.3C28,568.8,19.89,578,14.83,588.8c-4.64,10-6.88,21.66-6.63,34.74.33,17.7,5.17,32.78,14.41,44.84s22.7,20.81,39.92,25.89c11.26,3.33,23.8,5.26,38.32,5.91,5.15.23,10.42.35,15.66.35,27.69,0,56.92-3.2,89.38-9.76,7.92-1.6,11.89-6.4,11.81-14.27-.18-16.6-.16-33.5-.13-49.85q0-8.55,0-17.12,0-9.07,0-18.15c0-14.1,0-28.67,0-43-.08-16.62-2.7-30.87-8-43.56a70.71,70.71,0,0,0-25.12-31.4c-10-6.95-22-11.71-36.74-14.56a181.88,181.88,0,0,0-34.52-3.18Zm-37.38,124Zm44.9,56.94a101.05,101.05,0,0,1-18-1.46C91,633,87.14,628.37,87.82,617.34c.32-5.24,2.89-8.78,8.33-11.46,7.61-3.76,16.43-3.93,25.77-4.11l1.61,0A137.06,137.06,0,0,1,140.58,603c-.06,3.64,0,7.27,0,10.81,0,1.85,0,3.7,0,5.55v16.25c-6.61.51-13.36,1-19.89,1Z"/><path class="cls-3" d="M150.37,588a8,8,0,0,1-5.37-2.11,14.39,14.39,0,0,1-3.72-6.51,146.15,146.15,0,0,1-6-23.72c-.05-.34-.11-.69-.17-1a32.47,32.47,0,0,1-.57-5c-.09-1-.17-1.89-.23-2.84-.19-3-.27-6-.24-9.09a143.75,143.75,0,0,1,5.37-38.06c.08-.26.15-.54.22-.83.46-1.91,1.7-7,7.25-7.25h.37c4.94,0,6.91,4.11,8,6.32l.21.44c5.55,11.33,6.94,23.06,7.57,33a168.42,168.42,0,0,1-3.25,45.15l-.16.76c-.71,3.52-2,10.06-8.45,10.74A7.5,7.5,0,0,1,150.37,588Zm-5.06-58.26a119.37,119.37,0,0,0,.22,19.6c2.81-2.54,4.23-5.73,4.53-10A13.44,13.44,0,0,0,145.31,529.73Z"/><path class="cls-2" d="M147.3,495.5c2.62,0,3.61,2.5,4.59,4.52,4.88,10,6.48,20.64,7.17,31.53a163.49,163.49,0,0,1-3.18,44.08c-.7,3.34-1.31,7.94-5.11,8.34l-.4,0a4,4,0,0,1-2.69-1.08,10.77,10.77,0,0,1-2.61-4.83A140.33,140.33,0,0,1,139.25,555a37.15,37.15,0,0,1-.7-5.64c-.09-1-.16-1.93-.23-2.9-.19-2.92-.26-5.86-.23-8.79a140.35,140.35,0,0,1,5.22-37c.6-2.09.8-5.06,3.8-5.19h.19m-3.8,59.65a4.53,4.53,0,0,0,2.28-1c5.22-3.51,7.91-8.34,8.29-14.93a17.62,17.62,0,0,0-8.58-14.34,5,5,0,0,0-2.31-.95c-.85,0-1.41.7-1.6,2.57a124.24,124.24,0,0,0,.25,26c.2,1.82.76,2.6,1.67,2.6m3.8-67.65-.55,0a10.87,10.87,0,0,0-8.93,5.09,16.47,16.47,0,0,0-2,5.2c-.06.23-.11.46-.17.67a147.52,147.52,0,0,0-5.53,39.09c0,3.23,0,6.4.25,9.43.06.94.14,1.87.22,2.79a37.36,37.36,0,0,0,.62,5.47c.06.34.12.68.17,1a149.74,149.74,0,0,0,6.14,24.37,18.22,18.22,0,0,0,4.82,8.19,12,12,0,0,0,8.06,3.15,10.59,10.59,0,0,0,1.25-.07,12.23,12.23,0,0,0,9.85-7.08,26.32,26.32,0,0,0,2.09-6.84l.15-.73A172.36,172.36,0,0,0,167,531c-.62-9.76-2.08-22.51-8-34.54l-.2-.41c-1.13-2.35-4.13-8.59-11.58-8.59Z"/><path class="cls-3" d="M219.91,552.43a6.52,6.52,0,0,1-6.52-6.37l-.08-5.13a6.53,6.53,0,0,1,6.36-6.55l32.5-.85a6.52,6.52,0,0,1,6.53,6.37l.07,5.06a6.52,6.52,0,0,1-6.34,6.55Z"/><path class="cls-2" d="M252.18,537.53A2.5,2.5,0,0,1,254.7,540l.07,5.06a2.49,2.49,0,0,1-2.45,2.49l-32.33.92h-.08a2.5,2.5,0,0,1-2.52-2.43l-.08-5.13a2.5,2.5,0,0,1,2.46-2.49l32.34-.85h.07m0-8h-.29l-32.33.84A10.53,10.53,0,0,0,209.32,541l.07,5.13a10.54,10.54,0,0,0,10.52,10.31h.31l32.32-.92a10.54,10.54,0,0,0,10.23-10.6l-.07-5.06a10.54,10.54,0,0,0-10.52-10.32Z"/><path class="cls-3" d="M240.28,606.48a9.45,9.45,0,0,1-5.83-2.54c-6-4.88-10.61-9.32-15.56-14.19-8.34-6.35-11.06-14.41-8.32-24.65l1.7-6.35,10,9.07c3.86,3.51,7.6,6.9,11.33,10.31,1.48,1.35,2.93,2.74,4.38,4.12,2.93,2.79,5.7,5.43,8.69,7.85,2.24,1.81,3.39,3.73,3.51,5.86.19,3.11-1.85,5.21-3.49,6.9l-.18.18C245,604.61,243.16,606.48,240.28,606.48Z"/><path class="cls-2" d="M214.43,566.13c5.73,5.2,11.1,10.06,16.44,15,4.42,4,8.61,8.36,13.26,12.13,3.65,2.95,1.73,4.73-.51,7-1.25,1.29-2.14,2.22-3.34,2.22-.85,0-1.87-.47-3.3-1.64-5.85-4.76-10.44-9.17-15.47-14.12-6.94-5.2-9.52-11.44-7.08-20.59m-4.33-14.75-3.39,12.68c-3.14,11.74.07,21.4,9.55,28.72,4.8,4.71,9.63,9.35,15.67,14.27a13.34,13.34,0,0,0,8.35,3.43c4.57,0,7.35-2.87,9-4.59l.06-.06.18-.18c1.84-1.89,4.91-5,4.62-9.93-.2-3.27-1.88-6.21-5-8.73-2.87-2.32-5.57-4.9-8.44-7.63-1.44-1.37-2.93-2.79-4.45-4.18-3.73-3.42-7.42-6.77-11.33-10.31l-5.14-4.66-9.71-8.83Z"/><path class="cls-3" d="M208.63,526.59c-.11-.79-.23-1.56-.35-2.33-.95-6.12-2.13-13.73,5.25-19.92,2.09-2.12,4.11-4.14,6.09-6.13,3.5-3.49,6.8-6.8,10.14-10.35a5.55,5.55,0,0,1,4.19-1.69c3.57,0,9,2.95,10.73,6.76a5.84,5.84,0,0,1-1,6.44c-6.63,7.34-13.65,14.51-20.44,21.44q-3.93,4-7.82,8l-5.73,5.91Z"/><path class="cls-2" d="M234,490.17c3,0,9,4.06,6.81,6.52C231.68,506.74,222,516.3,212.59,526c-1-6.93-2.92-13.36,3.66-18.76,5.78-5.89,11.08-11,16.43-16.68a1.67,1.67,0,0,1,1.27-.43m0-8h0a9.61,9.61,0,0,0-7.1,2.95c-3.3,3.51-6.59,6.8-10.07,10.27-1.93,1.93-3.92,3.92-6,6-8.94,7.62-7.46,17.14-6.48,23.47.12.75.23,1.5.34,2.26l2.23,16.3,11.44-11.82c2.59-2.68,5.2-5.34,7.8-8,6.82-7,13.87-14.16,20.56-21.56a9.85,9.85,0,0,0,1.63-10.74c-2.42-5.47-9.4-9.14-14.38-9.14Z"/><path class="cls-3" d="M471,688.3c-6.48,0-11.89-.19-16.07-.56a41,41,0,0,1-10.6-2.08,14.13,14.13,0,0,1-6.88-5,20.31,20.31,0,0,1-3-7.11L408.65,571,384.89,673.54a21.3,21.3,0,0,1-2.8,7.21,13.53,13.53,0,0,1-7,5.14,39.79,39.79,0,0,1-10.72,2c-4.16.3-9.55.45-16,.45-6.62,0-12.06-.19-16.18-.56a40.61,40.61,0,0,1-10.49-2.08,14.13,14.13,0,0,1-6.88-5,20.1,20.1,0,0,1-3-7L265.51,499.4a79.92,79.92,0,0,1-2.35-10.31,47.62,47.62,0,0,1-.53-6.49,10.64,10.64,0,0,1,1.75-6,11.19,11.19,0,0,1,6-4.15,37,37,0,0,1,8.59-1.6c3.34-.3,7.52-.45,12.45-.45,5.31,0,9.72.15,13.12.45a31.83,31.83,0,0,1,8.77,1.77,11.19,11.19,0,0,1,5.82,4.6,19.59,19.59,0,0,1,2.13,5.58l31.16,126.72,29.23-126.73A16.48,16.48,0,0,1,384.1,477a12.56,12.56,0,0,1,5.55-4.31,28.57,28.57,0,0,1,8.36-1.81c3.21-.3,7.33-.45,12.27-.45a107.57,107.57,0,0,1,12.26.57,37.05,37.05,0,0,1,8.08,1.72,11.29,11.29,0,0,1,5.68,4.13,16.88,16.88,0,0,1,2.2,4.95L470,610.19l30.06-127.28a15.22,15.22,0,0,1,2.13-5.81,11.87,11.87,0,0,1,5.84-4.48,31.1,31.1,0,0,1,8.56-1.77c3.27-.3,7.43-.45,12.36-.45s9,.15,12.26.45a33.34,33.34,0,0,1,8.27,1.63,10.67,10.67,0,0,1,5.68,4.26,11.14,11.14,0,0,1,1.56,5.86,39.66,39.66,0,0,1-.64,6.51c-.41,2.4-1.14,5.74-2.22,10.2L507.09,673.67a23.05,23.05,0,0,1-3.13,7.18,14.22,14.22,0,0,1-6.62,5,35.63,35.63,0,0,1-10.43,2C482.81,688.15,477.46,688.3,471,688.3Z"/><path class="cls-2" d="M529,474.4q7.26,0,11.89.43a30.64,30.64,0,0,1,7.27,1.4,6.87,6.87,0,0,1,3.63,2.59,7.12,7.12,0,0,1,1,3.78,35.74,35.74,0,0,1-.58,5.83q-.6,3.46-2.17,9.94L503.22,672.63a18.88,18.88,0,0,1-2.55,5.94,10.36,10.36,0,0,1-4.81,3.57,32.54,32.54,0,0,1-9.24,1.72q-6,.43-15.62.44c-6.42,0-11.67-.19-15.72-.54a37.89,37.89,0,0,1-9.53-1.84,10.25,10.25,0,0,1-5-3.56,16.19,16.19,0,0,1-2.35-5.73l-29.48-117-.39-1.94-.4,1.94L381,672.63a17.85,17.85,0,0,1-2.26,5.94,9.79,9.79,0,0,1-5,3.57,36.55,36.55,0,0,1-9.62,1.72q-6.11.43-15.72.44c-6.56,0-11.83-.19-15.82-.54a37.82,37.82,0,0,1-9.44-1.84,10.26,10.26,0,0,1-5-3.56,16.38,16.38,0,0,1-2.36-5.73L269.38,498.37a76.44,76.44,0,0,1-2.26-9.83,44.32,44.32,0,0,1-.49-5.94,6.68,6.68,0,0,1,1.08-3.78,7.47,7.47,0,0,1,3.93-2.59,34.48,34.48,0,0,1,7.66-1.4q4.81-.43,12.09-.43,7.86,0,12.77.43a28.84,28.84,0,0,1,7.67,1.51,7.37,7.37,0,0,1,3.83,2.92,15.67,15.67,0,0,1,1.67,4.42l34.78,141.45.39,2.59.4-2.59,32.62-141.45a12.5,12.5,0,0,1,1.86-4.42,8.61,8.61,0,0,1,3.83-2.92,25.25,25.25,0,0,1,7.18-1.51q4.61-.43,11.89-.43a103.55,103.55,0,0,1,11.79.54,32.82,32.82,0,0,1,7.17,1.51A7.33,7.33,0,0,1,433,479a12.79,12.79,0,0,1,1.67,3.78l35,142.52.59,2.38.39-2.59L504,483.68a11.25,11.25,0,0,1,1.57-4.42,8,8,0,0,1,3.93-2.92,28.25,28.25,0,0,1,7.47-1.51q4.71-.43,12-.43m0-8c-5.05,0-9.33.15-12.72.46a35.94,35.94,0,0,0-9.66,2,15.79,15.79,0,0,0-7.73,6,19,19,0,0,0-2.7,7.21L470,593.1,442.41,480.91l0-.1,0-.1a21.25,21.25,0,0,0-2.72-6.1,15.19,15.19,0,0,0-7.65-5.67,40,40,0,0,0-9-1.94,108.72,108.72,0,0,0-12.74-.6c-5.06,0-9.31.15-12.63.46A33,33,0,0,0,388.1,469a16.4,16.4,0,0,0-7.28,5.72,20.59,20.59,0,0,0-3.11,7.22L352.27,592.26,325.11,481.84a23.42,23.42,0,0,0-2.55-6.63,15.16,15.16,0,0,0-7.8-6.31,36.16,36.16,0,0,0-9.89-2c-3.52-.31-8.05-.46-13.48-.46-5.05,0-9.35.15-12.8.46a41.25,41.25,0,0,0-9.54,1.8,15.14,15.14,0,0,0-8,5.73,14.55,14.55,0,0,0-2.42,8.21,52.13,52.13,0,0,0,.56,7,86,86,0,0,0,2.47,10.84L308,674.56a24.25,24.25,0,0,0,3.55,8.36,18.1,18.1,0,0,0,8.77,6.49,44.55,44.55,0,0,0,11.53,2.31c4.24.38,9.81.58,16.54.58,6.55,0,12-.16,16.28-.46a43.83,43.83,0,0,0,11.82-2.19,17.47,17.47,0,0,0,9-6.72,25.1,25.1,0,0,0,3.36-8.55l20-86.37L430.6,674.5a24.31,24.31,0,0,0,3.56,8.42,18.1,18.1,0,0,0,8.77,6.49,45,45,0,0,0,11.64,2.31c4.31.38,9.83.58,16.43.58s12-.16,16.19-.46a39.17,39.17,0,0,0,11.63-2.28,18.15,18.15,0,0,0,8.42-6.42,26.83,26.83,0,0,0,3.71-8.43l46.77-174.27,0-.09,0-.1c1.1-4.55,1.85-8,2.27-10.47a43.3,43.3,0,0,0,.7-7.18,15,15,0,0,0-2.14-7.92,14.48,14.48,0,0,0-7.72-6,37.45,37.45,0,0,0-9.27-1.86c-3.34-.31-7.59-.46-12.64-.46Z"/><path class="cls-3" d="M966.34,687A13.54,13.54,0,0,1,955,681.48c-2.43-3.33-3.62-8.27-3.62-15.11v-9.93c0-2.71.11-5.19.31-7.39a35.85,35.85,0,0,1,1.34-6.84,43.81,43.81,0,0,1,2.59-6.53,70.63,70.63,0,0,1,4-7l62-105.34h-55.1c-2.9,0-6.93-1.31-9.66-7.58-1.74-4-2.59-10-2.59-18.23a97.85,97.85,0,0,1,.52-10.93,30.62,30.62,0,0,1,1.73-7.71,11.35,11.35,0,0,1,4-5.38,10.38,10.38,0,0,1,6-1.79h107.1a19.28,19.28,0,0,1,6,.85,10.4,10.4,0,0,1,5.2,3.8,16.4,16.4,0,0,1,2.65,6.23,38,38,0,0,1,.79,8.46v10.58a70.61,70.61,0,0,1-.42,8.13,50.38,50.38,0,0,1-1.28,6.91,36.89,36.89,0,0,1-2.53,6.79c-1,2-2.2,4.31-3.56,6.7l-61.74,105.24h62.19a10.81,10.81,0,0,1,5.26,1.35,10.62,10.62,0,0,1,4.38,5.09,28.59,28.59,0,0,1,2,7.69,100.4,100.4,0,0,1,0,22.46,35.88,35.88,0,0,1-1.8,7.91,10,10,0,0,1-9.83,7.12Z"/><path class="cls-2" d="M1073.63,475.69a15.24,15.24,0,0,1,4.72.65,6.48,6.48,0,0,1,3.24,2.38,12.73,12.73,0,0,1,2,4.75,34.72,34.72,0,0,1,.69,7.56v10.58a66.79,66.79,0,0,1-.39,7.66,48.66,48.66,0,0,1-1.18,6.37,32.08,32.08,0,0,1-2.26,6.05q-1.47,3-3.44,6.48l-65.24,111.21h69.17a6.89,6.89,0,0,1,3.34.86,6.74,6.74,0,0,1,2.66,3.24,25.4,25.4,0,0,1,1.67,6.59,80.06,80.06,0,0,1,.59,10.69,83.17,83.17,0,0,1-.59,10.69,32.48,32.48,0,0,1-1.58,7,6.83,6.83,0,0,1-2.55,3.57,6.58,6.58,0,0,1-3.54,1H966.34a9.51,9.51,0,0,1-8.16-3.89q-2.85-3.89-2.85-12.74v-9.93q0-3.88.3-7a30.41,30.41,0,0,1,1.18-6,40.31,40.31,0,0,1,2.35-5.93,66.47,66.47,0,0,1,3.84-6.7l65.63-111.43h-62.1c-2.49,0-4.49-1.72-6-5.18s-2.26-9-2.26-16.63a92.34,92.34,0,0,1,.49-10.47,27.06,27.06,0,0,1,1.48-6.69,7.51,7.51,0,0,1,2.55-3.57,6.5,6.5,0,0,1,3.73-1.08h107.1m0-8H966.53a14.51,14.51,0,0,0-8.25,2.48,15.32,15.32,0,0,0-5.47,7.22,34.23,34.23,0,0,0-2,8.72,101,101,0,0,0-.54,11.39c0,8.83,1,15.32,2.93,19.83,3.78,8.69,10,10,13.32,10h48.1l-58.45,99.24a75.17,75.17,0,0,0-4.2,7.37,48.64,48.64,0,0,0-2.83,7.13,39.08,39.08,0,0,0-1.49,7.62c-.22,2.33-.33,4.94-.33,7.77v9.93c0,7.72,1.44,13.44,4.4,17.47A17.38,17.38,0,0,0,966.34,691H1080.9a14,14,0,0,0,13.57-9.69,39.84,39.84,0,0,0,2-8.81,92.25,92.25,0,0,0,.66-11.74,86.28,86.28,0,0,0-.67-11.8,32,32,0,0,0-2.31-8.78,14.37,14.37,0,0,0-6.08-6.94,14.8,14.8,0,0,0-7.2-1.86h-55.2l58.17-99.16,0-.05,0,0c1.4-2.47,2.64-4.8,3.67-6.93a40.07,40.07,0,0,0,2.81-7.53,55.24,55.24,0,0,0,1.38-7.45,74.32,74.32,0,0,0,.45-8.6V491a42.73,42.73,0,0,0-.88-9.33A20.47,20.47,0,0,0,1088,474a14.66,14.66,0,0,0-7.18-5.23,23.29,23.29,0,0,0-7.22-1.05Z"/><path class="cls-3" d="M863.58,693.26c-9.68,0-19.33-.25-26.64-.47-12-.37-27-.82-40.75-5.51a61.55,61.55,0,0,1-22-12.93A58.58,58.58,0,0,1,759.67,653c-3.38-8.36-5.09-18.18-5.09-29.2,0-12,2.18-22.59,6.49-31.53a56.88,56.88,0,0,1,19.56-22.45c8.45-5.76,19-10.07,31.5-12.8,12.23-2.69,26.59-4,42.67-4h13.41V545.1a64.2,64.2,0,0,0-1.59-15.2,24.06,24.06,0,0,0-4.77-9.92,18.75,18.75,0,0,0-8.63-5.6,47.12,47.12,0,0,0-14.82-2,72,72,0,0,0-21.32,2.9,118.93,118.93,0,0,0-16.93,6.58c-4.95,2.44-9.13,4.68-12.4,6.65-4.07,2.46-7.46,3.66-10.37,3.66a9.72,9.72,0,0,1-6.59-2.58,15.23,15.23,0,0,1-3.85-5.93,36.56,36.56,0,0,1-1.92-7.9,68.63,68.63,0,0,1-.64-9.8,49.26,49.26,0,0,1,1.12-11.75,21,21,0,0,1,4.68-8.81c2.19-2.5,5.75-5.08,10.88-7.9a113.7,113.7,0,0,1,17-7.41,144.48,144.48,0,0,1,21.09-5.54,128.59,128.59,0,0,1,23.65-2.16c14.33,0,26.8,1.57,37.07,4.68,10.51,3.18,19.3,8.16,26.14,14.81s11.93,15.36,15,25.79c3,10.16,4.58,22.3,4.58,36.11v8.12c0,7.05,0,14.1,0,21.15,0,13.22-.09,26.89,0,40.32.06,7,.4,14.1.74,21,.5,10.36,1,21.07.6,31.73-.61,15.36-9.23,24.47-24.28,25.65-7.17.57-15.1,1-23.58,1.28C874.21,693.18,869.13,693.26,863.58,693.26Zm-21.42-49.13c8.7,0,16-.12,23.41-.68a11.75,11.75,0,0,0,2.94-.49c-.22-3.74-.16-7.46-.1-11.06,0-1.67.06-3.34.06-5v-5.34c0-3.91,0-7.82,0-11.72,0-.71,0-1.46.07-2.23.23-4.65-.13-5.61-1.24-6a28,28,0,0,0-7.85-.91c-1,0-2.05-.06-3-.12l-1.07-.06c-3.71-.22-7.54-.45-11.28-.52l-3,0a78,78,0,0,0-11.39.72c-7.5,1.1-13,3.47-16.83,7.25a22.12,22.12,0,0,0-6.48,14.38c-.36,6.43,2,11.87,6.57,15.33,6,4.53,14.31,5.87,20.11,6.46Z"/><path class="cls-2" d="M842.8,466.4q21,0,35.91,4.51t24.51,13.85q9.6,9.35,14,24.07t4.41,35v8.12c0,20.5-.2,41,0,61.5.15,17.53,2,35,1.35,52.52-.52,12.94-7.4,20.78-20.61,21.82-7.73.62-15.65,1-23.39,1.27-5.1.17-10.23.24-15.37.24-8.9,0-17.82-.21-26.53-.47-13.31-.4-26.86-.95-39.57-5.29a57.26,57.26,0,0,1-20.61-12.09,54.28,54.28,0,0,1-13.5-19.9q-4.8-11.87-4.8-27.7,0-17.14,6.1-29.79a52.54,52.54,0,0,1,18.2-20.88Q795,564.89,813,560.93T854.8,557h17.41V545.1a68.36,68.36,0,0,0-1.7-16.15,28,28,0,0,0-5.6-11.55,22.91,22.91,0,0,0-10.41-6.81,50.93,50.93,0,0,0-16.1-2.2,75.92,75.92,0,0,0-22.51,3.08,121.69,121.69,0,0,0-17.5,6.81q-7.6,3.75-12.71,6.82t-8.3,3.08a5.66,5.66,0,0,1-3.9-1.54,11.17,11.17,0,0,1-2.8-4.4,32.34,32.34,0,0,1-1.7-7,65.29,65.29,0,0,1-.6-9.24,45.69,45.69,0,0,1,1-10.77,17,17,0,0,1,3.8-7.15q2.8-3.18,9.8-7a110,110,0,0,1,16.41-7.15,141.23,141.23,0,0,1,20.5-5.38,124,124,0,0,1,22.91-2.09m-.61,181.73c7.89,0,15.75-.09,23.68-.69,2.53-.19,6.89-.73,6.67-4.17-.36-5.47-.07-10.92-.07-16.39,0-5.68,0-11.36,0-17,0-4.24,1.27-10.3-3.9-12-3.75-1.26-8-1-11.92-1.23-4.17-.24-8.34-.51-12.51-.59L841,596a82.45,82.45,0,0,0-12,.76c-7,1-13.93,3.3-19.06,8.36a26.13,26.13,0,0,0-7.67,17c-.4,7.35,2.19,14.24,8.16,18.74,6.32,4.76,14.59,6.48,22.31,7.26l9.38,0m.61-189.73a132,132,0,0,0-24.38,2.23,147.74,147.74,0,0,0-21.68,5.7A117.29,117.29,0,0,0,779.13,474c-5.54,3-9.45,5.91-12,8.76a25.07,25.07,0,0,0-5.55,10.47A53.22,53.22,0,0,0,760.38,506a73.69,73.69,0,0,0,.68,10.37,39.83,39.83,0,0,0,2.16,8.78,19,19,0,0,0,4.91,7.46,13.56,13.56,0,0,0,9.25,3.6c3.66,0,7.72-1.39,12.44-4.23,3.18-1.92,7.25-4.1,12.1-6.49a114.85,114.85,0,0,1,16.35-6.35,68,68,0,0,1,20.13-2.72A43.4,43.4,0,0,1,852,518.17a14.93,14.93,0,0,1,6.85,4.4,20.16,20.16,0,0,1,3.94,8.28,60.56,60.56,0,0,1,1.47,14.25V549H854.8c-16.37,0-31,1.39-43.53,4.14-12.95,2.85-24,7.36-32.89,13.4a60.9,60.9,0,0,0-20.91,24c-4.57,9.48-6.89,20.68-6.89,33.27,0,11.54,1.81,21.87,5.38,30.7a62.47,62.47,0,0,0,15.5,22.78,65.56,65.56,0,0,0,23.44,13.78c14.31,4.88,29.62,5.34,41.92,5.71,7.35.22,17,.48,26.77.48,5.59,0,10.71-.08,15.63-.24,8.55-.29,16.55-.72,23.76-1.29,8.58-.68,15.41-3.7,20.3-9,4.75-5.12,7.33-12,7.67-20.49.43-10.83-.1-21.64-.61-32.08-.33-6.85-.67-13.93-.73-20.83-.12-13.4-.07-27.06,0-40.26,0-6.94,0-14.11,0-21.17v-8.12c0-14.19-1.6-26.73-4.74-37.25-3.32-11.1-8.73-20.35-16.09-27.52s-16.64-12.4-27.77-15.77c-10.65-3.22-23.51-4.85-38.23-4.85Zm-9.58,181.71c-5.3-.56-12.75-1.77-17.9-5.65-4.48-3.37-5.19-8.34-5-11.92a18.12,18.12,0,0,1,5.3-11.76c3.2-3.15,8-5.16,14.61-6.13A72.46,72.46,0,0,1,841,604c1,0,2,0,3,0,3.63.07,7.23.28,11,.51l1.18.07c1.07.06,2.13.09,3.16.12a39.37,39.37,0,0,1,5.28.36c0,.76,0,1.68-.07,2.34s-.08,1.57-.08,2.39c0,4,0,7.94,0,11.8,0,1.77,0,3.53,0,5.29s0,3.24-.06,5c0,2.51-.08,5.08,0,7.7-7,.49-13.94.6-22.19.6h-9Z"/><path class="cls-3" d="M670,693.26c-9.68,0-19.32-.25-26.64-.47-12-.37-27-.82-40.75-5.51a61.46,61.46,0,0,1-22-12.93A58.58,58.58,0,0,1,566.07,653c-3.38-8.36-5.09-18.18-5.09-29.2,0-12,2.18-22.6,6.49-31.53A56.88,56.88,0,0,1,587,569.83c8.45-5.76,19.05-10.07,31.5-12.8,12.23-2.69,26.59-4,42.67-4h13.41V545.1A64.26,64.26,0,0,0,673,529.9a24.06,24.06,0,0,0-4.77-9.92,18.75,18.75,0,0,0-8.63-5.6,47.12,47.12,0,0,0-14.82-2,72,72,0,0,0-21.32,2.9,118.93,118.93,0,0,0-16.93,6.58c-4.95,2.44-9.12,4.68-12.4,6.65-4.07,2.46-7.46,3.66-10.37,3.66a9.72,9.72,0,0,1-6.59-2.58,15.23,15.23,0,0,1-3.85-5.93,36.56,36.56,0,0,1-1.92-7.9,68.63,68.63,0,0,1-.64-9.8,49.26,49.26,0,0,1,1.12-11.75,21.05,21.05,0,0,1,4.68-8.81c2.19-2.5,5.75-5.08,10.88-7.9a113.7,113.7,0,0,1,17-7.41,144.48,144.48,0,0,1,21.09-5.54,128.59,128.59,0,0,1,23.65-2.16c14.33,0,26.8,1.57,37.07,4.68,10.51,3.18,19.31,8.16,26.14,14.81s11.93,15.36,15.05,25.79c3,10.16,4.57,22.31,4.57,36.11v8.12c0,7.05,0,14.1,0,21.15,0,13.22-.09,26.89,0,40.32.06,7,.4,14.1.74,21,.5,10.35,1,21.07.6,31.72-.61,15.36-9.23,24.47-24.28,25.65-7.17.57-15.1,1-23.58,1.28C680.61,693.18,675.53,693.26,670,693.26Zm-21.43-49.13c8.71,0,16-.12,23.42-.68a11.75,11.75,0,0,0,2.94-.49c-.22-3.74-.16-7.46-.1-11.06,0-1.67.06-3.34.06-5v-5.29c0-3.93,0-7.85,0-11.77,0-.71,0-1.46.07-2.23.23-4.65-.13-5.61-1.24-6a28,28,0,0,0-7.85-.91c-1,0-2.05-.06-3-.12l-1.07-.06c-3.71-.22-7.54-.45-11.28-.52-1,0-2,0-3,0a77.8,77.8,0,0,0-11.38.72c-7.5,1.1-13,3.47-16.83,7.25a22.12,22.12,0,0,0-6.48,14.38c-.36,6.43,2,11.87,6.57,15.33,6,4.53,14.31,5.87,20.11,6.46Z"/><path class="cls-2" d="M649.2,466.4q21,0,35.91,4.51t24.51,13.85q9.6,9.35,14,24.07t4.41,35v8.12c0,20.5-.2,41,0,61.5.15,17.53,2,35,1.35,52.52-.52,12.94-7.4,20.78-20.61,21.82-7.73.62-15.65,1-23.39,1.27-5.1.17-10.23.24-15.37.24-8.9,0-17.82-.21-26.53-.47-13.31-.4-26.86-.95-39.57-5.29a57.26,57.26,0,0,1-20.61-12.09,54.28,54.28,0,0,1-13.5-19.9q-4.8-11.87-4.8-27.7,0-17.14,6.1-29.79a52.54,52.54,0,0,1,18.2-20.88q12.11-8.25,30.11-12.21T661.2,557h17.41V545.1a68.36,68.36,0,0,0-1.7-16.15,28,28,0,0,0-5.6-11.55,22.91,22.91,0,0,0-10.41-6.81,50.93,50.93,0,0,0-16.1-2.2,75.92,75.92,0,0,0-22.51,3.08,121.23,121.23,0,0,0-17.5,6.81q-7.6,3.75-12.71,6.82t-8.3,3.08a5.66,5.66,0,0,1-3.9-1.54,11.17,11.17,0,0,1-2.8-4.4,32.34,32.34,0,0,1-1.7-7,65.29,65.29,0,0,1-.6-9.24,45.69,45.69,0,0,1,1-10.77,17,17,0,0,1,3.8-7.15q2.8-3.18,9.8-7a110,110,0,0,1,16.41-7.15,141.23,141.23,0,0,1,20.5-5.38,124,124,0,0,1,22.91-2.09m-.61,181.73c7.89,0,15.75-.09,23.68-.69,2.53-.19,6.89-.73,6.67-4.17-.36-5.47-.07-10.92-.07-16.39,0-5.68,0-11.36,0-17,0-4.24,1.27-10.3-3.9-12-3.75-1.26-8-1-11.92-1.23-4.17-.24-8.34-.51-12.51-.59l-3.12,0a82.45,82.45,0,0,0-12,.76c-7,1-13.93,3.3-19.06,8.36a26.13,26.13,0,0,0-7.67,17c-.4,7.35,2.19,14.24,8.16,18.74,6.33,4.76,14.59,6.48,22.31,7.26l9.38,0m.61-189.73a132,132,0,0,0-24.38,2.23,147.74,147.74,0,0,0-21.68,5.7A117.29,117.29,0,0,0,585.53,474c-5.54,3-9.45,5.91-12,8.76A25,25,0,0,0,568,493.24,53.22,53.22,0,0,0,566.78,506a73.69,73.69,0,0,0,.68,10.37,40.43,40.43,0,0,0,2.15,8.78,19.12,19.12,0,0,0,4.92,7.46,13.56,13.56,0,0,0,9.25,3.6c3.66,0,7.72-1.39,12.44-4.23,3.18-1.92,7.25-4.11,12.1-6.49a114.85,114.85,0,0,1,16.35-6.35,68,68,0,0,1,20.13-2.72,43.4,43.4,0,0,1,13.55,1.78,14.93,14.93,0,0,1,6.85,4.4,20.16,20.16,0,0,1,3.94,8.28,60.56,60.56,0,0,1,1.47,14.25V549H661.2c-16.37,0-31,1.39-43.53,4.14-12.95,2.85-24,7.36-32.89,13.4a60.82,60.82,0,0,0-20.91,24C559.3,600,557,611.22,557,623.81c0,11.54,1.81,21.87,5.38,30.7a62.51,62.51,0,0,0,15.5,22.78,65.56,65.56,0,0,0,23.44,13.78c14.31,4.88,29.62,5.34,41.92,5.71,7.35.22,17,.48,26.77.48,5.59,0,10.71-.08,15.63-.24,8.55-.29,16.55-.72,23.76-1.29,8.58-.68,15.41-3.7,20.3-9,4.75-5.12,7.33-12,7.67-20.49.43-10.83-.1-21.64-.61-32.08-.33-6.85-.67-13.93-.73-20.83-.12-13.4-.07-27.06,0-40.26,0-6.94,0-14.11,0-21.17v-8.12c0-14.19-1.6-26.73-4.74-37.25-3.32-11.1-8.73-20.35-16.09-27.52s-16.64-12.4-27.77-15.77c-10.65-3.22-23.51-4.85-38.23-4.85Zm-9.58,181.71c-5.3-.56-12.75-1.77-17.9-5.65-4.48-3.38-5.19-8.34-5-11.92a18.12,18.12,0,0,1,5.3-11.76c3.2-3.15,8-5.16,14.61-6.13a72.46,72.46,0,0,1,10.79-.68c1,0,2,0,3,0,3.63.07,7.22.28,11,.51l1.18.07c1.07.06,2.13.09,3.16.12a39.37,39.37,0,0,1,5.28.36c0,.76,0,1.68-.07,2.34s-.08,1.57-.08,2.39c0,3.94,0,7.92,0,11.77,0,1.78,0,3.55,0,5.32s0,3.25-.06,5c0,2.52-.08,5.08,0,7.7-7,.49-13.94.6-22.19.6h-9Z"/></g></g></svg>