<svg xmlns="http://www.w3.org/2000/svg" viewBox="0 0 531.44 531.19"><defs><style>.cls-1{fill:#1fad93;}.cls-2,.cls-7{fill:#fff;}.cls-3{fill:#1a2e35;}.cls-4{fill:#e1e1e1;}.cls-5{fill:#fafafa;}.cls-6{fill:#ececec;}.cls-7{opacity:0.7;}.cls-8{fill:#f5f5f5;}.cls-9{fill:#375a64;}.cls-10{fill:#e8505b;}.cls-11{opacity:0.3;}.cls-12{fill:#ffbe9d;}.cls-13{fill:#eb996e;}</style></defs><title>Asset 1</title><g id="Layer_2" data-name="Layer 2"><g id="Layer_2-2" data-name="Layer 2"><path class="cls-1" d="M127.54,327.8c20.82-21,20.6-52.94,14.59-80.59-1-4.61-1.38-9.6-4.34-13.27s-8.61-5.52-12.41-2.8c-3.15,2.25-3.92,6.53-5.25,10.2a27.66,27.66,0,0,1-9,12.39c-2.68,2.07-6.17,3.67-9.38,2.59-4.4-1.48-5.88-6.92-6.7-11.55q-2.27-12.92-4.54-25.84c-.81-4.63-1.66-9.35-3.89-13.47s-6.15-7.61-10.77-8-9.59,3.09-9.69,7.78c0,2,.69,3.83.92,5.77s-.29,4.23-2,5.09-3.83-.09-5.46-1.19c-5.62-3.8-9.94-9.21-14.06-14.64s-8.15-11-13.41-15.3-12-7.23-18.64-6.4-13,6.19-13.48,13,4.51,12.73,9.61,17.24a104.32,104.32,0,0,0,25.19,16.55c1.64.77,3.42,1.6,4.29,3.21,1.56,2.89-.8,6.48-3.65,8-3.24,1.77-7,2.09-10.56,3.17s-7.13,3.38-7.88,7c-1,5.07,3.82,9.3,8.3,11.83a89.57,89.57,0,0,0,28.88,10.32c3.62.63,7.39,1.07,10.57,3s5.58,5.73,4.52,9.29-5.12,5.37-8.8,5.36-7.22-1.37-10.84-2c-6.78-1.24-14.9.69-18,6.92-2,4.09-1.34,9.15.79,13.2s5.55,7.26,9.08,10.14c12.35,10.08,27.12,17.32,42.77,19.74s29.54,1.32,43.2-6.7"/><path class="cls-2" d="M131.66,348.36a205.46,205.46,0,0,0-14.48-36.69c-6.65-13.29-15.15-27.25-24.54-41.55l-7-10.57c-2.3-3.46-4.59-6.89-7-10.11a210.89,210.89,0,0,0-15.08-17.7c-5.07-5.39-10.08-10.33-14.8-14.91s-9.22-8.76-13.47-12.39A167.21,167.21,0,0,0,14,188.8c-2.66-1.65-4.76-2.85-6.19-3.65l-1.64-.9a3.44,3.44,0,0,0-.57-.28,4,4,0,0,0,.53.36l1.59,1c1.41.85,3.48,2.1,6.1,3.78a177.68,177.68,0,0,1,21.11,15.83c4.21,3.65,8.66,7.85,13.36,12.44s9.68,9.55,14.72,15A211.18,211.18,0,0,1,78,250c2.42,3.2,4.68,6.61,7,10.08s4.63,7,7,10.56A430.47,430.47,0,0,1,116.48,312a208.82,208.82,0,0,1,14.59,36.49"/><path class="cls-2" d="M78.37,249.45a9.48,9.48,0,0,0,.1-2c0-1.32,0-3.23-.14-5.59-.18-4.72-.66-11.22-1.21-18.39s-.94-13.67-1.05-18.37c-.06-2.36-.1-4.26-.1-5.58a9,9,0,0,0-.11-2.05,9.19,9.19,0,0,0-.23,2c-.09,1.32-.16,3.23-.17,5.59,0,4.72.24,11.25.8,18.43s1.07,13.47,1.46,18.36c.17,2.21.3,4.08.41,5.57A9.62,9.62,0,0,0,78.37,249.45Z"/><path class="cls-2" d="M17,249.17A13.23,13.23,0,0,0,19.4,249c1.55-.14,3.79-.36,6.56-.54,5.55-.4,13.23-.69,21.71-.64s16.17.46,21.72.9c2.77.2,5,.42,6.56.57a12.53,12.53,0,0,0,2.42.14A12.6,12.6,0,0,0,76,249c-1.54-.25-3.78-.57-6.55-.85-5.55-.6-13.25-1.08-21.77-1.15a214,214,0,0,0-21.76.9c-2.78.26-5,.57-6.55.82A12.6,12.6,0,0,0,17,249.17Z"/><path class="cls-2" d="M116.25,310.71a2.66,2.66,0,0,0,.28-.79c.17-.63.37-1.4.62-2.34.54-2,1.23-5,2-8.64,1.63-7.32,3.55-17.51,5.53-28.78s3.8-21.46,5.27-28.81c.73-3.57,1.33-6.51,1.77-8.7.19-.94.34-1.73.47-2.37a3.27,3.27,0,0,0,.1-.84,3.29,3.29,0,0,0-.27.8l-.63,2.33c-.53,2-1.22,5-2,8.65-1.63,7.32-3.56,17.51-5.53,28.78s-3.81,21.46-5.28,28.81c-.72,3.57-1.32,6.51-1.76,8.69-.19.95-.34,1.73-.47,2.37A3.15,3.15,0,0,0,116.25,310.71Z"/><path class="cls-2" d="M32.73,299.66a3.36,3.36,0,0,0,.84.18l2.43.35,9,1.2c7.55,1,18,2.53,29.48,4.23s22,3.12,29.53,4c3.79.43,6.86.75,9,.92l2.44.19a2.7,2.7,0,0,0,.86,0,3.64,3.64,0,0,0-.84-.18l-2.43-.35L104,309c-7.56-1-18-2.54-29.49-4.24s-21.95-3.12-29.53-4c-3.79-.43-6.86-.75-9-.93l-2.45-.19A3.15,3.15,0,0,0,32.73,299.66Z"/><path class="cls-1" d="M365.93,90.36a14.56,14.56,0,0,0,5-13.75,19.32,19.32,0,0,0-8.33-12.43c-1.95-1.34-4.37-2.4-6.65-1.73a6.23,6.23,0,0,0-4,4.86,12.58,12.58,0,0,0,.76,6.52c2.48,7.18,6.2,13.67,13.24,16.53"/><path class="cls-1" d="M372.57,102.62a34.1,34.1,0,0,1,30.15-7.89c2.68.62,5.69,2,6.14,4.75s-2,5-4.38,6.41a29.13,29.13,0,0,1-32.22-2.59"/><path class="cls-1" d="M411,45.85a17.1,17.1,0,0,0-13.19,2.27A30,30,0,0,0,388.41,58c-4.75,7.5-6.42,17.57-6.63,26.44,9.85-.39,18.26-8.13,22.28-12.33,6.36-6.63,13.82-22.47,7-26.24"/><path class="cls-3" d="M357.68,116a35,35,0,0,0,2.46-3.72,62.14,62.14,0,0,0,5.54-15.81,31.28,31.28,0,0,0-1.23-16.68,20.69,20.69,0,0,0-2.38-4.52,5.52,5.52,0,0,0-1.22-1.42c-.17.11,1.58,2.18,2.94,6.18a32.85,32.85,0,0,1,.91,16.27A72.3,72.3,0,0,1,359.5,112"/><path class="cls-3" d="M357.59,116.14l5.13-6.62c4.31-5.59,10.29-13.31,17-21.74s12.9-16,17.39-21.43l5.3-6.48a18.87,18.87,0,0,0,1.86-2.45,16.55,16.55,0,0,0-2.15,2.2c-1.34,1.46-3.23,3.6-5.55,6.27C392,71.24,385.68,78.72,379,87.16s-12.62,16.23-16.8,21.94c-2.09,2.85-3.75,5.18-4.87,6.81"/><path class="cls-3" d="M396.57,100.56a6,6,0,0,0-1.71-.53,14.93,14.93,0,0,0-2.06-.39,24.81,24.81,0,0,0-2.76-.3,36,36,0,0,0-7.24.28A38.51,38.51,0,0,0,366.37,106a35.37,35.37,0,0,0-5.51,4.69,24.39,24.39,0,0,0-1.84,2.08,14.38,14.38,0,0,0-1.25,1.68c-.64,1-.55,1.41-.49,1.45s1.16-1.91,4.07-4.72a41.36,41.36,0,0,1,5.54-4.42,44.31,44.31,0,0,1,7.69-4,45.29,45.29,0,0,1,8.36-2.26,39.94,39.94,0,0,1,7.07-.47C394.06,100.15,396.53,100.75,396.57,100.56Z"/><path class="cls-3" d="M320.22,531l-175.35-.81c-21.09-.09-38.11-17.74-38-39.41l1.91-451.71C108.86,17.41,126-.1,147.14,0L322.49.81c21.09.1,38.11,17.74,38,39.41l-1.91,451.72C358.5,513.62,341.32,531.12,320.22,531Z"/><path class="cls-4" d="M346.59,412.64a3.86,3.86,0,1,1-3.86-3.86A3.86,3.86,0,0,1,346.59,412.64Z"/><path class="cls-4" d="M342.73,421.12c-.19,0-.34-1.9-.34-4.24s.15-4.24.34-4.24.34,1.9.34,4.24S342.92,421.12,342.73,421.12Z"/><path class="cls-5" d="M326,15.73l-35.06-.17a8.72,8.72,0,0,0-8.55,8.87l0,6.36a8.71,8.71,0,0,1-8.55,8.86l-68.36-.32A8.71,8.71,0,0,1,197,30.39L197,24a8.72,8.72,0,0,0-8.47-8.94L176.18,15l-30.69-.14a27.6,27.6,0,0,0-27.72,27.48L115.9,485a27.6,27.6,0,0,0,27.47,27.71l180.5.83A27.6,27.6,0,0,0,351.59,486l1.87-442.58A27.59,27.59,0,0,0,326,15.73Z"/><path class="cls-6" d="M127.89,365c1.54-1.15,77-34.41,77-34.41l-88.18-44-.3,70.84Z"/><polygon class="cls-1" points="132.5 285.21 196.81 252.52 127.69 214.2 117.03 216.87 116.77 278.88 132.5 285.21"/><polygon class="cls-7" points="132.5 285.21 196.81 252.52 127.69 214.2 117.03 216.87 116.77 278.88 132.5 285.21"/><polygon class="cls-6" points="119.36 209.75 317.63 117.14 121.19 52.95 119.36 209.75"/><polygon class="cls-6" points="117.06 450.91 207.66 404.41 342.53 483.77 310.4 511.93 195.3 511.93 117.06 464.11 117.06 450.91"/><polygon class="cls-6" points="225.49 399.39 337.54 465.82 350.03 464.4 350.03 400.52 288.63 368.02 225.49 399.39"/><polygon class="cls-6" points="243.91 335.95 349.55 395.38 349.55 317.69 311.33 301.31 243.91 335.95"/><polygon class="cls-6" points="131.08 368.69 193.05 402.7 268.25 363.74 208.51 333.35 131.08 368.69"/><polygon class="cls-6" points="224.1 252.1 311.9 295.6 352.6 274.8 352.87 245.65 293.56 216.87 224.1 252.1"/><polygon class="cls-6" points="134.32 290.04 222.12 333.54 262.82 312.75 263.09 283.6 203.78 254.81 134.32 290.04"/><polygon class="cls-6" points="146.49 211.85 218.03 247.68 284.75 211.85 215.62 180.31 146.49 211.85"/><path class="cls-1" d="M284.75,440.78a7.68,7.68,0,0,1-1.29-.65l-3.7-2.08-14.21-8.21L213,399l-1.1-.64,1.14-.58,69-35.08,0,1.59-51.52-27.47-1.64-.86,1.64-.86L302,297.52v1.81L293.5,295,133.18,213.67l-1.51-.76,1.53-.73,85.08-40.57c10.19-4.81,18.17-8.56,23.61-11.12l6.22-2.86,1.6-.71a2.75,2.75,0,0,1,.56-.2,2,2,0,0,1-.5.32l-1.55.81-6.12,3.08-23.41,11.53-84.77,41.22v-1.49l160.5,81,8.54,4.32,1.77.9-1.76.92-71.62,37.49v-1.73l51.45,27.61,1.52.81-1.54.78L213.61,399l0-1.22,52.28,31.38,14,8.53,3.6,2.25A8.53,8.53,0,0,1,284.75,440.78Z"/><path class="cls-1" d="M269.36,114.66c0-13.06-13.73-21.34-27.73-14.79a15.84,15.84,0,0,0-7.36,7.06c-3.53,6.82-2,14.61,1.22,21.08l10.9,27.61a4.69,4.69,0,0,0,8.74,0l10.69-27.75C269.51,119.37,269.36,114.66,269.36,114.66ZM256.21,126c-9.41,5.47-18.95-4.65-13.79-14.63a7.88,7.88,0,0,1,3-3.17c9.41-5.47,19,4.64,13.79,14.63A8,8,0,0,1,256.21,126Z"/><polygon class="cls-8" points="248.46 257.62 248.14 242.19 288.36 261.67 288.36 277.69 248.46 257.62"/><polygon class="cls-4" points="288.36 261.67 338.33 236.84 338.33 254.13 288.36 277.69 288.36 261.67"/><polygon class="cls-8" points="248.14 242.19 297.16 217.67 338.33 236.84 288.36 261.67 248.14 242.19"/><polygon class="cls-5" points="253.4 248.85 253.4 256.33 257.33 258.11 257.33 250.96 253.4 248.85"/><polygon class="cls-5" points="259.68 251.63 259.68 259.11 263.62 260.88 263.62 253.73 259.68 251.63"/><polygon class="cls-4" points="121.9 160.26 121.9 140.18 169.51 163.24 169.51 182.21 121.9 160.26"/><polygon class="cls-8" points="169.51 163.24 228.66 133.85 228.66 154.31 169.51 182.21 169.51 163.24"/><polygon class="cls-5" points="121.9 140.18 179.93 111.16 228.66 133.85 169.51 163.24 121.9 140.18"/><polygon class="cls-5" points="128.12 148.07 128.12 156.93 132.77 159.03 132.77 150.56 128.12 148.07"/><polygon class="cls-5" points="135.56 151.35 135.56 160.21 140.22 162.31 140.22 153.84 135.56 151.35"/><path class="cls-4" d="M265.42,328.1v15.82l17,8.37V336Z"/><polygon class="cls-4" points="304.08 325.58 282.39 335.95 282.39 352.29 304.08 340.19 304.08 325.58"/><polygon class="cls-8" points="265.43 328.1 286.92 317.69 304.08 325.58 282.39 335.95 265.43 328.1"/><polygon class="cls-5" points="271.45 339.45 271.45 346.94 275.39 348.71 275.39 341.56 271.45 339.45"/><path class="cls-4" d="M128.36,319.91v15.83l17,8.37V327.77Z"/><polygon class="cls-4" points="167.01 317.4 145.32 327.77 145.32 344.11 167.01 332.01 167.01 317.4"/><polygon class="cls-8" points="128.35 319.91 149.85 309.5 167.01 317.4 145.32 327.77 128.35 319.91"/><polygon class="cls-5" points="134.38 331.27 134.38 338.75 138.32 340.53 138.32 333.38 134.38 331.27"/><path class="cls-8" d="M198.71,215.47V231.3l17,8.37V223.33Z"/><polygon class="cls-4" points="237.36 212.96 215.68 223.33 215.68 239.67 237.36 227.57 237.36 212.96"/><polygon class="cls-8" points="198.71 215.47 220.2 205.07 237.36 212.96 215.68 223.33 198.71 215.47"/><polygon class="cls-4" points="204.74 226.83 204.74 234.32 208.67 236.09 208.67 228.94 204.74 226.83"/><path class="cls-4" d="M179.85,351.08v15.83l17,8.36V358.93Z"/><polygon class="cls-6" points="218.5 348.56 196.81 358.93 196.81 375.27 218.5 363.18 218.5 348.56"/><polygon class="cls-8" points="179.85 351.08 201.34 340.67 218.5 348.56 196.81 358.93 179.85 351.08"/><polygon class="cls-5" points="185.88 362.44 185.88 369.92 189.81 371.7 189.81 364.54 185.88 362.44"/><path class="cls-8" d="M249.9,389.3v19.85l35.76,21.06V409.72Z"/><polygon class="cls-4" points="312.85 395.07 285.66 409.72 285.66 430.21 312.85 415.04 312.85 395.07"/><polygon class="cls-5" points="249.9 389.3 276.85 376.25 312.85 395.07 285.66 409.72 249.9 389.3"/><polygon class="cls-5" points="263.4 407.66 263.4 417.04 268.33 420.01 268.33 410.72 263.4 407.66"/><path class="cls-4" d="M163.88,430.15V450l35.76,21.05V450.56Z"/><polygon class="cls-5" points="242.31 427.44 199.64 450.56 199.64 471.06 242.43 447.34 242.31 427.44"/><polygon class="cls-8" points="163.88 430.15 209.01 408.3 242.43 427.51 199.64 450.56 163.88 430.15"/><polygon class="cls-5" points="177.38 448.5 177.38 457.89 182.31 460.85 182.31 451.57 177.38 448.5"/><polygon class="cls-8" points="299.24 355.95 299.24 435.21 321.56 446.75 321.56 366.49 299.24 355.95"/><polygon class="cls-5" points="315.73 348.35 299.24 355.95 321.56 366.49 336.57 358.03 315.73 348.35"/><polygon class="cls-4" points="321.56 366.49 321.56 446.75 335.14 439.44 336.57 358.03 321.56 366.49"/><polygon class="cls-8" points="204.92 291.76 204.92 371.01 227.23 382.55 227.23 302.29 204.92 291.76"/><polygon class="cls-5" points="221.4 284.15 204.92 291.76 227.23 302.29 242.25 293.84 221.4 284.15"/><polygon class="cls-4" points="227.23 302.29 227.23 382.55 240.8 375.86 242.25 293.84 227.23 302.29"/><path class="cls-4" d="M215.05,442.48v19.85l35.76,21.05V462.89Z"/><polygon class="cls-5" points="278 448.25 250.81 462.89 250.81 483.38 278 468.21 278 448.25"/><polygon class="cls-8" points="215.05 442.48 242.31 427.44 278 448.25 250.81 462.89 215.05 442.48"/><polygon class="cls-5" points="228.55 460.83 228.55 470.21 233.48 473.18 233.48 463.9 228.55 460.83"/><polygon class="cls-6" points="294.58 205.88 229.45 176.53 320.14 130.37 349.9 174.75 294.58 205.88"/><polygon class="cls-1" points="352.54 232.84 352.99 182.02 302.5 210.75 352.54 232.84"/><path class="cls-4" d="M314.18,283.73a3.87,3.87,0,1,1-3.87-3.86A3.87,3.87,0,0,1,314.18,283.73Z"/><path class="cls-4" d="M310.31,292.21c-.19,0-.34-1.9-.34-4.24s.15-4.24.34-4.24.34,1.9.34,4.24S310.5,292.21,310.31,292.21Z"/><path class="cls-4" d="M208.78,274.27a3.87,3.87,0,1,1-3.86-3.87A3.86,3.86,0,0,1,208.78,274.27Z"/><path class="cls-4" d="M204.92,282.74c-.19,0-.34-1.9-.34-4.24s.15-4.23.34-4.23.34,1.89.34,4.23S205.11,282.74,204.92,282.74Z"/><path class="cls-4" d="M157.15,328.2a3.87,3.87,0,1,1-3.87-3.86A3.87,3.87,0,0,1,157.15,328.2Z"/><path class="cls-4" d="M153.28,336.68c-.18,0-.34-1.9-.34-4.24s.16-4.24.34-4.24.35,1.9.35,4.24S153.47,336.68,153.28,336.68Z"/><path class="cls-4" d="M161,286.58a3.87,3.87,0,1,1-3.86-3.86A3.86,3.86,0,0,1,161,286.58Z"/><path class="cls-4" d="M157.15,295.06c-.19,0-.34-1.9-.34-4.24s.15-4.24.34-4.24.34,1.9.34,4.24S157.34,295.06,157.15,295.06Z"/><path class="cls-4" d="M256.36,282.76a3.86,3.86,0,1,1-3.86-3.86A3.86,3.86,0,0,1,256.36,282.76Z"/><path class="cls-4" d="M252.5,291.24c-.19,0-.34-1.9-.34-4.24s.15-4.24.34-4.24.34,1.9.34,4.24S252.69,291.24,252.5,291.24Z"/><path class="cls-4" d="M317.39,311.7a3.87,3.87,0,1,1-3.87-3.86A3.87,3.87,0,0,1,317.39,311.7Z"/><path class="cls-4" d="M313.52,320.18c-.19,0-.34-1.9-.34-4.24s.15-4.24.34-4.24.34,1.9.34,4.24S313.71,320.18,313.52,320.18Z"/><path class="cls-4" d="M319.86,334.43a3.87,3.87,0,1,1-3.87-3.87A3.86,3.86,0,0,1,319.86,334.43Z"/><path class="cls-4" d="M316,342.9c-.18,0-.34-1.9-.34-4.24s.16-4.23.34-4.23.35,1.89.35,4.23S316.18,342.9,316,342.9Z"/><path class="cls-4" d="M211.52,381.58a3.87,3.87,0,1,1-3.86-3.87A3.86,3.86,0,0,1,211.52,381.58Z"/><path class="cls-4" d="M207.66,390.05c-.19,0-.35-1.9-.35-4.24s.16-4.23.35-4.23.34,1.89.34,4.23S207.84,390.05,207.66,390.05Z"/><circle class="cls-4" cx="334.59" cy="448.95" r="3.86"/><path class="cls-4" d="M334.59,457.42c-.19,0-.35-1.89-.35-4.23s.16-4.24.35-4.24.34,1.9.34,4.24S334.77,457.42,334.59,457.42Z"/><path class="cls-4" d="M264.62,491.21a3.87,3.87,0,1,1-3.87-3.87A3.86,3.86,0,0,1,264.62,491.21Z"/><path class="cls-4" d="M260.75,499.68c-.18,0-.34-1.9-.34-4.24s.16-4.23.34-4.23.34,1.89.34,4.23S260.94,499.68,260.75,499.68Z"/><path class="cls-4" d="M234.88,479.53a3.87,3.87,0,1,1-3.87-3.86A3.86,3.86,0,0,1,234.88,479.53Z"/><path class="cls-4" d="M231,488c-.18,0-.34-1.89-.34-4.23s.16-4.24.34-4.24.35,1.9.35,4.24S231.2,488,231,488Z"/><path class="cls-4" d="M303.11,471.05a3.87,3.87,0,1,1-3.87-3.86A3.87,3.87,0,0,1,303.11,471.05Z"/><path class="cls-4" d="M299.24,479.53c-.19,0-.34-1.9-.34-4.24s.15-4.24.34-4.24.34,1.9.34,4.24S299.43,479.53,299.24,479.53Z"/><circle class="cls-4" cx="241.07" cy="396.65" r="3.86"/><path class="cls-4" d="M241.07,405.12c-.19,0-.34-1.89-.34-4.23s.15-4.24.34-4.24.34,1.9.34,4.24S241.26,405.12,241.07,405.12Z"/><path class="cls-4" d="M254.67,358.93a3.87,3.87,0,1,1-3.86-3.86A3.86,3.86,0,0,1,254.67,358.93Z"/><path class="cls-4" d="M250.81,367.41c-.19,0-.34-1.9-.34-4.24s.15-4.24.34-4.24.34,1.9.34,4.24S251,367.41,250.81,367.41Z"/><path class="cls-4" d="M161,363.18a3.87,3.87,0,1,1-3.86-3.87A3.86,3.86,0,0,1,161,363.18Z"/><path class="cls-4" d="M157.15,371.65c-.19,0-.34-1.9-.34-4.24s.15-4.23.34-4.23.34,1.89.34,4.23S157.34,371.65,157.15,371.65Z"/><path class="cls-4" d="M339.43,328.2a3.86,3.86,0,1,1-3.86-3.86A3.86,3.86,0,0,1,339.43,328.2Z"/><path class="cls-4" d="M335.57,336.68c-.19,0-.34-1.9-.34-4.24s.15-4.24.34-4.24.34,1.9.34,4.24S335.76,336.68,335.57,336.68Z"/><path class="cls-4" d="M329.07,270.4a3.87,3.87,0,1,1-3.86-3.86A3.86,3.86,0,0,1,329.07,270.4Z"/><path class="cls-4" d="M325.21,278.88c-.19,0-.34-1.9-.34-4.24s.15-4.24.34-4.24.34,1.9.34,4.24S325.39,278.88,325.21,278.88Z"/><circle class="cls-4" cx="246.97" cy="219.32" r="3.86"/><path class="cls-4" d="M247,227.8c-.19,0-.34-1.9-.34-4.24s.15-4.24.34-4.24.34,1.9.34,4.24S247.16,227.8,247,227.8Z"/><path class="cls-4" d="M177,292.21a3.87,3.87,0,1,1-3.86-3.87A3.86,3.86,0,0,1,177,292.21Z"/><path class="cls-4" d="M173.11,300.68c-.19,0-.34-1.9-.34-4.24s.15-4.23.34-4.23.34,1.89.34,4.23S173.3,300.68,173.11,300.68Z"/><path class="cls-4" d="M222.36,191.74a3.87,3.87,0,1,1-3.86-3.86A3.86,3.86,0,0,1,222.36,191.74Z"/><path class="cls-4" d="M218.5,200.22c-.19,0-.34-1.9-.34-4.24s.15-4.24.34-4.24.34,1.9.34,4.24S218.69,200.22,218.5,200.22Z"/><path class="cls-4" d="M301.15,183.27a3.86,3.86,0,1,1-3.86-3.86A3.86,3.86,0,0,1,301.15,183.27Z"/><path class="cls-4" d="M297.29,191.74c-.19,0-.34-1.89-.34-4.23s.15-4.24.34-4.24.34,1.9.34,4.24S297.48,191.74,297.29,191.74Z"/><path class="cls-4" d="M322.93,179.71a3.87,3.87,0,1,1-3.86-3.87A3.86,3.86,0,0,1,322.93,179.71Z"/><path class="cls-4" d="M319.07,188.18c-.19,0-.34-1.89-.34-4.23s.15-4.24.34-4.24.34,1.9.34,4.24S319.26,188.18,319.07,188.18Z"/><path class="cls-4" d="M314.18,151.21a3.87,3.87,0,1,1-3.87-3.87A3.86,3.86,0,0,1,314.18,151.21Z"/><path class="cls-4" d="M310.31,159.68c-.19,0-.34-1.9-.34-4.24s.15-4.23.34-4.23.34,1.89.34,4.23S310.5,159.68,310.31,159.68Z"/><path class="cls-4" d="M192.85,216.87A3.86,3.86,0,1,1,189,213,3.86,3.86,0,0,1,192.85,216.87Z"/><path class="cls-4" d="M189,225.34c-.19,0-.34-1.89-.34-4.23s.15-4.24.34-4.24.34,1.9.34,4.24S189.18,225.34,189,225.34Z"/><path class="cls-4" d="M282.66,180.31a3.87,3.87,0,1,1-3.87-3.86A3.86,3.86,0,0,1,282.66,180.31Z"/><path class="cls-4" d="M278.79,188.79c-.18,0-.34-1.9-.34-4.24s.16-4.24.34-4.24.34,1.9.34,4.24S279,188.79,278.79,188.79Z"/><path class="cls-4" d="M174.16,93.28a3.86,3.86,0,1,1-3.86-3.86A3.86,3.86,0,0,1,174.16,93.28Z"/><path class="cls-4" d="M170.3,101.76c-.19,0-.34-1.9-.34-4.24s.15-4.24.34-4.24.34,1.9.34,4.24S170.49,101.76,170.3,101.76Z"/><path class="cls-4" d="M218.5,114.44a3.87,3.87,0,1,1-3.87-3.86A3.87,3.87,0,0,1,218.5,114.44Z"/><path class="cls-4" d="M214.63,122.92c-.18,0-.34-1.9-.34-4.24s.16-4.24.34-4.24.34,1.9.34,4.24S214.82,122.92,214.63,122.92Z"/><path class="cls-4" d="M148,181.27a3.87,3.87,0,1,1-3.87-3.87A3.86,3.86,0,0,1,148,181.27Z"/><path class="cls-4" d="M144.16,189.74c-.18,0-.34-1.9-.34-4.24s.16-4.23.34-4.23.35,1.89.35,4.23S144.35,189.74,144.16,189.74Z"/><path class="cls-4" d="M151.89,118.31a3.87,3.87,0,1,1-3.86-3.87A3.86,3.86,0,0,1,151.89,118.31Z"/><path class="cls-4" d="M148,126.78c-.19,0-.34-1.89-.34-4.23s.15-4.24.34-4.24.34,1.89.34,4.24S148.22,126.78,148,126.78Z"/><polygon class="cls-6" points="318.18 298.48 350.03 281.59 349.9 312.04 318.18 298.48"/><polygon class="cls-6" points="185.88 406.46 116.08 442.48 116.08 375.27 123.82 371.82 185.88 406.46"/><path class="cls-1" d="M290.11,442.48a4.45,4.45,0,1,1-4.45-4.45A4.45,4.45,0,0,1,290.11,442.48Z"/><polygon class="cls-6" points="330.86 124.59 353.09 131.35 353.09 166.38 330.86 124.59"/><path class="cls-1" d="M353.31,77.81l-.13-38.22A27.57,27.57,0,0,0,326,15.73l-35.06-.17a8.72,8.72,0,0,0-8.55,8.87l0,6.36a8.71,8.71,0,0,1-8.55,8.86l-68.36-.32A8.71,8.71,0,0,1,197,30.39L197,24a8.72,8.72,0,0,0-8.47-8.94L176.18,15l-30.69-.14a27.46,27.46,0,0,0-18.69,7.23c-3.08,5.92-6.44,14.34-4.9,20.81l231.24,75.28Z"/><path class="cls-7" d="M353.31,77.81l-.13-38.22A27.57,27.57,0,0,0,326,15.73l-35.06-.17a8.72,8.72,0,0,0-8.55,8.87l0,6.36a8.71,8.71,0,0,1-8.55,8.86l-68.36-.32A8.71,8.71,0,0,1,197,30.39L197,24a8.72,8.72,0,0,0-8.47-8.94L176.18,15l-30.69-.14a27.46,27.46,0,0,0-18.69,7.23c-3.08,5.92-6.44,14.34-4.9,20.81l231.24,75.28Z"/><path class="cls-3" d="M326,15.73s.32,0,.95,0a19.56,19.56,0,0,1,2.79.23,26,26,0,0,1,10.34,3.62,26.56,26.56,0,0,1,6.27,5.13A27.6,27.6,0,0,1,351.55,33a28.35,28.35,0,0,1,2,11.21q0,6.11,0,13c-.13,36.76-.31,89.95-.55,155.68s-.56,144-.9,230.89q-.06,16.29-.13,33c0,2.78,0,5.57,0,8.36a29.26,29.26,0,0,1-1.09,8.41,27.75,27.75,0,0,1-3.55,7.75,29.91,29.91,0,0,1-5.76,6.34,27.8,27.8,0,0,1-15.93,6.11c-1.46.1-2.9.08-4.34.07l-4.32,0-8.68,0-35.14-.16L201,513.26l-36.89-.17L145.46,513a29.11,29.11,0,0,1-17.92-5,28.2,28.2,0,0,1-10.86-15.12,30.13,30.13,0,0,1-1.11-9.33q0-4.66,0-9.3.08-18.59.15-36.9.17-36.63.31-72.14c.21-47.29.41-92.91.6-136.37s.38-84.75.55-123.4q.14-29,.26-55.93,0-3.36,0-6.69c0-1.11.1-2.23.17-3.34s.29-2.21.58-3.28a28.12,28.12,0,0,1,5.84-11.66,27.92,27.92,0,0,1,22.51-9.86l24,.12,11.57.06,5.67,0a8.79,8.79,0,0,1,5.41,1.53,9.17,9.17,0,0,1,3.35,4.43c.7,1.77.52,3.68.54,5.44,0,.9,0,1.8,0,2.69a19,19,0,0,0,.08,2.63,8.74,8.74,0,0,0,2.05,4.65,8.17,8.17,0,0,0,4.22,2.64,9.37,9.37,0,0,0,2.49.26h2.54l10,.05,36.39.2,16,.09c1.26,0,2.55.07,3.76,0a8.23,8.23,0,0,0,3.39-1.18,8.81,8.81,0,0,0,3.9-5.56,16.33,16.33,0,0,0,.23-3.35c0-1.12,0-2.22,0-3.3a19.2,19.2,0,0,1,.16-3.22,9.46,9.46,0,0,1,1.05-2.94A8.67,8.67,0,0,1,287.86,16c1.81-.78,3.74-.54,5.48-.57l17.9.12,11,.08,3.75.06H311.24l-17.9-.05c-1.76,0-3.64-.2-5.4.56A8.48,8.48,0,0,0,283.66,20a9.19,9.19,0,0,0-1,2.87,19.54,19.54,0,0,0-.15,3.18c0,1.08,0,2.18,0,3.3a15.17,15.17,0,0,1-.23,3.41,9,9,0,0,1-4,5.74,8.46,8.46,0,0,1-3.51,1.22c-1.27.11-2.51,0-3.79,0l-16-.06-36.38-.14-10,0-2.54,0a9.5,9.5,0,0,1-2.59-.26A8.56,8.56,0,0,1,199,36.5a9,9,0,0,1-2.15-4.85,20.32,20.32,0,0,1-.09-2.69c0-.89,0-1.79,0-2.69a14.4,14.4,0,0,0-.51-5.29,8.69,8.69,0,0,0-3.2-4.22,8.35,8.35,0,0,0-5.16-1.45l-5.67,0-11.57,0-24-.1a27.52,27.52,0,0,0-22.13,9.71,27.59,27.59,0,0,0-5.72,11.44c-.29,1.05-.37,2.15-.57,3.22s-.14,2.19-.16,3.29q0,3.33,0,6.7-.11,26.91-.22,55.92c-.15,38.65-.32,79.94-.49,123.4s-.36,89.08-.56,136.37q-.15,35.47-.3,72.14-.07,18.32-.15,36.9c0,3.1,0,6.2,0,9.3a29.9,29.9,0,0,0,1.08,9.14,27.56,27.56,0,0,0,10.6,14.75,28.41,28.41,0,0,0,17.53,4.91l18.63.08,36.89.17,72.12.34,35.14.17,8.68,0,4.33,0c1.44,0,2.88,0,4.29-.07a27.19,27.19,0,0,0,15.56-6,29,29,0,0,0,5.63-6.19,27.33,27.33,0,0,0,3.47-7.57,28.58,28.58,0,0,0,1.07-8.23q0-4.19,0-8.37.07-16.68.14-33c.4-86.9.75-165.17,1.05-230.89s.59-118.92.77-155.69q0-6.89.07-13a28.48,28.48,0,0,0-2-11.13,27.47,27.47,0,0,0-5.16-8.22A26.38,26.38,0,0,0,340,19.73a26.08,26.08,0,0,0-10.28-3.67,20.38,20.38,0,0,0-2.78-.26Z"/><path class="cls-3" d="M407.91,276c19.4.49,39,1,57.76,6s36.88,14.88,48,30.78c12.26,17.5,14.69,39.88,15.92,61.21a683.26,683.26,0,0,1-1.67,106.19c-1.76,17.87-8.09,34.47-24.72,41.28-20,8.18-46.85,0-46.85,0"/><path class="cls-9" d="M459.94,517.14l.73,0,2.16,0,8.3-.06a94,94,0,0,0,13.06-.69c1.26-.2,2.57-.35,3.9-.69l2-.45c.68-.18,1.36-.39,2.05-.6,1.4-.36,2.77-1,4.2-1.47a42.88,42.88,0,0,0,4.19-2.08,30.19,30.19,0,0,0,7.79-6.23,23.89,23.89,0,0,0,5.13-9.43,114.14,114.14,0,0,0,2.94-23.88c.26-8.5.17-17.44.25-26.7s.08-18.86.13-28.69.14-19.42-.18-28.67a196.3,196.3,0,0,0-2.5-26.54c-2.83-16.75-8.7-31.28-16.26-41.68a91.81,91.81,0,0,0-11.58-12.86c-3.73-3.5-7.08-6.35-9.84-8.67s-4.89-4.08-6.36-5.32L468.42,291c-.37-.32-.54-.5-.54-.5l.59.44,1.68,1.35,6.45,5.21c2.78,2.29,6.17,5.12,9.93,8.6a92.28,92.28,0,0,1,11.71,12.86c7.67,10.43,13.61,25,16.49,41.85a194.61,194.61,0,0,1,2.55,26.63c.33,9.27.23,18.87.19,28.7s-.1,19.41-.15,28.68,0,18.2-.29,26.72a113,113,0,0,1-3,24,24.24,24.24,0,0,1-5.28,9.63,30.66,30.66,0,0,1-7.94,6.3,40.72,40.72,0,0,1-4.26,2.08c-1.45.52-2.83,1.11-4.25,1.47-.7.2-1.38.41-2.07.59l-2,.44c-1.33.33-2.66.47-3.92.67a90.12,90.12,0,0,1-13.12.57l-8.3-.06-2.16,0Z"/><path class="cls-9" d="M517.07,421.18c0-.17,3-1.05,6.8-1.22s6.92.4,6.89.57-3.09-.08-6.85.11S517.12,421.38,517.07,421.18Z"/><path class="cls-4" d="M433.25,277h.51l1.47,0c1.3.05,3.23,0,5.69.21a88.2,88.2,0,0,1,20.43,4.36l3.19,1.18,1.64.62,1.63.74,3.37,1.52c1.15.52,2.24,1.18,3.4,1.77a94.36,94.36,0,0,1,13.89,9.08A96,96,0,0,1,501.83,309a70.24,70.24,0,0,1,10.81,16.45c5.83,12.24,8.37,25.06,9.66,36.64a305.47,305.47,0,0,1,1.36,31c0,8.82.06,16,.18,20.89.07,2.44.12,4.35.16,5.68,0,.62,0,1.11,0,1.48a3.8,3.8,0,0,1,0,.5,2.83,2.83,0,0,1-.06-.5c0-.36-.06-.85-.11-1.47-.09-1.3-.19-3.21-.29-5.68-.2-4.93-.3-12.07-.39-20.9s-.24-19.34-1.5-30.92-3.87-24.28-9.66-36.42a69.87,69.87,0,0,0-10.7-16.3A94.94,94.94,0,0,0,488.08,297a93.65,93.65,0,0,0-13.77-9.07c-1.14-.6-2.23-1.26-3.37-1.78l-3.34-1.53-1.62-.75-1.63-.62L461.19,282a90.78,90.78,0,0,0-20.29-4.55c-2.46-.21-4.37-.25-5.67-.35l-1.47-.09A2.24,2.24,0,0,1,433.25,277Z"/><path class="cls-3" d="M421.13,276.94s4.75-12.56,21.69-10.18c0,0,7.55-.42,8.92,3.77,0,0-15.78-3.91-22.5,7Z"/><path class="cls-9" d="M469.4,292.24h-9.92s-1.93-26.23-26-25.22C433.51,267,463.4,257,469.4,292.24Z"/><polygon class="cls-9" points="517.22 437.18 531.44 439.15 530.02 444.21 516.75 443.19 517.22 437.18"/><path class="cls-10" d="M518.08,441.76a12.14,12.14,0,0,1,1.67-2.55l.2-.27.22.27,2,2.41-.45-.06,1.42-1.05,1.47-1.07.27-.2.19.27,1.82,2.57-.36-.06a12,12,0,0,1,2.56-1.52,10.8,10.8,0,0,1-2.25,1.95l-.21.16-.16-.22-1.93-2.48.46.07-1.46,1.08-1.43,1-.27.19-.19-.26-1.88-2.49h.42A11.6,11.6,0,0,1,518.08,441.76Z"/><path class="cls-1" d="M310.48,530.8s-2.76-9-2.2-12.75,5.65-7.24,5.65-7.24L308.4,367.18s-.72-62.82,32.53-82.34l19.84-5,49-2.9c1.58.53,59.1,22.16,67,30.61L451.94,434.21s3,37.42,6,64.32c.61,5.49,4.74,32.66,4.74,32.66Z"/><g class="cls-11"><path d="M457.06,490.07c-.47,3.49-1.79,7.75-5.15,8.83s-7,.77-10.46.15c-12.27-2.18-23.56-7.95-34.64-13.64-20.72-10.64-41.63-21.41-59.51-36.33-2.51-2.09-5.2-5.37-3.66-8.25,1.74-3.28,6.65-2.18,10-.63,35.13,16.2,68.27,33.67,103.4,49.87"/></g><path class="cls-1" d="M333.5,288.75s-21.91,7.31-29,27.61c-7.83,22.43-13,66-13,66l21.65,2.72Z"/><path class="cls-1" d="M476.75,307.55S488.5,323,494.22,341.79s9,73.21,9,73.21l-58.93-.82-3.14-47.89S435.18,286.38,476.75,307.55Z"/><path class="cls-5" d="M299.22,335.93a6.48,6.48,0,0,1,1.62-1.54,8.06,8.06,0,0,1,6.21-1.19c2.85.42,5.62,2.66,9.28,4.06a10.59,10.59,0,0,0,6.07.75c2.16-.47,4-2,6-3.51a15.91,15.91,0,0,1,3.27-2.06,5.2,5.2,0,0,1,4.08-.17,6.91,6.91,0,0,1,3.16,2.82c.81,1.19,1.47,2.47,2.32,3.62a6.47,6.47,0,0,0,3.32,2.58,7.87,7.87,0,0,0,4.38,0,16.71,16.71,0,0,0,4.27-1.84c1.35-.8,2.67-1.78,4.08-2.65a19.77,19.77,0,0,1,4.55-2.21,8.54,8.54,0,0,1,5.22,0,13.51,13.51,0,0,1,4.54,2.77c1.35,1.14,2.61,2.4,4,3.48a10.11,10.11,0,0,0,4.66,2.29,9.8,9.8,0,0,0,5.23-.54c3.41-1.28,6.41-3.6,9.76-5.45a18.57,18.57,0,0,1,5.34-2.12,10.54,10.54,0,0,1,5.68.44c3.57,1.4,6.21,4.1,9.39,5.6a11.41,11.41,0,0,0,2.43.88,10.34,10.34,0,0,0,2.54.16,14.17,14.17,0,0,0,4.88-1.4c3.11-1.4,5.92-3.37,9.12-4.42a9.93,9.93,0,0,1,4.95-.44,9.24,9.24,0,0,1,4.31,2.2c2.4,2,4.29,4.56,7,5.41a8.26,8.26,0,0,0,4.13.12,30.38,30.38,0,0,0,3.94-1.18c2.53-.89,5.17-1.81,7.74-1.22a8.26,8.26,0,0,1,3.33,1.64c.95.74,1.79,1.54,2.62,2.27a13.74,13.74,0,0,0,2.59,1.9,8.59,8.59,0,0,0,2.84.92,11.87,11.87,0,0,0,5.35-.55,16.08,16.08,0,0,0,4.08-2.08,36.1,36.1,0,0,0,4.82-4.17l1.18-1.18a3.36,3.36,0,0,1,.41-.39,2.71,2.71,0,0,1-.36.44l-1.13,1.22a33.73,33.73,0,0,1-4.77,4.3,16.19,16.19,0,0,1-4.13,2.17,12,12,0,0,1-5.5.61,8.74,8.74,0,0,1-3-.93,14.54,14.54,0,0,1-2.68-1.93c-1.69-1.43-3.37-3.28-5.77-3.77s-4.94.34-7.47,1.24a28.84,28.84,0,0,1-4,1.23,8.77,8.77,0,0,1-4.4-.12,10.57,10.57,0,0,1-3.87-2.38c-1.15-1-2.2-2.13-3.39-3.11a8.58,8.58,0,0,0-4-2.06,9.26,9.26,0,0,0-4.64.44c-3.07,1-5.87,3-9,4.41a14.66,14.66,0,0,1-5.1,1.47,10.91,10.91,0,0,1-2.73-.17,12.19,12.19,0,0,1-2.58-.92c-3.31-1.59-6-4.27-9.34-5.57a9.88,9.88,0,0,0-5.31-.42,18.15,18.15,0,0,0-5.14,2.06c-3.29,1.81-6.31,4.15-9.86,5.48a10.23,10.23,0,0,1-5.58.57,10.76,10.76,0,0,1-4.95-2.42c-2.84-2.22-5.11-5.1-8.33-6.16a8,8,0,0,0-4.83,0,18.54,18.54,0,0,0-4.41,2.14c-1.39.85-2.69,1.82-4.1,2.64a17.1,17.1,0,0,1-4.43,1.89,8.44,8.44,0,0,1-4.7,0,7.06,7.06,0,0,1-3.61-2.79c-.88-1.21-1.53-2.5-2.31-3.65a6.4,6.4,0,0,0-2.9-2.64,4.68,4.68,0,0,0-3.69.15,15.94,15.94,0,0,0-3.18,2c-2,1.48-3.9,3.06-6.2,3.55a10.76,10.76,0,0,1-6.3-.82c-3.71-1.46-6.43-3.71-9.19-4.15a8,8,0,0,0-6.08,1A12.25,12.25,0,0,0,299.22,335.93Z"/><path class="cls-5" d="M292.27,371.34a4.2,4.2,0,0,1,.58,0l1.69.18c1.49.09,3.69.71,6.45-.17,1.38-.31,2.95-.58,4.65-.87s3.53-.72,5.55-.95a15.42,15.42,0,0,1,6.48.46c2.22.66,4.38,1.8,6.76,2.6a13.1,13.1,0,0,0,7.71.22c2.67-.63,5.29-1.86,8.13-2.84s6-1.78,9.23-.9,5.73,3.23,8.91,4a7.51,7.51,0,0,0,2.41.17,10.85,10.85,0,0,0,2.41-.58c1.6-.55,3.15-1.36,4.84-1.95a7.68,7.68,0,0,1,5.43-.18,19.94,19.94,0,0,1,4.58,3,11.36,11.36,0,0,0,2.28,1.38,6.6,6.6,0,0,0,2.57.48,14,14,0,0,0,5.21-1.56,30.68,30.68,0,0,1,5.34-2.14,8.76,8.76,0,0,1,3-.21,8.38,8.38,0,0,1,2.85.93,49.83,49.83,0,0,1,4.79,3.29,12.12,12.12,0,0,0,2.44,1.34,5.77,5.77,0,0,0,1.31.36l.66.12.68,0a14.63,14.63,0,0,0,5.35-1.11c1.73-.63,3.43-1.37,5.21-1.9a10.47,10.47,0,0,1,5.52-.4,10.16,10.16,0,0,1,4.65,2.8,36.05,36.05,0,0,0,3.83,3.46,7.23,7.23,0,0,0,4.6,1.31,12.53,12.53,0,0,0,4.61-1.4c1.46-.71,2.84-1.54,4.24-2.31,2.75-1.52,5.78-2.94,8.91-2.58s5.63,2.08,7.86,3.69a43.8,43.8,0,0,0,6.57,4.4,19.14,19.14,0,0,0,6.86,1.87,24.21,24.21,0,0,0,6.36-.49,22.88,22.88,0,0,0,9.15-4.47,20.79,20.79,0,0,0,4.27-4.87c.37-.64.61-1.16.8-1.49a4.33,4.33,0,0,1,.29-.51,3.8,3.8,0,0,1-.23.54c-.17.34-.39.87-.74,1.53a20.26,20.26,0,0,1-4.21,5,23.18,23.18,0,0,1-9.24,4.63,24.15,24.15,0,0,1-6.48.55,19.51,19.51,0,0,1-7-1.86,44,44,0,0,1-6.67-4.42c-2.23-1.58-4.7-3.22-7.61-3.54s-5.83,1-8.56,2.53c-1.39.78-2.77,1.61-4.26,2.34a13.2,13.2,0,0,1-4.84,1.48,7.89,7.89,0,0,1-5-1.41,36.55,36.55,0,0,1-3.92-3.52,9.39,9.39,0,0,0-4.35-2.62,9.69,9.69,0,0,0-5.18.39c-1.73.52-3.41,1.25-5.17,1.89a15.22,15.22,0,0,1-5.59,1.16l-.74,0-.73-.13a7,7,0,0,1-1.42-.4,12.81,12.81,0,0,1-2.57-1.41,51.51,51.51,0,0,0-4.72-3.25,7.53,7.53,0,0,0-2.62-.85,8.17,8.17,0,0,0-2.74.19,30.3,30.3,0,0,0-5.22,2.1,14.61,14.61,0,0,1-5.48,1.61,7.07,7.07,0,0,1-2.84-.54,11.13,11.13,0,0,1-2.42-1.46,19.87,19.87,0,0,0-4.42-3,7.08,7.08,0,0,0-5,.19c-1.63.55-3.18,1.36-4.84,1.94a11.64,11.64,0,0,1-2.56.6,8,8,0,0,1-2.62-.19c-3.39-.86-5.92-3.21-8.92-4s-6.12-.13-8.89.85a84.61,84.61,0,0,1-8.19,2.82,13.5,13.5,0,0,1-8-.28c-2.43-.83-4.57-2-6.74-2.63a14.94,14.94,0,0,0-6.31-.5c-2,.21-3.83.61-5.54.89s-3.26.53-4.65.81c-.7.14-1.35.29-2,.38a7.67,7.67,0,0,1-1.79,0c-1.09-.11-2-.25-2.74-.35l-1.69-.24A3.22,3.22,0,0,1,292.27,371.34Z"/><path class="cls-5" d="M314.08,402.23a1.64,1.64,0,0,1,.39,0l1.14.12c1,.11,2.47.3,4.35.58,3.78.52,9.21,1.64,16,2.2a55.52,55.52,0,0,0,11.09-.2,26.84,26.84,0,0,1,6.28-.05,11.21,11.21,0,0,1,3.19.94,15.68,15.68,0,0,1,2.85,1.86c1.78,1.38,3.47,3,5.65,3.7a6,6,0,0,0,3.35,0,23.92,23.92,0,0,0,3.32-1.36,12.33,12.33,0,0,1,3.6-1.21,5.63,5.63,0,0,1,3.83.83c2.26,1.37,3.74,3.66,6.06,4.64s4.93.38,7.3-.32,4.8-1.66,7.36-1.71a8.41,8.41,0,0,1,3.68.76,13.67,13.67,0,0,1,3,2.05c1.81,1.54,3.41,3.25,5.4,4.16a8.21,8.21,0,0,0,6.2,0c2-.63,3.87-1.61,5.89-2.07a8.59,8.59,0,0,1,5.86.44,4.78,4.78,0,0,1,2,2,17.7,17.7,0,0,1,.92,2.49,5.67,5.67,0,0,0,1.13,2.1,4.51,4.51,0,0,0,1.88,1.21,6.87,6.87,0,0,0,4.14,0,7.37,7.37,0,0,0,3.11-1.92A12.41,12.41,0,0,0,445,421a29.42,29.42,0,0,0,1.85-4c.17-.44.31-.79.41-1.07s.15-.36.17-.35a2.81,2.81,0,0,1-.1.38l-.36,1.08a24.08,24.08,0,0,1-1.74,4.05,12.4,12.4,0,0,1-1.89,2.59,7.74,7.74,0,0,1-3.22,2.05,7.23,7.23,0,0,1-4.4.07,4.9,4.9,0,0,1-2.08-1.31,6.23,6.23,0,0,1-1.25-2.25,17.81,17.81,0,0,0-.9-2.41,4.28,4.28,0,0,0-1.8-1.8,8.19,8.19,0,0,0-5.49-.35c-1.9.44-3.76,1.43-5.82,2.09a12.1,12.1,0,0,1-3.26.65,7.4,7.4,0,0,1-3.39-.67c-2.15-1-3.78-2.74-5.56-4.23a13.1,13.1,0,0,0-2.89-1.95,7.66,7.66,0,0,0-3.39-.69c-2.39,0-4.74,1-7.17,1.69a20.54,20.54,0,0,1-3.8.83,7.76,7.76,0,0,1-4-.54c-2.56-1.11-4-3.44-6.14-4.68a4.93,4.93,0,0,0-3.39-.74,11.92,11.92,0,0,0-3.41,1.14,22.68,22.68,0,0,1-3.42,1.39,6.6,6.6,0,0,1-3.71,0c-2.4-.75-4.11-2.48-5.86-3.84a15.08,15.08,0,0,0-2.73-1.79,10.44,10.44,0,0,0-3-.9,26.17,26.17,0,0,0-6.13,0,57,57,0,0,1-11.19.12c-6.82-.63-12.22-1.83-16-2.43l-4.33-.71-1.13-.18A1.74,1.74,0,0,1,314.08,402.23Z"/><path class="cls-5" d="M312.25,489.58l.38-.15,1.15-.41c1-.35,2.49-.88,4.43-1.51a33.59,33.59,0,0,1,7.23-1.69,10.64,10.64,0,0,1,4.6.76A21.6,21.6,0,0,0,335,488a10.72,10.72,0,0,0,5.38-1.22,30.6,30.6,0,0,1,5.77-2.31,14.2,14.2,0,0,1,6.68.38c2.22.6,4.4,1.47,6.69,2.14a14.52,14.52,0,0,0,7.11.61c2.4-.5,4.65-1.79,7.1-2.76a11.6,11.6,0,0,1,3.94-.93,7.1,7.1,0,0,1,4,1.05c2.39,1.42,4.11,3.75,6.62,4.68a6.67,6.67,0,0,0,3.86.09,22.72,22.72,0,0,0,3.75-1.42,27.53,27.53,0,0,1,3.78-1.5,7.17,7.17,0,0,1,4.08-.08,7.9,7.9,0,0,1,3.33,2.21c.92.92,1.73,1.89,2.67,2.68a7.25,7.25,0,0,0,6.66,1.39c2.32-.45,4.5-1.35,6.72-1.94a14,14,0,0,1,3.39-.51,6.25,6.25,0,0,1,3.26.79,6.72,6.72,0,0,1,2.37,2.21c.6.87,1.07,1.77,1.56,2.62.94,1.71,2.11,3.28,3.81,3.81a6.46,6.46,0,0,0,4.84-.49,11.37,11.37,0,0,0,3.59-2.74,34.23,34.23,0,0,0,3.78-6.29,26,26,0,0,1,2.46-4,9.47,9.47,0,0,1,1.11-1.2s-.37.42-1,1.28a27.65,27.65,0,0,0-2.33,4A33.35,33.35,0,0,1,446.2,497a11.65,11.65,0,0,1-3.68,2.88,6.92,6.92,0,0,1-5.19.56c-1.87-.57-3.15-2.3-4.11-4s-1.9-3.66-3.75-4.6-4.08-.76-6.22-.2-4.35,1.5-6.75,2a9.71,9.71,0,0,1-3.73.14,7.2,7.2,0,0,1-1.85-.57,8.16,8.16,0,0,1-1.62-1.08c-1-.84-1.82-1.83-2.71-2.72a7.4,7.4,0,0,0-3.06-2,6.62,6.62,0,0,0-3.71.1,26.37,26.37,0,0,0-3.68,1.47,23.13,23.13,0,0,1-3.86,1.46,7.29,7.29,0,0,1-4.26-.11c-2.77-1.06-4.48-3.43-6.74-4.74a6.47,6.47,0,0,0-3.64-1,11.18,11.18,0,0,0-3.71.88c-2.4.94-4.67,2.25-7.22,2.78a15.17,15.17,0,0,1-7.42-.65c-2.32-.69-4.49-1.57-6.67-2.16a13.75,13.75,0,0,0-6.4-.41,30.66,30.66,0,0,0-5.68,2.24,11.12,11.12,0,0,1-5.63,1.22,21.94,21.94,0,0,1-5-1.48,10.35,10.35,0,0,0-4.44-.79,35.46,35.46,0,0,0-7.17,1.56l-4.47,1.4-1.17.33A2,2,0,0,1,312.25,489.58Z"/><path class="cls-5" d="M385.83,457.14a5.16,5.16,0,0,1-.75.48,17,17,0,0,1-2.31,1.05,19,19,0,0,1-9.23.95,21.33,21.33,0,0,1-3-.7c-1-.34-2.06-.81-3.11-1.25a7.24,7.24,0,0,0-3.33-.68,6.91,6.91,0,0,0-3.29,1.42c-1,.73-2.06,1.61-3.25,2.34a7.53,7.53,0,0,1-2,.86,4.42,4.42,0,0,1-1.09.16,4.58,4.58,0,0,1-1.11,0c-3-.38-5.38-2.36-8-3.68a7.22,7.22,0,0,0-4-1l-.5.06c-.16,0-.32.11-.48.16a4,4,0,0,0-.91.42,8.41,8.41,0,0,0-1.53,1.34,27.63,27.63,0,0,1-2.88,3.06,4.25,4.25,0,0,1-2,.9,3.68,3.68,0,0,1-2.1-.31,7.77,7.77,0,0,1-2.77-2.75,27.24,27.24,0,0,0-2.08-2.85,7.27,7.27,0,0,0-5.57-2.22,8.4,8.4,0,0,0-4.71,1.9,11.28,11.28,0,0,0-2.72,2.82,6,6,0,0,0-1.06,3.13,2.48,2.48,0,0,1,0-.88,5.77,5.77,0,0,1,.86-2.4,11.43,11.43,0,0,1,2.72-3,8.68,8.68,0,0,1,4.91-2.08,7.71,7.71,0,0,1,6,2.32,25,25,0,0,1,2.16,2.89,7.24,7.24,0,0,0,2.55,2.52,3.16,3.16,0,0,0,3.39-.53,29.12,29.12,0,0,0,2.79-3,8.65,8.65,0,0,1,1.66-1.46,4.38,4.38,0,0,1,1.05-.49c.18-.06.36-.13.55-.18l.58-.08a7.82,7.82,0,0,1,4.42,1.11c2.68,1.37,5,3.28,7.75,3.62a5.77,5.77,0,0,0,3.75-.9c1.13-.68,2.14-1.55,3.22-2.3a7.51,7.51,0,0,1,3.6-1.5,7.69,7.69,0,0,1,3.59.76c1.08.46,2.07.93,3.07,1.27a18.76,18.76,0,0,0,2.94.72,19.4,19.4,0,0,0,9.08-.72C384.76,457.73,385.79,457.07,385.83,457.14Z"/><path class="cls-5" d="M313.53,524.58s.14,0,.4.1l.47.16c.2,0,.43.06.68.1a8.22,8.22,0,0,0,4.39-1.07c1.82-.8,3.86-2.29,6.71-3a7.43,7.43,0,0,1,2.27-.11,7.27,7.27,0,0,1,2.29.76,35,35,0,0,1,4.22,2.95,7.5,7.5,0,0,0,5,1.79c1.9-.15,3.7-1.17,5.63-2a13.6,13.6,0,0,1,3.12-1,9.49,9.49,0,0,1,3.4.07c2.27.42,4.41,1.4,6.66,2a14,14,0,0,0,7.06.11,49.24,49.24,0,0,0,7.16-2.38,33.06,33.06,0,0,1,7.63-2.19,14.41,14.41,0,0,1,8.08,1.28c2.55,1.1,4.87,2.52,7.31,3.5a11.42,11.42,0,0,0,7.48.7c4.89-1.41,8.47-5.37,13.12-6.9a10.77,10.77,0,0,1,7,0,24.58,24.58,0,0,1,5.86,3c1.77,1.17,3.43,2.35,5.12,3.3a18.57,18.57,0,0,0,5.14,2.06,19.17,19.17,0,0,0,9.47-.4,19.44,19.44,0,0,0,6.42-3.29,19.83,19.83,0,0,0,4.19-4.53,2,2,0,0,1-.19.36l-.65,1a17.23,17.23,0,0,1-3.19,3.36,19.65,19.65,0,0,1-6.47,3.45,19.44,19.44,0,0,1-9.68.5,19,19,0,0,1-5.3-2.07c-1.73-1-3.4-2.14-5.17-3.28a24.22,24.22,0,0,0-5.73-2.94,10.22,10.22,0,0,0-6.62.06,28.72,28.72,0,0,0-6.31,3.45,25.18,25.18,0,0,1-6.83,3.5,12,12,0,0,1-7.91-.71c-2.52-1-4.84-2.43-7.33-3.51a13.83,13.83,0,0,0-7.72-1.23,32.71,32.71,0,0,0-7.48,2.15,50.05,50.05,0,0,1-7.26,2.38,14.55,14.55,0,0,1-7.36-.13c-2.32-.65-4.44-1.62-6.61-2a8.85,8.85,0,0,0-3.2-.08,12.52,12.52,0,0,0-3,1c-1.91.83-3.76,1.89-5.82,2a7.93,7.93,0,0,1-5.35-1.92,35.15,35.15,0,0,0-4.13-3,7.32,7.32,0,0,0-2.15-.74,7.19,7.19,0,0,0-2.13.08c-2.75.6-4.83,2.05-6.68,2.83a8.12,8.12,0,0,1-4.51,1c-.27-.05-.5-.08-.7-.13l-.47-.19A2.31,2.31,0,0,1,313.53,524.58Z"/><path class="cls-5" d="M316.77,299.36s.38.47,1.27,1.18a10.56,10.56,0,0,0,4.5,2,26.28,26.28,0,0,0,7.84.15c1.54-.12,3.19-.27,5-.25a15.32,15.32,0,0,1,5.5,1,50.48,50.48,0,0,1,5.43,2.84,18.11,18.11,0,0,0,2.91,1.29,12,12,0,0,0,3.24.54,32.27,32.27,0,0,0,7-.8,25.34,25.34,0,0,1,7.54-.57,18.43,18.43,0,0,1,7.36,3.05c2.28,1.38,4.63,2.88,7.34,3.26a11.19,11.19,0,0,0,4.06-.28,23.72,23.72,0,0,0,4-1.48c2.61-1.18,5.17-2.7,8.12-3.46a11.68,11.68,0,0,1,4.52-.27,12.92,12.92,0,0,1,4.18,1.56c2.55,1.44,4.73,3.31,7.23,4.46a13.37,13.37,0,0,0,7.85,1,49.55,49.55,0,0,0,7.58-2,42.84,42.84,0,0,1,7.34-1.78,20.12,20.12,0,0,1,7.13.45c4.51,1.07,8.34,3,12,4.41a20.14,20.14,0,0,0,10.14,1.61,24.43,24.43,0,0,0,7.59-1.9,14.85,14.85,0,0,0,5.37-3.93,8.07,8.07,0,0,1-1.12,1.34,14,14,0,0,1-4.14,2.83,24.11,24.11,0,0,1-7.66,2,23.12,23.12,0,0,1-5,0,21.18,21.18,0,0,1-5.38-1.5c-3.64-1.37-7.48-3.29-11.89-4.31a19.3,19.3,0,0,0-6.93-.4,42.82,42.82,0,0,0-7.23,1.78,50.67,50.67,0,0,1-7.67,2,14.25,14.25,0,0,1-8.24-1c-2.6-1.21-4.8-3.09-7.28-4.48a12,12,0,0,0-3.95-1.48,11.06,11.06,0,0,0-4.24.26c-2.82.72-5.37,2.22-8,3.42a25.89,25.89,0,0,1-4.07,1.52,11.94,11.94,0,0,1-4.33.28c-2.89-.41-5.31-2-7.58-3.37a17.82,17.82,0,0,0-7.09-3c-5.05-.56-9.78,1.53-14.45,1.3a12.35,12.35,0,0,1-3.39-.58,17.67,17.67,0,0,1-3-1.35,52.19,52.19,0,0,0-5.35-2.86c-3.59-1.43-7.22-1-10.26-.8a25.84,25.84,0,0,1-7.93-.27,10.37,10.37,0,0,1-4.53-2.12A6,6,0,0,1,316.77,299.36Z"/><g class="cls-11"><path d="M415,314.43l18.5,12.79c-5.88,14.58-.44,34.82,4.66,51.38,2,6.44,8.54,13.15,8.22,19.88s5.32,18.19-1.2,19.89c-4.33,1.13-9-.35-12.62-3s-6.25-6.38-8.6-10.18C411,384.18,404.91,344,415,314.43Z"/></g><path class="cls-3" d="M317.66,513.43a2.63,2.63,0,0,1,.7.08l2,.36,7.31,1.4c6.17,1.15,14.72,2.64,24.2,4S370,521.46,376.23,522l7.41.65,2,.2a2.92,2.92,0,0,1,.7.11,2.52,2.52,0,0,1-.7,0l-2-.07c-1.75-.07-4.29-.22-7.43-.44-6.27-.45-14.92-1.29-24.42-2.61s-18-2.89-24.2-4.17c-3.08-.64-5.56-1.19-7.27-1.61l-2-.49A2.59,2.59,0,0,1,317.66,513.43Z"/><path class="cls-3" d="M346.44,510a7.07,7.07,0,0,1,1.09.24c.71.15,1.73.49,3.09.75a65.73,65.73,0,0,0,28.74-.1,62.06,62.06,0,0,0,35.22-22,65.67,65.67,0,0,0,12.71-25.78c.37-1.33.51-2.39.69-3.1a5.41,5.41,0,0,1,.27-1.08,8.15,8.15,0,0,1-.14,1.1c-.13.72-.23,1.79-.56,3.14A59.85,59.85,0,0,1,424,474.37a62.63,62.63,0,0,1-44.49,37.15A64.58,64.58,0,0,1,362.16,513a60.33,60.33,0,0,1-11.6-1.71c-1.36-.3-2.37-.68-3.07-.88A5.52,5.52,0,0,1,346.44,510Z"/><path class="cls-3" d="M358.05,279.77a5.91,5.91,0,0,1,0,1c0,.68,0,1.58,0,2.7a39.26,39.26,0,0,0,1,9.81,17.7,17.7,0,0,0,2.84,6.1,17.32,17.32,0,0,0,5.86,5,29.78,29.78,0,0,0,8.08,2.89,38.1,38.1,0,0,0,9.21.89,33.7,33.7,0,0,0,17-4.81,26.71,26.71,0,0,0,9.77-10.6,23.6,23.6,0,0,0,2.55-9.45c.09-2.33-.16-3.62-.07-3.63a5,5,0,0,1,.17.93,17.73,17.73,0,0,1,.17,2.71,23.2,23.2,0,0,1-2.39,9.66,26.91,26.91,0,0,1-9.86,10.91,34,34,0,0,1-17.33,5,38.34,38.34,0,0,1-9.36-.92,29.87,29.87,0,0,1-8.25-3,17.18,17.18,0,0,1-8.85-11.51,36.93,36.93,0,0,1-.8-9.93c0-1.18.1-2.09.15-2.71A5.58,5.58,0,0,1,358.05,279.77Z"/><path class="cls-9" d="M350.05,282.05s-31.88,1.21-39.44,33c-8.76,36.86-3.48,77.5,7.54,97.85l.52-36.25a166.55,166.55,0,0,1,17.71-72.4Z"/><path class="cls-3" d="M312.59,386.67a6.42,6.42,0,0,1-.09-1.11c0-.79-.05-1.85-.1-3.19s-.08-3.08,0-5.05,0-4.21.23-6.68c.07-1.24.15-2.53.23-3.88s.27-2.75.4-4.2c.24-2.9.72-6,1.17-9.23A175.8,175.8,0,0,1,326,312.38c1.31-3,2.52-5.88,3.83-8.48.64-1.31,1.23-2.59,1.86-3.79l1.82-3.43c1.14-2.21,2.32-4.11,3.31-5.82s1.88-3.13,2.65-4.29l1.75-2.66a7.37,7.37,0,0,1,.65-.91,6,6,0,0,1-.53,1l-1.65,2.73c-.73,1.18-1.6,2.62-2.54,4.35s-2.11,3.63-3.21,5.84l-1.78,3.45c-.62,1.2-1.19,2.48-1.82,3.79-1.28,2.61-2.47,5.48-3.76,8.48A183.12,183.12,0,0,0,315,353.43c-.47,3.23-1,6.3-1.23,9.19-.14,1.45-.33,2.84-.43,4.18s-.19,2.64-.28,3.87c-.22,2.46-.24,4.7-.32,6.66s-.11,3.66-.1,5,0,2.39,0,3.18A7.52,7.52,0,0,1,312.59,386.67Z"/><path class="cls-3" d="M327.17,290.11a5.08,5.08,0,0,1-.39.86l-1.21,2.38c-1.09,2-2.56,5.07-4.27,8.85-.82,1.9-1.78,4-2.64,6.25-.43,1.13-.92,2.3-1.36,3.52s-.87,2.49-1.32,3.78a146.24,146.24,0,0,0-4.61,17.2,165.33,165.33,0,0,0-2.95,32.21c0,4.15.11,7.51.22,9.83,0,1.1.08,2,.1,2.67a6.25,6.25,0,0,1,0,.94,4.12,4.12,0,0,1-.13-.93c-.05-.68-.13-1.56-.22-2.67-.2-2.31-.36-5.68-.44-9.83a153.91,153.91,0,0,1,2.76-32.35,142.37,142.37,0,0,1,4.68-17.27l1.36-3.79c.45-1.22.95-2.39,1.4-3.52.88-2.29,1.87-4.35,2.72-6.24,1.78-3.76,3.31-6.76,4.48-8.77l1.32-2.33A4.58,4.58,0,0,1,327.17,290.11Z"/><path class="cls-9" d="M453,294.32s-21.41,58.27-5.63,107.45l.86,17.38s-12.07-.82-21.2-18.07S415,366,411.86,340.38s11-58.33,11-58.33S447.75,287.51,453,294.32Z"/><path class="cls-3" d="M448.8,417.73a1.41,1.41,0,0,1-.31-.15l-.89-.5a18,18,0,0,1-3.07-2.44c-2.46-2.37-5.11-6.72-6.78-12.58a76.5,76.5,0,0,1-2.1-9.71c-.61-3.52-1.11-7.3-1.56-11.29A201.44,201.44,0,0,1,435.23,329a157.17,157.17,0,0,1,4.46-20.84,63.14,63.14,0,0,1,5.49-13.28c.84-1.47,1.56-2.58,2.08-3.31l.6-.82a1.54,1.54,0,0,1,.22-.27,1.19,1.19,0,0,1-.17.31l-.54.86c-.48.75-1.16,1.87-2,3.36a66.92,66.92,0,0,0-5.26,13.28,165.54,165.54,0,0,0-4.3,20.8A206.91,206.91,0,0,0,434.72,381c.43,4,.9,7.75,1.49,11.26a79.3,79.3,0,0,0,2,9.67c1.6,5.83,4.15,10.14,6.51,12.54A24.22,24.22,0,0,0,448.8,417.73Z"/><path class="cls-3" d="M448,417.14a1.7,1.7,0,0,1-.35-.12l-1-.43a22.46,22.46,0,0,1-3.6-2.18c-3-2.17-6.53-6.24-9.75-11.94a127,127,0,0,1-9.38-20.91,132.45,132.45,0,0,1-6.18-27.36,135.15,135.15,0,0,1-.35-28.05,129,129,0,0,1,4.14-22.54c.94-3.13,1.72-6,2.67-8.4s1.61-4.55,2.4-6.2l1.71-3.84.46-1c.1-.22.16-.33.18-.32a1.7,1.7,0,0,1-.12.35l-.4,1-1.58,3.88c-.75,1.66-1.42,3.79-2.29,6.23s-1.66,5.27-2.56,8.39a132.73,132.73,0,0,0-4,22.48,137.5,137.5,0,0,0,.4,27.91,133.61,133.61,0,0,0,6.1,27.24,129.43,129.43,0,0,0,9.2,20.87c3.15,5.7,6.61,9.76,9.49,12a25.92,25.92,0,0,0,3.5,2.27l1,.48A1.11,1.11,0,0,1,448,417.14Z"/><polygon class="cls-3" points="437.86 316.38 451.74 320.04 449.73 324.89 436.67 322.28 437.86 316.38"/><path class="cls-10" d="M438.17,321a11.76,11.76,0,0,1,1.95-2.34l.23-.24.19.29,1.68,2.64-.44-.12,1.54-.88,1.58-.88.29-.16.16.29,1.51,2.76-.36-.1a11.75,11.75,0,0,1,2.73-1.2,11,11,0,0,1-2.48,1.67l-.22.13-.14-.23-1.62-2.7.46.12-1.58.9-1.55.86-.28.16-.16-.28-1.58-2.7.42.05A11.77,11.77,0,0,1,438.17,321Z"/><polygon class="cls-9" points="324.12 399.62 309 371.74 263.03 371.74 261.57 374.5 300.49 439.21 344.55 441.33 324.12 399.62"/><path class="cls-12" d="M499.43,415v48.73a29.63,29.63,0,0,1-10.89,22.95h0a29.64,29.64,0,0,1-29.91,4.48l-107.3-47.55,10.51-35.79,86.33,28.45-.1-22.19Z"/><polygon class="cls-3" points="322.66 402.39 307.55 374.5 261.57 374.5 299.03 441.98 343.09 444.1 322.66 402.39"/><path class="cls-12" d="M366.06,411.65l-7.27-9a25.24,25.24,0,0,0-19.64-9.4H332.8l-4.34,4.88s-31.09,1.35-32.24,5.19l0,1.23v.73l26.59,1.79s-22.62-.07-24,0-6.31-.38-6.21,2.27c.08,2.18,2.66,3.9,6.57,4.48,1.61.23,21.21,1.94,21.21,1.94l-21.57-.21c-2.42,0-2.11,3.87-.68,4.35,1.14.39,28.77,8.45,28.77,8.45s-4.65,3.12-8.44,2.85-10.3-5.15-11.65-2.85-1.08,3.66-.27,4.2,9.75,5.15,12.73,6,27.31,4.66,27.31,4.66l8.78,1.42Z"/><path class="cls-12" d="M268,385.38s-4.81,1.67-2.37,7.85a53,53,0,0,0,9.76,15.45,5.66,5.66,0,0,0,1.92,5.53s-3.41.85-1.28,6.6a6.48,6.48,0,0,0,4,8.52s-1.7,4.89,4.47,7.23,12.14-1.7,12.14-1.7Z"/><path class="cls-12" d="M277.75,408.21c4.37,1.18,9.17,2.12,13.21,3.65,1.33.51,2.65.53,3.53,1.65a3,3,0,0,1,.08,3.9c-.89.88-2.31.86-3.56.71-4.66-.56-9.12-2.16-13.54-3.75"/><path class="cls-12" d="M279.49,415.5c4.37,1.18,9.17,2.12,13.22,3.66,1.33.5,2.64.53,3.53,1.64a3,3,0,0,1,.07,3.9c-.89.88-2.31.87-3.55.72-4.66-.57-9.13-2.17-13.55-3.76"/><path class="cls-12" d="M282,423c4.37,1.18,9.17,2.12,13.21,3.65,1.33.5,2.65.53,3.53,1.65a3,3,0,0,1,.08,3.89c-.89.89-2.31.87-3.56.72-4.66-.56-9.13-2.16-13.55-3.75"/><path class="cls-13" d="M277.73,414.52c.07-.18,3.16.9,7,2s7.06,1.76,7,2-3.3-.2-7.22-1.3S277.66,414.69,277.73,414.52Z"/><path class="cls-13" d="M276.92,421c.06-.19,3.6,1,8,2.27s8,2.21,8,2.41-3.72-.45-8.15-1.76S276.85,421.13,276.92,421Z"/><path class="cls-13" d="M279.78,429.23c.05-.18,3.41.5,7.51,1.53s7.39,2,7.35,2.18-3.41-.5-7.51-1.52S279.74,429.41,279.78,429.23Z"/><path class="cls-13" d="M274.12,407.32c.06-.19,3.94,1.12,8.8,2.37s8.89,2,8.86,2.2a9.58,9.58,0,0,1-2.68-.23,61.38,61.38,0,0,1-6.35-1.31,60.15,60.15,0,0,1-6.18-1.93A9.52,9.52,0,0,1,274.12,407.32Z"/><path class="cls-13" d="M317.88,398.48c0-.19,4.88-.37,10.91-.4s10.91.1,10.91.29-4.88.36-10.91.4S317.88,398.67,317.88,398.48Z"/><path class="cls-6" d="M284.91,386.21a2.31,2.31,0,1,0-.36-3.25A2.31,2.31,0,0,0,284.91,386.21Z"/><path class="cls-13" d="M442.53,435a2.94,2.94,0,0,1,1.06.11,21.6,21.6,0,0,1,2.82.72A32.24,32.24,0,0,1,462,446.63a20.74,20.74,0,0,1,1.66,2.38,3.21,3.21,0,0,1,.48.95c-.1.06-.93-1.19-2.51-3a38,38,0,0,0-7-6.3,37.27,37.27,0,0,0-8.35-4.33C444,435.46,442.51,435.12,442.53,435Z"/><path class="cls-12" d="M384,305.9h0a26.27,26.27,0,0,1-24.15-27.5c.5-9.95,1-18.92,1-18.92s-21.34-3.32-21.6-24.66,3.43-70.32,3.43-70.32h0a74.16,74.16,0,0,1,74.51,9.36l3.16,2.44-8.08,105.42A26.27,26.27,0,0,1,384,305.9Z"/><path class="cls-13" d="M360.82,259.17s13.49,1.09,27.82-7.91c0,0-6.58,15.36-27.87,13.44Z"/><path class="cls-3" d="M348,197.94A3,3,0,0,0,350.9,201a2.92,2.92,0,0,0,3.14-2.75,3,3,0,0,0-2.94-3.07A2.91,2.91,0,0,0,348,197.94Z"/><path class="cls-3" d="M346.73,194.51c.38.4,2.69-1.31,6-1.3s5.69,1.65,6,1.24c.18-.17-.21-.89-1.26-1.65a8.34,8.34,0,0,0-4.83-1.49,8,8,0,0,0-4.75,1.53C346.89,193.61,346.54,194.33,346.73,194.51Z"/><path class="cls-3" d="M378.87,198.71a3.06,3.06,0,0,0,2.94,3.07A2.91,2.91,0,0,0,385,199,3,3,0,0,0,382,196,2.92,2.92,0,0,0,378.87,198.71Z"/><path class="cls-3" d="M379,195.12c.38.4,2.69-1.31,6-1.3s5.68,1.65,6,1.25c.17-.18-.21-.9-1.26-1.66a8.34,8.34,0,0,0-4.83-1.49,8,8,0,0,0-4.75,1.53C379.12,194.23,378.77,194.94,379,195.12Z"/><path class="cls-3" d="M367.06,219.44c0-.19-2-.54-5.33-1-.83-.09-1.63-.26-1.77-.83a4.37,4.37,0,0,1,.56-2.48l2.48-6.38c3.44-9.07,5.93-16.54,5.56-16.67s-3.45,7.11-6.89,16.19c-.83,2.24-1.62,4.37-2.37,6.41a4.88,4.88,0,0,0-.44,3.29,2.11,2.11,0,0,0,1.38,1.22,6.18,6.18,0,0,0,1.42.2C365,219.61,367.05,219.62,367.06,219.44Z"/><path class="cls-3" d="M376.71,221.7c-.54,0-.54,3.53-3.59,6.06s-6.83,2.13-6.86,2.63c-.05.22.84.69,2.45.73a8.82,8.82,0,0,0,5.72-2,7.72,7.72,0,0,0,2.78-5.08C377.35,222.57,377,221.68,376.71,221.7Z"/><path class="cls-3" d="M378.11,182.27c.32.89,3.6.47,7.44.94s7,1.51,7.47.71c.23-.38-.31-1.22-1.56-2.09a13.1,13.1,0,0,0-11.36-1.25C378.68,181.15,378,181.85,378.11,182.27Z"/><path class="cls-3" d="M347.94,185c.57.75,2.83,0,5.55-.06s5,.5,5.54-.28c.23-.38-.13-1.13-1.13-1.83a7.69,7.69,0,0,0-4.52-1.22,7.61,7.61,0,0,0-4.42,1.5C348,183.89,347.68,184.66,347.94,185Z"/><path class="cls-12" d="M417.73,198.4c.36-.16,14.66-4.34,14.19,10.25s-15,11.11-15,10.69S417.73,198.4,417.73,198.4Z"/><path class="cls-13" d="M421.53,214c.07,0,.25.19.67.4a2.58,2.58,0,0,0,1.9.1c1.56-.52,2.94-2.92,3.09-5.55a8.47,8.47,0,0,0-.59-3.66,3,3,0,0,0-1.85-2,1.31,1.31,0,0,0-1.53.65c-.2.4-.12.69-.2.72s-.3-.26-.17-.86a1.58,1.58,0,0,1,.61-.89,1.85,1.85,0,0,1,1.41-.33,3.55,3.55,0,0,1,2.58,2.35,8.63,8.63,0,0,1,.76,4.09c-.19,2.94-1.78,5.64-3.91,6.18a2.69,2.69,0,0,1-2.31-.46C421.55,214.31,421.48,214,421.53,214Z"/><path class="cls-3" d="M334.53,146.07a22.55,22.55,0,0,1,35-6.74,22.09,22.09,0,0,1,36.29-4.71c4.09,4.63,6.21,10.93,11,14.83,4.15,3.37,9.77,4.5,13.94,7.84a16.1,16.1,0,0,1-5.75,28.07c4.58,8.26.29,20.09-8.51,23.5l-2.13-.88a30.39,30.39,0,0,1-4.42-33.5,6.44,6.44,0,0,1-.76,0,17.06,17.06,0,0,1-22.2-5.08,18.92,18.92,0,0,1-20.33.86,7.92,7.92,0,0,0-3.06-1.39,7.24,7.24,0,0,0-3.82,1.14,17.9,17.9,0,0,1-10.33,2.08,10,10,0,0,1-7.75-5.54,2,2,0,0,0-.24,0c-4.12-.75-7.41-4.26-8.55-8.28A17,17,0,0,1,334.53,146.07Z"/></g></g></svg>