<svg xmlns="http://www.w3.org/2000/svg" viewBox="0 0 484.21 479.99"><defs><style>.cls-1{fill:#23b574;}.cls-2,.cls-7{fill:#fff;}.cls-3{fill:#1a2e35;}.cls-4{fill:#e1e1e1;}.cls-5{fill:#fafafa;}.cls-6{fill:#ececec;}.cls-7{opacity:0.7;}.cls-8{fill:#f5f5f5;}.cls-9{fill:#375a64;}.cls-10{fill:#e8505b;}.cls-11{opacity:0.3;}.cls-12{fill:#ffbe9d;}.cls-13{fill:#eb996e;}</style></defs><title>Asset 1</title><g id="Layer_2" data-name="Layer 2"><g id="Layer_2-2" data-name="Layer 2"><path class="cls-1" d="M115.25,296.21c18.81-19,18.61-47.85,13.18-72.82-.91-4.17-1.25-8.68-3.92-12s-7.78-5-11.21-2.53c-2.85,2-3.55,5.9-4.75,9.22a24.92,24.92,0,0,1-8.12,11.19c-2.42,1.87-5.57,3.32-8.48,2.35-4-1.34-5.32-6.26-6-10.44q-2.06-11.69-4.1-23.36c-.74-4.17-1.5-8.44-3.52-12.16s-5.56-6.88-9.73-7.27-8.66,2.79-8.76,7c0,1.76.63,3.47.83,5.22s-.26,3.82-1.82,4.6-3.46-.09-4.93-1.08c-5.07-3.43-9-8.33-12.7-13.23S33.8,171,29.06,167.11s-10.82-6.54-16.86-5.79S.47,166.92,0,173.06s4.08,11.5,8.68,15.58a94.49,94.49,0,0,0,22.76,15c1.48.7,3.09,1.45,3.88,2.9,1.41,2.62-.72,5.86-3.3,7.28-2.92,1.6-6.36,1.89-9.54,2.87s-6.45,3.05-7.12,6.35c-.93,4.57,3.45,8.4,7.49,10.68A80.86,80.86,0,0,0,49,243c3.28.57,6.69,1,9.55,2.67s5,5.18,4.09,8.4-4.63,4.85-7.95,4.84-6.52-1.23-9.8-1.83c-6.13-1.12-13.46.62-16.23,6.25-1.82,3.7-1.21,8.27.72,11.93s5,6.56,8.21,9.16c11.15,9.11,24.5,15.65,38.64,17.84s26.7,1.19,39-6.05"/><path class="cls-2" d="M119,314.78a186.21,186.21,0,0,0-13.08-33.15,378.91,378.91,0,0,0-22.18-37.55l-6.32-9.54c-2.08-3.13-4.14-6.23-6.35-9.14a186.55,186.55,0,0,0-13.63-16c-4.58-4.88-9.11-9.34-13.37-13.48s-8.33-7.91-12.17-11.2A149.94,149.94,0,0,0,12.6,170.6C10.2,169.11,8.31,168,7,167.3l-1.48-.81a2.34,2.34,0,0,0-.51-.25,2.83,2.83,0,0,0,.47.32l1.44.88c1.27.76,3.14,1.9,5.51,3.42a159.69,159.69,0,0,1,19.07,14.3c3.81,3.3,7.84,7.09,12.08,11.24s8.75,8.63,13.3,13.5a193.74,193.74,0,0,1,13.55,16c2.19,2.9,4.23,6,6.31,9.11l6.31,9.54A390.09,390.09,0,0,1,105.25,282a189.27,189.27,0,0,1,13.19,33"/><path class="cls-2" d="M70.82,225.41a8.77,8.77,0,0,0,.08-1.86c0-1.19,0-2.92-.12-5.05-.16-4.26-.59-10.14-1.09-16.62s-.85-12.35-1-16.6c-.06-2.12-.09-3.85-.09-5a8.48,8.48,0,0,0-.1-1.85,9.26,9.26,0,0,0-.21,1.84c-.09,1.19-.14,2.92-.15,5.06,0,4.26.22,10.16.72,16.65s1,12.17,1.32,16.59c.15,2,.27,3.68.37,5A8.89,8.89,0,0,0,70.82,225.41Z"/><path class="cls-2" d="M15.35,225.15a10.5,10.5,0,0,0,2.18-.13c1.4-.13,3.42-.32,5.93-.49,5-.36,11.95-.62,19.62-.58s14.61.41,19.62.81c2.51.18,4.53.38,5.93.52a12.75,12.75,0,0,0,2.19.13,10.85,10.85,0,0,0-2.15-.44c-1.39-.22-3.42-.51-5.93-.76-5-.55-12-1-19.66-1.05a193.67,193.67,0,0,0-19.67.82c-2.51.23-4.53.51-5.92.74A12.28,12.28,0,0,0,15.35,225.15Z"/><path class="cls-2" d="M105.05,280.77a3.65,3.65,0,0,0,.25-.73c.15-.57.34-1.26.56-2.1.48-1.84,1.11-4.51,1.84-7.81,1.47-6.62,3.21-15.83,5-26s3.44-19.39,4.76-26c.66-3.23,1.2-5.89,1.6-7.86.17-.86.31-1.56.42-2.14a3.26,3.26,0,0,0,.1-.76,2.6,2.6,0,0,0-.25.72c-.15.57-.34,1.26-.56,2.11-.49,1.83-1.11,4.5-1.85,7.81-1.47,6.62-3.21,15.82-5,26s-3.44,19.39-4.77,26c-.65,3.23-1.19,5.88-1.59,7.86-.17.85-.31,1.56-.43,2.14A2.86,2.86,0,0,0,105.05,280.77Z"/><path class="cls-2" d="M29.57,270.78a3.49,3.49,0,0,0,.76.16l2.2.32,8.09,1.08c6.82.92,16.24,2.29,26.64,3.82s19.83,2.82,26.68,3.6c3.43.39,6.2.67,8.12.83l2.21.17a3.56,3.56,0,0,0,.78,0,2.59,2.59,0,0,0-.76-.17l-2.2-.31L94,279.2c-6.83-.91-16.24-2.29-26.65-3.82s-19.83-2.82-26.68-3.6c-3.42-.38-6.2-.67-8.12-.83l-2.21-.17A2.62,2.62,0,0,0,29.57,270.78Z"/><path class="cls-1" d="M303.56,57.5a13.22,13.22,0,0,0,4.53-12.43,17.53,17.53,0,0,0-7.54-11.23c-1.76-1.21-3.95-2.17-6-1.56a5.63,5.63,0,0,0-3.65,4.39,11.35,11.35,0,0,0,.69,5.89c2.24,6.49,5.61,12.35,12,14.94"/><path class="cls-1" d="M309.56,68.58a30.79,30.79,0,0,1,27.24-7.13c2.42.56,5.14,1.84,5.54,4.29s-1.79,4.54-3.95,5.79a26.33,26.33,0,0,1-29.12-2.34"/><path class="cls-1" d="M344.3,17.28a15.45,15.45,0,0,0-11.91,2,27.1,27.1,0,0,0-8.52,8.91c-4.29,6.77-5.81,15.88-6,23.89,8.9-.36,16.51-7.35,20.14-11.14,5.75-6,12.49-20.31,6.29-23.71"/><path class="cls-3" d="M296.1,80.68a32.58,32.58,0,0,0,2.22-3.35,56.64,56.64,0,0,0,5-14.29A28.32,28.32,0,0,0,302.22,48a18.42,18.42,0,0,0-2.15-4.09A5.33,5.33,0,0,0,299,42.6c-.16.1,1.42,2,2.65,5.58a29.8,29.8,0,0,1,.83,14.7,65.8,65.8,0,0,1-4.71,14.18"/><path class="cls-3" d="M296,80.79l4.63-6c3.9-5,9.3-12,15.37-19.64s11.66-14.44,15.72-19.37c1.94-2.38,3.56-4.35,4.79-5.85a16.05,16.05,0,0,0,1.67-2.22,17.72,17.72,0,0,0-1.94,2c-1.2,1.32-2.92,3.25-5,5.67-4.18,4.83-9.85,11.59-15.93,19.22s-11.41,14.66-15.18,19.82c-1.89,2.58-3.39,4.68-4.41,6.15"/><path class="cls-3" d="M331.24,66.71a5.77,5.77,0,0,0-1.54-.47,13.09,13.09,0,0,0-1.86-.36,21.18,21.18,0,0,0-2.5-.26,32.52,32.52,0,0,0-6.54.24,37.64,37.64,0,0,0-7.76,2A37.13,37.13,0,0,0,304,71.64a32.4,32.4,0,0,0-5,4.23,21.59,21.59,0,0,0-1.66,1.89,12.26,12.26,0,0,0-1.13,1.52c-.58.86-.5,1.27-.45,1.3a52.92,52.92,0,0,1,3.69-4.26,36.36,36.36,0,0,1,5-4,36.59,36.59,0,0,1,14.51-5.64,36.59,36.59,0,0,1,6.38-.43C329,66.34,331.2,66.88,331.24,66.71Z"/><path class="cls-3" d="M289.35,479.84l-158.44-.73c-19.06-.09-34.44-16-34.35-35.61L98.28,35.32C98.37,15.73,113.89-.09,133,0L291.41.73c19,.09,34.43,16,34.35,35.61L324,444.52C323.94,464.11,308.42,479.93,289.35,479.84Z"/><path class="cls-4" d="M313.19,372.87a3.5,3.5,0,1,1-3.49-3.49A3.49,3.49,0,0,1,313.19,372.87Z"/><path class="cls-4" d="M309.7,380.53c-.17,0-.31-1.72-.31-3.83s.14-3.83.31-3.83.3,1.71.3,3.83S309.87,380.53,309.7,380.53Z"/><path class="cls-5" d="M294.57,14.21l-31.68-.15a7.88,7.88,0,0,0-7.73,8l0,5.75a7.87,7.87,0,0,1-7.72,8l-61.77-.29A7.87,7.87,0,0,1,178,27.46l0-5.74a7.89,7.89,0,0,0-7.66-8.08l-11.15-.06-27.73-.12a24.93,24.93,0,0,0-25,24.82L104.73,438.2a24.93,24.93,0,0,0,24.82,25l163.1.76a25,25,0,0,0,25.05-24.83l1.69-399.92A24.93,24.93,0,0,0,294.57,14.21Z"/><path class="cls-6" d="M115.56,329.8c1.39-1.05,69.61-31.1,69.61-31.1L105.49,259l-.27,64Z"/><polygon class="cls-1" points="119.72 257.72 177.84 228.18 115.39 193.55 105.75 195.97 105.52 252 119.72 257.72"/><polygon class="cls-7" points="119.72 257.72 177.84 228.18 115.39 193.55 105.75 195.97 105.52 252 119.72 257.72"/><polygon class="cls-6" points="107.86 189.53 287.02 105.85 109.51 47.85 107.86 189.53"/><polygon class="cls-6" points="105.77 407.45 187.64 365.43 309.51 437.14 280.48 462.59 176.48 462.59 105.77 419.37 105.77 407.45"/><polygon class="cls-6" points="203.76 360.89 305 420.92 316.29 419.64 316.29 361.91 260.81 332.55 203.76 360.89"/><polygon class="cls-6" points="220.4 303.57 315.86 357.27 315.86 287.07 281.32 272.27 220.4 303.57"/><polygon class="cls-6" points="118.45 333.16 174.44 363.88 242.4 328.68 188.41 301.22 118.45 333.16"/><polygon class="cls-6" points="202.5 227.8 281.83 267.11 318.61 248.31 318.86 221.97 265.26 195.97 202.5 227.8"/><polygon class="cls-6" points="121.38 262.08 200.71 301.39 237.49 282.6 237.73 256.26 184.14 230.25 121.38 262.08"/><polygon class="cls-6" points="132.37 191.43 197.02 223.81 257.3 191.43 194.84 162.93 132.37 191.43"/><path class="cls-1" d="M257.3,398.3a9,9,0,0,1-1.16-.59l-3.35-1.88L240,388.41l-47.54-27.87-1-.58,1-.53,62.35-31.7,0,1.43-46.56-24.81-1.47-.79,1.48-.77,64.68-34v1.64l-7.72-3.9-144.86-73.5-1.37-.69,1.38-.66,76.88-36.66,21.33-10,5.62-2.59,1.45-.63a1.68,1.68,0,0,1,.51-.18,1.93,1.93,0,0,1-.46.28l-1.4.74-5.52,2.78-21.16,10.42L121,193.09v-1.35l145,73.19,7.71,3.9,1.61.81-1.59.84-64.72,33.87v-1.56l46.49,24.95,1.37.73-1.39.7L193,360.56l0-1.1,47.25,28.36,12.66,7.7,3.26,2A6.12,6.12,0,0,1,257.3,398.3Z"/><path class="cls-1" d="M243.4,103.61c0-11.81-12.41-19.29-25.06-13.37a14.33,14.33,0,0,0-6.65,6.38c-3.19,6.17-1.78,13.21,1.1,19l9.85,25a4.24,4.24,0,0,0,7.9,0l9.66-25.08C243.54,107.87,243.4,103.61,243.4,103.61Zm-11.89,10.28c-8.5,4.94-17.12-4.2-12.46-13.22a7.09,7.09,0,0,1,2.7-2.86c8.51-5,17.13,4.19,12.46,13.21A7.12,7.12,0,0,1,231.51,113.89Z"/><polygon class="cls-8" points="224.51 232.79 224.22 218.84 260.57 236.45 260.57 250.93 224.51 232.79"/><polygon class="cls-4" points="260.57 236.45 305.72 214.01 305.72 229.63 260.57 250.93 260.57 236.45"/><polygon class="cls-8" points="224.22 218.84 268.52 196.69 305.72 214.01 260.57 236.45 224.22 218.84"/><polygon class="cls-5" points="228.97 224.87 228.97 231.63 232.52 233.23 232.52 226.77 228.97 224.87"/><polygon class="cls-5" points="234.65 227.37 234.65 234.13 238.21 235.74 238.21 229.28 234.65 227.37"/><polygon class="cls-4" points="110.15 144.82 110.15 126.67 153.18 147.51 153.18 164.65 110.15 144.82"/><polygon class="cls-8" points="153.18 147.51 206.62 120.95 206.62 139.44 153.18 164.65 153.18 147.51"/><polygon class="cls-5" points="110.15 126.67 162.59 100.45 206.62 120.95 153.18 147.51 110.15 126.67"/><polygon class="cls-5" points="115.77 133.8 115.77 141.8 119.98 143.7 119.98 136.05 115.77 133.8"/><polygon class="cls-5" points="122.5 136.76 122.5 144.77 126.7 146.67 126.7 139.02 122.5 136.76"/><path class="cls-4" d="M239.84,296.47v14.3l15.33,7.57V303.57Z"/><polygon class="cls-4" points="274.77 294.2 255.18 303.57 255.18 318.34 274.77 307.4 274.77 294.2"/><polygon class="cls-8" points="239.84 296.47 259.26 287.07 274.77 294.2 255.18 303.57 239.84 296.47"/><polygon class="cls-5" points="245.29 306.74 245.29 313.5 248.84 315.1 248.84 308.64 245.29 306.74"/><path class="cls-4" d="M116,289.08v14.3l15.34,7.56V296.17Z"/><polygon class="cls-4" points="150.91 286.8 131.32 296.18 131.32 310.94 150.91 300.01 150.91 286.8"/><polygon class="cls-8" points="115.98 289.08 135.4 279.67 150.91 286.8 131.32 296.18 115.98 289.08"/><polygon class="cls-5" points="121.43 299.34 121.43 306.1 124.98 307.71 124.98 301.24 121.43 299.34"/><path class="cls-8" d="M179.55,194.71V209l15.34,7.56V201.8Z"/><polygon class="cls-4" points="214.48 192.43 194.89 201.81 194.89 216.57 214.48 205.64 214.48 192.43"/><polygon class="cls-8" points="179.55 194.71 198.97 185.3 214.48 192.43 194.89 201.81 179.55 194.71"/><polygon class="cls-4" points="185 204.97 185 211.73 188.55 213.34 188.55 206.87 185 204.97"/><path class="cls-4" d="M162.51,317.24v14.3l15.33,7.56V324.34Z"/><polygon class="cls-6" points="197.44 314.97 177.84 324.34 177.84 339.1 197.44 328.17 197.44 314.97"/><polygon class="cls-8" points="162.51 317.24 181.93 307.84 197.44 314.97 177.84 324.34 162.51 317.24"/><polygon class="cls-5" points="167.96 327.5 167.96 334.26 171.51 335.87 171.51 329.4 167.96 327.5"/><path class="cls-8" d="M225.81,351.78v17.94l32.32,19V370.23Z"/><polygon class="cls-4" points="282.69 356.99 258.13 370.23 258.13 388.74 282.69 375.03 282.69 356.99"/><polygon class="cls-5" points="225.81 351.78 250.16 339.99 282.69 356.99 258.13 370.23 225.81 351.78"/><polygon class="cls-5" points="238.01 368.36 238.01 376.84 242.47 379.52 242.47 371.13 238.01 368.36"/><path class="cls-4" d="M148.08,388.69v17.93l32.32,19V407.14Z"/><polygon class="cls-5" points="218.95 386.24 180.4 407.14 180.4 425.65 219.07 404.22 218.95 386.24"/><polygon class="cls-8" points="148.08 388.69 188.87 368.94 219.07 386.31 180.4 407.14 148.08 388.69"/><polygon class="cls-5" points="160.28 405.27 160.28 413.75 164.74 416.43 164.74 408.04 160.28 405.27"/><polygon class="cls-8" points="270.4 321.64 270.4 393.26 290.56 403.69 290.56 331.16 270.4 321.64"/><polygon class="cls-5" points="285.29 314.77 270.4 321.64 290.56 331.16 304.13 323.52 285.29 314.77"/><polygon class="cls-4" points="290.56 331.16 290.56 403.69 302.84 397.08 304.13 323.52 290.56 331.16"/><polygon class="cls-8" points="185.17 263.63 185.17 335.25 205.33 345.68 205.33 273.15 185.17 263.63"/><polygon class="cls-5" points="200.06 256.76 185.17 263.63 205.33 273.15 218.9 265.51 200.06 256.76"/><polygon class="cls-4" points="205.33 273.15 205.33 345.68 217.59 339.63 218.9 265.51 205.33 273.15"/><path class="cls-4" d="M194.32,399.83v17.93l32.31,19V418.28Z"/><polygon class="cls-5" points="251.2 405.04 226.63 418.28 226.63 436.79 251.2 423.08 251.2 405.04"/><polygon class="cls-8" points="194.32 399.83 218.95 386.24 251.2 405.04 226.63 418.28 194.32 399.83"/><polygon class="cls-5" points="206.52 416.41 206.52 424.89 210.97 427.57 210.97 419.18 206.52 416.41"/><polygon class="cls-6" points="266.19 186.04 207.33 159.51 289.28 117.8 316.17 157.9 266.19 186.04"/><polygon class="cls-1" points="318.56 210.39 318.97 164.47 273.35 190.44 318.56 210.39"/><path class="cls-4" d="M283.89,256.38a3.49,3.49,0,1,1-3.49-3.49A3.5,3.5,0,0,1,283.89,256.38Z"/><path class="cls-4" d="M280.4,264c-.17,0-.31-1.71-.31-3.83s.14-3.83.31-3.83.31,1.72.31,3.83S280.57,264,280.4,264Z"/><path class="cls-4" d="M188.66,247.83a3.5,3.5,0,1,1-3.49-3.49A3.49,3.49,0,0,1,188.66,247.83Z"/><path class="cls-4" d="M185.17,255.49c-.17,0-.31-1.72-.31-3.83s.14-3.83.31-3.83.3,1.71.3,3.83S185.34,255.49,185.17,255.49Z"/><path class="cls-4" d="M142,296.57a3.49,3.49,0,1,1-3.49-3.49A3.49,3.49,0,0,1,142,296.57Z"/><path class="cls-4" d="M138.51,304.23c-.17,0-.31-1.72-.31-3.83s.14-3.83.31-3.83.31,1.71.31,3.83S138.68,304.23,138.51,304.23Z"/><path class="cls-4" d="M145.49,259a3.49,3.49,0,1,1-3.49-3.49A3.49,3.49,0,0,1,145.49,259Z"/><path class="cls-4" d="M142,266.62c-.17,0-.31-1.72-.31-3.83s.14-3.83.31-3.83.31,1.71.31,3.83S142.17,266.62,142,266.62Z"/><path class="cls-4" d="M231.65,255.51a3.49,3.49,0,1,1-3.49-3.49A3.49,3.49,0,0,1,231.65,255.51Z"/><path class="cls-4" d="M228.16,263.16c-.17,0-.31-1.71-.31-3.82s.14-3.83.31-3.83.31,1.71.31,3.83S228.33,263.16,228.16,263.16Z"/><path class="cls-4" d="M286.79,281.66a3.49,3.49,0,1,1-3.49-3.49A3.49,3.49,0,0,1,286.79,281.66Z"/><path class="cls-4" d="M283.3,289.32c-.17,0-.3-1.72-.3-3.83s.13-3.83.3-3.83.31,1.71.31,3.83S283.47,289.32,283.3,289.32Z"/><path class="cls-4" d="M289,302.19a3.49,3.49,0,1,1-3.49-3.49A3.49,3.49,0,0,1,289,302.19Z"/><path class="cls-4" d="M285.54,309.85c-.17,0-.31-1.71-.31-3.83s.14-3.83.31-3.83.31,1.72.31,3.83S285.71,309.85,285.54,309.85Z"/><path class="cls-4" d="M191.13,344.8a3.49,3.49,0,1,1-3.49-3.49A3.49,3.49,0,0,1,191.13,344.8Z"/><path class="cls-4" d="M187.64,352.45c-.17,0-.31-1.71-.31-3.82s.14-3.83.31-3.83.31,1.71.31,3.83S187.81,352.45,187.64,352.45Z"/><circle class="cls-4" cx="302.34" cy="405.68" r="3.49"/><path class="cls-4" d="M302.34,413.33c-.17,0-.31-1.71-.31-3.82s.14-3.83.31-3.83.3,1.71.3,3.83S302.51,413.33,302.34,413.33Z"/><path class="cls-4" d="M239.11,443.86a3.49,3.49,0,1,1-3.49-3.49A3.49,3.49,0,0,1,239.11,443.86Z"/><path class="cls-4" d="M235.62,451.52c-.17,0-.31-1.72-.31-3.83s.14-3.83.31-3.83.31,1.71.31,3.83S235.79,451.52,235.62,451.52Z"/><path class="cls-4" d="M212.24,433.31a3.49,3.49,0,1,1-3.49-3.49A3.49,3.49,0,0,1,212.24,433.31Z"/><path class="cls-4" d="M208.75,441c-.17,0-.31-1.72-.31-3.83s.14-3.83.31-3.83.31,1.71.31,3.83S208.92,441,208.75,441Z"/><path class="cls-4" d="M273.89,425.65a3.49,3.49,0,1,1-3.49-3.49A3.49,3.49,0,0,1,273.89,425.65Z"/><path class="cls-4" d="M270.4,433.31c-.17,0-.31-1.72-.31-3.83s.14-3.83.31-3.83.31,1.72.31,3.83S270.57,433.31,270.4,433.31Z"/><circle class="cls-4" cx="217.83" cy="358.42" r="3.49"/><path class="cls-4" d="M217.83,366.07c-.17,0-.31-1.71-.31-3.82s.14-3.83.31-3.83.31,1.71.31,3.83S218,366.07,217.83,366.07Z"/><path class="cls-4" d="M230.12,324.34a3.49,3.49,0,1,1-3.49-3.49A3.49,3.49,0,0,1,230.12,324.34Z"/><path class="cls-4" d="M226.63,332c-.17,0-.31-1.71-.31-3.82s.14-3.83.31-3.83.31,1.71.31,3.83S226.8,332,226.63,332Z"/><path class="cls-4" d="M145.49,328.17a3.49,3.49,0,1,1-3.49-3.49A3.49,3.49,0,0,1,145.49,328.17Z"/><path class="cls-4" d="M142,335.83c-.17,0-.31-1.72-.31-3.83s.14-3.83.31-3.83.31,1.71.31,3.83S142.17,335.83,142,335.83Z"/><path class="cls-4" d="M306.72,296.57a3.49,3.49,0,1,1-3.49-3.49A3.49,3.49,0,0,1,306.72,296.57Z"/><path class="cls-4" d="M303.23,304.23c-.17,0-.31-1.72-.31-3.83s.14-3.83.31-3.83.31,1.71.31,3.83S303.4,304.23,303.23,304.23Z"/><path class="cls-4" d="M297.35,244.34a3.49,3.49,0,1,1-3.49-3.49A3.49,3.49,0,0,1,297.35,244.34Z"/><path class="cls-4" d="M293.86,252c-.17,0-.31-1.72-.31-3.83s.14-3.83.31-3.83.31,1.71.31,3.83S294,252,293.86,252Z"/><circle class="cls-4" cx="223.16" cy="198.18" r="3.49"/><path class="cls-4" d="M223.16,205.84c-.17,0-.3-1.71-.3-3.83s.13-3.83.3-3.83.31,1.72.31,3.83S223.33,205.84,223.16,205.84Z"/><path class="cls-4" d="M159.91,264a3.49,3.49,0,1,1-3.49-3.49A3.49,3.49,0,0,1,159.91,264Z"/><path class="cls-4" d="M156.42,271.7c-.17,0-.31-1.71-.31-3.83s.14-3.83.31-3.83.31,1.72.31,3.83S156.59,271.7,156.42,271.7Z"/><path class="cls-4" d="M200.93,173.26a3.49,3.49,0,1,1-3.49-3.49A3.49,3.49,0,0,1,200.93,173.26Z"/><path class="cls-4" d="M197.44,180.92c-.17,0-.31-1.71-.31-3.83s.14-3.83.31-3.83.3,1.72.3,3.83S197.61,180.92,197.44,180.92Z"/><path class="cls-4" d="M272.13,165.61a3.49,3.49,0,1,1-3.49-3.5A3.5,3.5,0,0,1,272.13,165.61Z"/><path class="cls-4" d="M268.64,173.26c-.17,0-.31-1.71-.31-3.83s.14-3.82.31-3.82.3,1.71.3,3.82S268.81,173.26,268.64,173.26Z"/><path class="cls-4" d="M291.8,162.39a3.49,3.49,0,1,1-3.49-3.49A3.49,3.49,0,0,1,291.8,162.39Z"/><path class="cls-4" d="M288.31,170c-.17,0-.31-1.71-.31-3.82s.14-3.83.31-3.83.31,1.71.31,3.83S288.48,170,288.31,170Z"/><path class="cls-4" d="M283.89,136.63a3.49,3.49,0,1,1-3.49-3.49A3.49,3.49,0,0,1,283.89,136.63Z"/><path class="cls-4" d="M280.4,144.29c-.17,0-.31-1.71-.31-3.83s.14-3.83.31-3.83.31,1.72.31,3.83S280.57,144.29,280.4,144.29Z"/><path class="cls-4" d="M174.27,196a3.5,3.5,0,1,1-3.5-3.49A3.5,3.5,0,0,1,174.27,196Z"/><path class="cls-4" d="M170.77,203.62c-.17,0-.3-1.71-.3-3.82s.13-3.83.3-3.83.31,1.71.31,3.83S170.94,203.62,170.77,203.62Z"/><path class="cls-4" d="M255.41,162.93a3.49,3.49,0,1,1-3.49-3.49A3.49,3.49,0,0,1,255.41,162.93Z"/><path class="cls-4" d="M251.92,170.59c-.17,0-.31-1.71-.31-3.83s.14-3.83.31-3.83.31,1.72.31,3.83S252.09,170.59,251.92,170.59Z"/><path class="cls-4" d="M157.38,84.29a3.5,3.5,0,1,1-3.5-3.49A3.5,3.5,0,0,1,157.38,84.29Z"/><path class="cls-4" d="M153.88,92c-.17,0-.3-1.72-.3-3.83s.13-3.83.3-3.83.31,1.71.31,3.83S154.05,92,153.88,92Z"/><path class="cls-4" d="M197.44,103.41A3.5,3.5,0,1,1,194,99.92,3.49,3.49,0,0,1,197.44,103.41Z"/><path class="cls-4" d="M194,111.07c-.17,0-.31-1.71-.31-3.83s.14-3.83.31-3.83.3,1.72.3,3.83S194.12,111.07,194,111.07Z"/><path class="cls-4" d="M133.76,163.79a3.49,3.49,0,1,1-3.49-3.49A3.5,3.5,0,0,1,133.76,163.79Z"/><path class="cls-4" d="M130.27,171.45c-.17,0-.31-1.71-.31-3.83s.14-3.83.31-3.83.31,1.72.31,3.83S130.44,171.45,130.27,171.45Z"/><path class="cls-4" d="M137.25,106.9a3.49,3.49,0,1,1-3.49-3.49A3.5,3.5,0,0,1,137.25,106.9Z"/><path class="cls-4" d="M133.76,114.56c-.17,0-.31-1.71-.31-3.83s.14-3.83.31-3.83.31,1.72.31,3.83S133.93,114.56,133.76,114.56Z"/><polygon class="cls-6" points="287.51 269.71 316.29 254.45 316.17 281.96 287.51 269.71"/><polygon class="cls-6" points="167.96 367.28 104.89 399.83 104.89 339.1 111.88 335.98 167.96 367.28"/><path class="cls-1" d="M262.15,399.83a4,4,0,1,1-4-4A4,4,0,0,1,262.15,399.83Z"/><polygon class="cls-6" points="298.97 112.58 319.05 118.69 319.05 150.34 298.97 112.58"/><path class="cls-1" d="M319.26,70.31l-.13-34.54a24.91,24.91,0,0,0-24.56-21.56l-31.68-.15a7.88,7.88,0,0,0-7.73,8l0,5.75a7.87,7.87,0,0,1-7.72,8l-61.77-.29A7.87,7.87,0,0,1,178,27.46l0-5.74a7.89,7.89,0,0,0-7.66-8.08l-11.15-.06-27.73-.12A24.83,24.83,0,0,0,114.57,20c-2.78,5.35-5.81,13-4.42,18.8l209,68Z"/><path class="cls-7" d="M319.26,70.31l-.13-34.54a24.91,24.91,0,0,0-24.56-21.56l-31.68-.15a7.88,7.88,0,0,0-7.73,8l0,5.75a7.87,7.87,0,0,1-7.72,8l-61.77-.29A7.87,7.87,0,0,1,178,27.46l0-5.74a7.89,7.89,0,0,0-7.66-8.08l-11.15-.06-27.73-.12A24.83,24.83,0,0,0,114.57,20c-2.78,5.35-5.81,13-4.42,18.8l209,68Z"/><path class="cls-3" d="M294.57,14.21l.86,0a19.85,19.85,0,0,1,2.52.21,23.44,23.44,0,0,1,9.34,3.27A23.92,23.92,0,0,1,313,22.35a24.92,24.92,0,0,1,4.71,7.46,25.83,25.83,0,0,1,1.82,10.13q0,5.52,0,11.75c-.12,33.22-.29,81.29-.5,140.68s-.51,130.11-.82,208.64q-.06,14.72-.12,29.8l0,7.56a26.44,26.44,0,0,1-1,7.6,25.37,25.37,0,0,1-3.21,7,26.75,26.75,0,0,1-5.21,5.73,25.21,25.21,0,0,1-14.39,5.52c-1.32.09-2.62.07-3.92.06l-3.91,0-7.84,0-31.76-.14-65.16-.3-33.33-.15-16.84-.08A26.27,26.27,0,0,1,115.25,459a25.45,25.45,0,0,1-9.82-13.67,27.67,27.67,0,0,1-1-8.43l0-8.4q.08-16.78.15-33.34.14-33.1.28-65.19c.18-42.73.36-84,.54-123.23s.34-76.58.49-111.5q.12-26.19.24-50.54c0-2,0-4,0-6,0-1,.1-2,.16-3s.26-2,.52-3a25.27,25.27,0,0,1,5.28-10.53,26,26,0,0,1,9.26-6.87,26.25,26.25,0,0,1,11.08-2l21.73.11,10.46.06,5.12,0a8,8,0,0,1,4.89,1.39,8.25,8.25,0,0,1,3,4,13.34,13.34,0,0,1,.49,4.92c0,.81,0,1.62,0,2.43a18.73,18.73,0,0,0,.06,2.38,8,8,0,0,0,1.86,4.19,7.32,7.32,0,0,0,3.81,2.39,8.08,8.08,0,0,0,2.25.23l2.3,0,9,0,32.88.18,14.49.08c1.15,0,2.31.06,3.4,0a7.26,7.26,0,0,0,3.06-1.06,7.9,7.9,0,0,0,3.52-5,13.4,13.4,0,0,0,.21-3c0-1,0-2,0-3a17.51,17.51,0,0,1,.14-2.9,8.36,8.36,0,0,1,.95-2.66,7.84,7.84,0,0,1,4-3.5c1.63-.7,3.37-.48,4.95-.51l16.17.11,9.94.07c2.24,0,3.39.05,3.39.05s-1.15,0-3.39,0l-9.94,0-16.18,0c-1.58,0-3.29-.19-4.87.5a7.71,7.71,0,0,0-3.88,3.42,8.2,8.2,0,0,0-.91,2.6,15.93,15.93,0,0,0-.13,2.87c0,1,0,2,0,3a14,14,0,0,1-.21,3.08,8.14,8.14,0,0,1-3.62,5.18,7.71,7.71,0,0,1-3.17,1.11c-1.15.1-2.27,0-3.43,0l-14.5-.05-32.87-.13-9,0h-2.3a8.9,8.9,0,0,1-2.34-.23,7.69,7.69,0,0,1-4-2.51,8.3,8.3,0,0,1-1.95-4.38,19.84,19.84,0,0,1-.07-2.43c0-.81,0-1.62,0-2.43a13.24,13.24,0,0,0-.47-4.79,7.84,7.84,0,0,0-2.89-3.81,7.6,7.6,0,0,0-4.66-1.31l-5.12,0-10.46,0-21.73-.09a24.81,24.81,0,0,0-20,8.77,25.05,25.05,0,0,0-5.18,10.35c-.25.94-.33,1.93-.51,2.91s-.13,2-.15,3q0,3,0,6-.09,24.32-.19,50.53c-.14,34.92-.29,72.24-.45,111.51s-.33,80.49-.5,123.22q-.13,32.06-.27,65.19-.07,16.54-.14,33.34,0,4.2,0,8.41a26.67,26.67,0,0,0,1,8.25,24.84,24.84,0,0,0,9.57,13.33,25.6,25.6,0,0,0,15.84,4.43l16.84.08,33.33.16,65.17.3,31.75.15,7.85,0,3.9,0c1.31,0,2.61,0,3.88-.06a24.55,24.55,0,0,0,14.06-5.39,26.05,26.05,0,0,0,5.09-5.6,24.46,24.46,0,0,0,3.14-6.83,26.3,26.3,0,0,0,1-7.44q0-3.8,0-7.56.06-15.07.13-29.81c.35-78.52.67-149.24.94-208.63s.53-107.46.7-140.68q0-6.22.06-11.75a25.66,25.66,0,0,0-1.78-10.06,24.81,24.81,0,0,0-4.66-7.42,24.93,24.93,0,0,0-14.9-8,21,21,0,0,0-2.52-.24Z"/><path class="cls-3" d="M372.59,252.37c17.53.44,35.25.9,52.2,5.39s33.32,13.45,43.37,27.82c11.08,15.81,13.27,36,14.38,55.3a617.32,617.32,0,0,1-1.5,96c-1.59,16.15-7.32,31.15-22.34,37.3-18.06,7.4-42.34,0-42.34,0"/><path class="cls-9" d="M419.61,470.29s.22,0,.66,0l2,0,7.49-.06a84.11,84.11,0,0,0,11.81-.62c1.14-.18,2.33-.32,3.52-.62l1.83-.41c.61-.16,1.22-.35,1.85-.53,1.27-.33,2.5-.87,3.79-1.34a35.09,35.09,0,0,0,3.79-1.88,27.19,27.19,0,0,0,7-5.63,21.28,21.28,0,0,0,4.63-8.51,102,102,0,0,0,2.66-21.58c.24-7.68.16-15.76.23-24.13s.07-17,.11-25.92.13-17.55-.15-25.91a179.07,179.07,0,0,0-2.26-24c-2.56-15.14-7.86-28.27-14.7-37.66a83.84,83.84,0,0,0-10.46-11.63c-3.37-3.16-6.4-5.74-8.89-7.83l-5.75-4.81-1.49-1.26c-.33-.28-.49-.44-.49-.44s.19.12.53.39l1.53,1.22,5.82,4.71c2.52,2.07,5.58,4.63,9,7.77a83,83,0,0,1,10.58,11.62c6.92,9.42,12.3,22.62,14.89,37.82a175.61,175.61,0,0,1,2.31,24.06c.3,8.37.21,17.05.17,25.93s-.09,17.55-.13,25.92,0,16.44-.26,24.15a102.58,102.58,0,0,1-2.73,21.69,22.09,22.09,0,0,1-4.77,8.7,27.74,27.74,0,0,1-7.18,5.69,37.85,37.85,0,0,1-3.85,1.88,39,39,0,0,1-3.84,1.33c-.63.18-1.25.37-1.87.53l-1.84.4c-1.21.3-2.4.43-3.55.61a81.69,81.69,0,0,1-11.86.51l-7.49-.05-2,0A6.59,6.59,0,0,1,419.61,470.29Z"/><path class="cls-9" d="M471.23,383.58a17.87,17.87,0,0,1,6.15-1.1c3.47-.17,6.25.36,6.22.52s-2.79-.07-6.19.1S471.27,383.76,471.23,383.58Z"/><path class="cls-4" d="M395.49,253.29a2.35,2.35,0,0,1,.46,0l1.33,0c1.18,0,2.91,0,5.14.19a79.57,79.57,0,0,1,18.46,3.94l2.88,1.07,1.49.55,1.47.67,3,1.38c1,.46,2,1.06,3.08,1.6a89.62,89.62,0,0,1,24.62,19.56,63.12,63.12,0,0,1,9.76,14.85c5.28,11.07,7.57,22.65,8.74,33.12a274.93,274.93,0,0,1,1.22,28c0,8,.06,14.42.17,18.88.06,2.2.11,3.92.14,5.13,0,.56,0,1,0,1.33a3.15,3.15,0,0,1,0,.46,2.23,2.23,0,0,1,0-.45c0-.33-.06-.77-.1-1.33-.09-1.18-.17-2.91-.26-5.13-.19-4.46-.28-10.92-.36-18.89s-.21-17.47-1.36-27.94-3.49-21.94-8.72-32.91A63.1,63.1,0,0,0,457,282.65a86.47,86.47,0,0,0-12-11.3,84.57,84.57,0,0,0-12.45-8.2c-1-.54-2-1.14-3-1.6l-3-1.39-1.46-.68-1.48-.56-2.85-1.08a82.72,82.72,0,0,0-18.34-4.11c-2.22-.19-3.95-.22-5.12-.31l-1.33-.08A4.35,4.35,0,0,1,395.49,253.29Z"/><path class="cls-3" d="M384.54,253.24s4.3-11.35,19.6-9.2c0,0,6.82-.37,8.05,3.42,0,0-14.25-3.54-20.32,6.32Z"/><path class="cls-9" d="M428.15,267.07h-9s-1.74-23.7-23.47-22.78C395.72,244.29,422.73,235.24,428.15,267.07Z"/><polygon class="cls-9" points="471.37 398.04 484.21 399.83 482.94 404.39 470.94 403.47 471.37 398.04"/><path class="cls-10" d="M472.15,402.18a10.63,10.63,0,0,1,1.5-2.31l.18-.24.2.24,1.8,2.18-.42-.05,1.29-.95,1.32-1,.25-.17.17.24,1.65,2.32-.33-.06a10.87,10.87,0,0,1,2.32-1.37,10.45,10.45,0,0,1-2,1.76l-.18.15-.15-.2L478,400.51l.42.06-1.32,1-1.29.94-.24.18-.18-.23-1.7-2.26H474A10.88,10.88,0,0,1,472.15,402.18Z"/><path class="cls-1" d="M280.55,479.63s-2.49-8.09-2-11.52,5.11-6.53,5.11-6.53l-5-129.79S278,275,308.07,257.38L326,252.86l44.23-2.62c1.43.48,53.41,20,60.57,27.66L408.38,392.35s2.73,33.82,5.45,58.13c.55,5,4.28,29.51,4.28,29.51Z"/><g class="cls-11"><path d="M413,442.83c-.42,3.16-1.61,7-4.65,8s-6.32.7-9.45.14c-11.09-2-21.29-7.18-31.3-12.33C348.88,429,330,419.28,313.82,405.8c-2.27-1.9-4.69-4.85-3.3-7.46,1.57-3,6-2,9.05-.57,31.75,14.64,61.69,30.43,93.43,45.06"/></g><path class="cls-1" d="M301.36,260.92s-19.8,6.6-26.2,24.95c-7.08,20.26-11.77,59.61-11.77,59.61L283,347.94Z"/><path class="cls-5" d="M283.8,363.46a1.42,1.42,0,0,1,.36,0l1,.1c.9.1,2.23.28,3.93.53,3.42.47,8.32,1.49,14.45,2a50,50,0,0,0,10-.18,23.84,23.84,0,0,1,5.67,0,9.77,9.77,0,0,1,2.89.85,14,14,0,0,1,2.57,1.67c1.61,1.25,3.14,2.75,5.11,3.35a5.39,5.39,0,0,0,3,0,22.3,22.3,0,0,0,3-1.23,11.65,11.65,0,0,1,3.25-1.1,5.15,5.15,0,0,1,3.46.75c2,1.25,3.38,3.32,5.47,4.2s4.46.34,6.6-.29a25.43,25.43,0,0,1,6.65-1.55,7.57,7.57,0,0,1,3.33.69,12.52,12.52,0,0,1,2.73,1.86c1.64,1.38,3.08,2.93,4.88,3.75a7.41,7.41,0,0,0,5.61,0c1.82-.57,3.49-1.45,5.32-1.87a7.79,7.79,0,0,1,5.29.4,4.32,4.32,0,0,1,1.81,1.83,15.78,15.78,0,0,1,.82,2.25,5.14,5.14,0,0,0,1,1.89,4,4,0,0,0,1.7,1.09,6.19,6.19,0,0,0,3.74,0,6.61,6.61,0,0,0,2.81-1.73,10.81,10.81,0,0,0,1.71-2.25,25.36,25.36,0,0,0,1.67-3.58c.16-.39.28-.71.38-1a2,2,0,0,1,.14-.32,1.12,1.12,0,0,1-.08.34c-.09.26-.19.58-.32,1a23,23,0,0,1-1.58,3.66,11.37,11.37,0,0,1-1.71,2.34,6.92,6.92,0,0,1-2.91,1.85,6.64,6.64,0,0,1-4,.07,4.46,4.46,0,0,1-1.87-1.19,5.48,5.48,0,0,1-1.13-2,15.78,15.78,0,0,0-.82-2.18,3.84,3.84,0,0,0-1.62-1.62,7.34,7.34,0,0,0-5-.32c-1.72.4-3.4,1.29-5.26,1.89a11,11,0,0,1-2.95.58,6.65,6.65,0,0,1-3.06-.6c-1.95-.89-3.42-2.47-5-3.83a12.39,12.39,0,0,0-2.6-1.76,7,7,0,0,0-3.07-.62c-2.16,0-4.28.87-6.48,1.52a18.37,18.37,0,0,1-3.43.76,7,7,0,0,1-3.59-.49c-2.31-1-3.66-3.11-5.55-4.23a4.49,4.49,0,0,0-3.06-.67,10.68,10.68,0,0,0-3.08,1,20.49,20.49,0,0,1-3.1,1.25,5.88,5.88,0,0,1-3.35,0c-2.17-.67-3.7-2.24-5.29-3.46a13.56,13.56,0,0,0-2.46-1.62,9.54,9.54,0,0,0-2.73-.82,23.86,23.86,0,0,0-5.54,0,49.85,49.85,0,0,1-10.11.11c-6.16-.57-11-1.65-14.44-2.19l-3.92-.64-1-.17A2.07,2.07,0,0,1,283.8,363.46Z"/><path class="cls-1" d="M431,278.63a114.3,114.3,0,0,1,14.44,30.76c4.72,16.88,7.42,65.77,7.42,65.77l-48.69-.74-2.59-43S396.64,259.62,431,278.63Z"/><path class="cls-5" d="M348.64,413.08a5.38,5.38,0,0,1-.67.43,16,16,0,0,1-2.09.95,17,17,0,0,1-11.09.22c-.93-.3-1.87-.72-2.81-1.12a6.54,6.54,0,0,0-3-.62,6.38,6.38,0,0,0-3,1.28c-.94.67-1.85,1.46-2.93,2.12a7.05,7.05,0,0,1-1.77.78,4.63,4.63,0,0,1-1,.14,3.73,3.73,0,0,1-1,0c-2.7-.34-4.86-2.13-7.21-3.32a6.54,6.54,0,0,0-3.65-.94L308,413c-.15,0-.29.1-.43.15a3.45,3.45,0,0,0-.83.37,7.23,7.23,0,0,0-1.38,1.22,25,25,0,0,1-2.6,2.76,3.88,3.88,0,0,1-1.77.81,3.25,3.25,0,0,1-1.9-.27,7.1,7.1,0,0,1-2.5-2.49,24.44,24.44,0,0,0-1.89-2.57,6.55,6.55,0,0,0-5-2,7.56,7.56,0,0,0-4.25,1.71,10.54,10.54,0,0,0-2.46,2.55,5.39,5.39,0,0,0-1,2.84,2.42,2.42,0,0,1,0-.81,5.32,5.32,0,0,1,.78-2.16,10.32,10.32,0,0,1,2.46-2.69,7.82,7.82,0,0,1,4.44-1.87,7,7,0,0,1,5.43,2.09,24.27,24.27,0,0,1,1.95,2.61,6.52,6.52,0,0,0,2.3,2.28,2.83,2.83,0,0,0,3.06-.48,24.57,24.57,0,0,0,2.52-2.71,7.7,7.7,0,0,1,1.51-1.32,4,4,0,0,1,.94-.44c.17-.05.33-.12.5-.16l.53-.08a7.11,7.11,0,0,1,4,1c2.42,1.24,4.55,3,7,3.27a5.14,5.14,0,0,0,3.39-.81c1-.61,1.93-1.39,2.91-2.07a6.79,6.79,0,0,1,3.25-1.36,7,7,0,0,1,3.25.69c1,.42,1.87.84,2.77,1.14a17.21,17.21,0,0,0,2.66.66,17.45,17.45,0,0,0,8.2-.66C347.67,413.61,348.61,413,348.64,413.08Z"/><path class="cls-5" d="M286.24,270.51s.34.42,1.14,1.06a9.54,9.54,0,0,0,4.07,1.78,23.65,23.65,0,0,0,7.09.14c1.39-.11,2.88-.25,4.48-.23a14.12,14.12,0,0,1,5,.89,46.12,46.12,0,0,1,4.9,2.57,16,16,0,0,0,2.64,1.17,10.81,10.81,0,0,0,2.92.48,29.59,29.59,0,0,0,6.29-.71,22.87,22.87,0,0,1,6.82-.52,16.67,16.67,0,0,1,6.64,2.75c2.07,1.25,4.19,2.61,6.63,2.95a10.43,10.43,0,0,0,3.68-.25,22.53,22.53,0,0,0,3.58-1.34,45,45,0,0,1,7.33-3.13,10.6,10.6,0,0,1,4.08-.24,11.48,11.48,0,0,1,3.78,1.41c2.31,1.3,4.28,3,6.53,4a12.25,12.25,0,0,0,7.1.88,45.28,45.28,0,0,0,6.85-1.78,38.27,38.27,0,0,1,6.63-1.6,18,18,0,0,1,6.45.4c4.07,1,7.53,2.73,10.79,4a18.1,18.1,0,0,0,9.17,1.45,21.93,21.93,0,0,0,6.86-1.72,13.47,13.47,0,0,0,4.85-3.55,7.55,7.55,0,0,1-1,1.22,13.06,13.06,0,0,1-3.74,2.55,21.47,21.47,0,0,1-6.93,1.84,20.58,20.58,0,0,1-4.5,0,19.14,19.14,0,0,1-4.86-1.35c-3.29-1.25-6.76-3-10.75-3.9a17.66,17.66,0,0,0-6.26-.37,39.35,39.35,0,0,0-6.53,1.61,45.69,45.69,0,0,1-6.93,1.82,12.78,12.78,0,0,1-7.44-.91c-2.36-1.09-4.34-2.79-6.58-4.05a11,11,0,0,0-3.57-1.33,9.78,9.78,0,0,0-3.84.23,44.54,44.54,0,0,0-7.23,3.09,22.67,22.67,0,0,1-3.69,1.37,10.68,10.68,0,0,1-3.9.26c-2.62-.38-4.8-1.8-6.86-3.05a16.19,16.19,0,0,0-6.4-2.69c-4.56-.5-8.84,1.39-13.06,1.18a11.54,11.54,0,0,1-3.06-.52,17.07,17.07,0,0,1-2.71-1.22,45.83,45.83,0,0,0-4.83-2.58c-3.24-1.29-6.52-.89-9.27-.72a23.76,23.76,0,0,1-7.16-.25,9.37,9.37,0,0,1-4.09-1.92A5.3,5.3,0,0,1,286.24,270.51Z"/><g class="cls-11"><path d="M375,284.12l16.71,11.56c-5.31,13.18-.39,31.46,4.21,46.42,1.79,5.82,7.72,11.89,7.43,18s4.81,16.43-1.08,18c-3.91,1-8.15-.31-11.4-2.71s-5.65-5.76-7.78-9.19C371.36,347.15,365.88,310.83,375,284.12Z"/></g><path class="cls-3" d="M313.05,460.86a6,6,0,0,1,1,.21c.64.14,1.57.44,2.79.67a57.22,57.22,0,0,0,57.8-19.95,59.43,59.43,0,0,0,11.49-23.3c.33-1.2.46-2.16.62-2.8a5.42,5.42,0,0,1,.24-1,6.16,6.16,0,0,1-.12,1c-.12.65-.21,1.62-.51,2.84a54.15,54.15,0,0,1-3.21,10.1,57.31,57.31,0,0,1-55.87,34.87A53.75,53.75,0,0,1,316.77,462c-1.23-.27-2.14-.62-2.77-.79A6.38,6.38,0,0,1,313.05,460.86Z"/><path class="cls-3" d="M323.54,252.81a4.24,4.24,0,0,1,0,.85c0,.62,0,1.43,0,2.44a34.82,34.82,0,0,0,.9,8.87,15.84,15.84,0,0,0,2.56,5.51,15.64,15.64,0,0,0,5.29,4.5,26.74,26.74,0,0,0,7.31,2.61,33.84,33.84,0,0,0,8.31.8,30.42,30.42,0,0,0,15.37-4.34,24.21,24.21,0,0,0,8.83-9.58,21.33,21.33,0,0,0,2.3-8.54c.08-2.11-.14-3.27-.06-3.28a4.42,4.42,0,0,1,.15.84,16.13,16.13,0,0,1,.15,2.45,20.81,20.81,0,0,1-2.15,8.72,24.37,24.37,0,0,1-8.92,9.87A30.67,30.67,0,0,1,347.94,279a35,35,0,0,1-8.46-.83,27,27,0,0,1-7.45-2.71,16.13,16.13,0,0,1-5.44-4.69,16.39,16.39,0,0,1-2.57-5.7,33.35,33.35,0,0,1-.71-9c0-1.06.09-1.89.13-2.44A4.09,4.09,0,0,1,323.54,252.81Z"/><path class="cls-12" d="M347,276.41h0a23.73,23.73,0,0,1-21.81-24.84c.44-9,.91-17.11.91-17.11s-19.28-3-19.52-22.27,3.1-63.55,3.1-63.55h0A67,67,0,0,1,377,157.1l2.85,2.2-7.3,95.26A23.74,23.74,0,0,1,347,276.41Z"/><path class="cls-13" d="M326.05,234.19s12.18,1,25.13-7.15c0,0-5.94,13.88-25.18,12.14Z"/><path class="cls-3" d="M314.42,178.86a2.75,2.75,0,0,0,2.65,2.77,2.62,2.62,0,0,0,2.84-2.48,2.75,2.75,0,0,0-2.65-2.78A2.63,2.63,0,0,0,314.42,178.86Z"/><path class="cls-3" d="M313.31,175.76c.34.36,2.43-1.18,5.39-1.17s5.13,1.48,5.45,1.12c.16-.16-.19-.81-1.13-1.5a7.58,7.58,0,0,0-4.37-1.34,7.3,7.3,0,0,0-4.29,1.38C313.45,175,313.14,175.6,313.31,175.76Z"/><path class="cls-3" d="M342.36,179.55a2.74,2.74,0,0,0,2.65,2.78,2.63,2.63,0,0,0,2.84-2.48,2.75,2.75,0,0,0-2.65-2.78A2.63,2.63,0,0,0,342.36,179.55Z"/><path class="cls-3" d="M342.43,176.31c.34.36,2.43-1.18,5.39-1.17s5.14,1.49,5.46,1.12c.15-.16-.19-.8-1.14-1.49a7.51,7.51,0,0,0-4.37-1.35,7.25,7.25,0,0,0-4.29,1.39C342.57,175.5,342.26,176.15,342.43,176.31Z"/><path class="cls-3" d="M331.68,198.29c0-.17-1.83-.49-4.81-.87-.76-.08-1.48-.23-1.6-.75a3.88,3.88,0,0,1,.5-2.24l2.24-5.76c3.11-8.2,5.36-14.95,5-15.07s-3.11,6.43-6.22,14.63q-1.12,3-2.14,5.8a4.36,4.36,0,0,0-.4,3,1.9,1.9,0,0,0,1.25,1.11,4.91,4.91,0,0,0,1.28.18C329.8,198.44,331.67,198.45,331.68,198.29Z"/><path class="cls-3" d="M340.4,200.33c-.48,0-.49,3.19-3.24,5.48s-6.18,1.92-6.2,2.37c0,.21.76.63,2.21.67a8,8,0,0,0,5.17-1.81,7,7,0,0,0,2.51-4.58C341,201.11,340.62,200.32,340.4,200.33Z"/><path class="cls-3" d="M341.67,164.7c.29.81,3.25.43,6.72.85s6.29,1.36,6.75.64c.21-.34-.28-1.1-1.42-1.88a11.18,11.18,0,0,0-5-1.75,11.31,11.31,0,0,0-5.26.61C342.18,163.69,341.54,164.32,341.67,164.7Z"/><path class="cls-3" d="M314.4,167.19c.52.67,2.56,0,5-.06s4.53.45,5-.25c.21-.34-.12-1-1-1.66a7,7,0,0,0-4.08-1.1,7.05,7.05,0,0,0-4,1.35C314.45,166.17,314.17,166.86,314.4,167.19Z"/><path class="cls-12" d="M377.47,179.27c.33-.14,13.24-3.92,12.82,9.27s-13.56,10-13.57,9.65S377.47,179.27,377.47,179.27Z"/><path class="cls-13" d="M380.9,193.33c.06,0,.23.17.61.36a2.34,2.34,0,0,0,1.71.09c1.41-.47,2.65-2.64,2.79-5a7.55,7.55,0,0,0-.53-3.31,2.67,2.67,0,0,0-1.67-1.82,1.17,1.17,0,0,0-1.38.59c-.19.36-.11.62-.18.64s-.28-.22-.15-.77a1.4,1.4,0,0,1,.54-.8,1.71,1.71,0,0,1,1.28-.3,3.22,3.22,0,0,1,2.33,2.12,7.8,7.8,0,0,1,.68,3.7c-.17,2.65-1.61,5.09-3.53,5.58a2.46,2.46,0,0,1-2.09-.41C380.91,193.65,380.85,193.35,380.9,193.33Z"/><path class="cls-3" d="M302.28,132a20.39,20.39,0,0,1,31.66-6.09,20,20,0,0,1,32.8-4.26c3.7,4.19,5.61,9.88,9.94,13.4,3.75,3.05,8.83,4.07,12.6,7.09a14.56,14.56,0,0,1-5.2,25.37c4.14,7.45.26,18.15-7.69,21.23l-1.92-.8a27.43,27.43,0,0,1-4-30.27,5.23,5.23,0,0,1-.69,0,15.41,15.41,0,0,1-20.06-4.58,17.11,17.11,0,0,1-18.37.77,7.16,7.16,0,0,0-2.77-1.26,6.53,6.53,0,0,0-3.45,1,16.26,16.26,0,0,1-9.33,1.88,9,9,0,0,1-7-5,1.66,1.66,0,0,0-.22,0,10.35,10.35,0,0,1-7.72-7.48A15.45,15.45,0,0,1,302.28,132Z"/><path class="cls-5" d="M264.1,335.55a3.37,3.37,0,0,1,.52,0l1.53.15c1.35.09,3.34.65,5.83-.15,1.25-.27,2.66-.52,4.2-.79s3.19-.64,5-.85a13.77,13.77,0,0,1,5.86.42c2,.59,4,1.62,6.11,2.34a11.78,11.78,0,0,0,7,.2c2.41-.57,4.78-1.68,7.34-2.56s5.45-1.61,8.35-.81,5.17,2.92,8,3.62a6.65,6.65,0,0,0,2.18.15,10,10,0,0,0,2.18-.52c1.45-.5,2.84-1.24,4.37-1.77a7,7,0,0,1,4.91-.16,17.76,17.76,0,0,1,4.14,2.75,10.35,10.35,0,0,0,2.06,1.24,5.91,5.91,0,0,0,2.32.44,12.6,12.6,0,0,0,4.71-1.41,27.84,27.84,0,0,1,4.83-1.94,8,8,0,0,1,2.68-.18,7.25,7.25,0,0,1,2.58.84,44.55,44.55,0,0,1,4.33,3,11,11,0,0,0,2.2,1.21,6.29,6.29,0,0,0,1.18.33l.61.1.61,0a13.3,13.3,0,0,0,4.83-1c1.57-.57,3.1-1.24,4.71-1.72a9.41,9.41,0,0,1,5-.36,9.08,9.08,0,0,1,4.2,2.53,33.39,33.39,0,0,0,3.46,3.13A6.52,6.52,0,0,0,396.1,345a11.39,11.39,0,0,0,4.17-1.26c1.31-.64,2.56-1.39,3.82-2.09,2.49-1.38,5.23-2.66,8.05-2.33s5.09,1.88,7.11,3.33a38.75,38.75,0,0,0,5.94,4,17.27,17.27,0,0,0,6.2,1.69,21.72,21.72,0,0,0,5.74-.45,20.55,20.55,0,0,0,8.27-4,18.64,18.64,0,0,0,3.86-4.41c.33-.58.55-1,.72-1.35a3.42,3.42,0,0,1,.26-.45,3.54,3.54,0,0,1-.2.48c-.15.31-.36.79-.68,1.39a17.71,17.71,0,0,1-3.8,4.52,20.67,20.67,0,0,1-8.35,4.19,22,22,0,0,1-5.85.5A17.57,17.57,0,0,1,425,347a40.21,40.21,0,0,1-6-4c-2-1.44-4.25-2.92-6.88-3.21s-5.26.91-7.73,2.29c-1.25.7-2.51,1.46-3.85,2.12a12,12,0,0,1-4.37,1.33,7.15,7.15,0,0,1-4.53-1.28,32.3,32.3,0,0,1-3.53-3.17,8.61,8.61,0,0,0-3.94-2.38,8.85,8.85,0,0,0-4.68.36c-1.56.47-3.08,1.13-4.67,1.71a13.81,13.81,0,0,1-5.05,1l-.66,0-.66-.12a5.75,5.75,0,0,1-1.29-.36,11.94,11.94,0,0,1-2.33-1.27,45.57,45.57,0,0,0-4.26-2.94,6.8,6.8,0,0,0-2.37-.77,7.35,7.35,0,0,0-2.47.17,27.56,27.56,0,0,0-4.72,1.9,13.2,13.2,0,0,1-5,1.46,6.6,6.6,0,0,1-2.57-.49,10.38,10.38,0,0,1-2.18-1.32,17.51,17.51,0,0,0-4-2.67,6.44,6.44,0,0,0-4.51.16c-1.47.51-2.87,1.24-4.37,1.76a10.77,10.77,0,0,1-2.31.54,7.25,7.25,0,0,1-2.37-.17c-3.07-.78-5.35-2.9-8.06-3.65s-5.53-.12-8,.77-4.92,2-7.4,2.55a12.28,12.28,0,0,1-7.22-.25c-2.19-.76-4.13-1.8-6.09-2.39a13.49,13.49,0,0,0-5.7-.45c-1.8.19-3.46.55-5,.8s-3,.48-4.21.74c-.63.12-1.21.26-1.79.34a6.21,6.21,0,0,1-1.61,0c-1-.1-1.81-.22-2.48-.31l-1.52-.22A3.44,3.44,0,0,1,264.1,335.55Z"/><path class="cls-5" d="M270.38,303.55a6,6,0,0,1,1.47-1.39,7.26,7.26,0,0,1,5.6-1.08c2.58.39,5.09,2.41,8.39,3.67a9.46,9.46,0,0,0,5.49.68c1.94-.43,3.63-1.82,5.41-3.17a14.35,14.35,0,0,1,3-1.86,4.67,4.67,0,0,1,3.67-.16,6.23,6.23,0,0,1,2.87,2.55c.73,1.07,1.32,2.23,2.09,3.28a5.85,5.85,0,0,0,3,2.32,7.11,7.11,0,0,0,4,0,15.15,15.15,0,0,0,3.85-1.66c1.23-.73,2.42-1.61,3.69-2.4a18.08,18.08,0,0,1,4.12-2,7.84,7.84,0,0,1,4.72,0,12.39,12.39,0,0,1,4.09,2.5c1.23,1,2.36,2.17,3.62,3.15A9.21,9.21,0,0,0,343.6,310a8.75,8.75,0,0,0,4.73-.49c3.07-1.16,5.79-3.25,8.82-4.92a16.54,16.54,0,0,1,4.82-1.92,9.61,9.61,0,0,1,5.13.4c3.23,1.26,5.62,3.7,8.48,5.07a10.38,10.38,0,0,0,2.21.78,8.81,8.81,0,0,0,2.29.15,12.63,12.63,0,0,0,4.41-1.27c2.81-1.26,5.34-3,8.24-4a9,9,0,0,1,4.47-.4,8.32,8.32,0,0,1,3.89,2c2.18,1.82,3.88,4.12,6.37,4.89a7.37,7.37,0,0,0,3.73.11,28.15,28.15,0,0,0,3.56-1.07c2.28-.8,4.68-1.63,7-1.1a7.52,7.52,0,0,1,3,1.48c.86.67,1.62,1.39,2.37,2.06a12.37,12.37,0,0,0,2.34,1.71,7.89,7.89,0,0,0,2.57.83,10.63,10.63,0,0,0,4.83-.5,14.41,14.41,0,0,0,3.68-1.87,31.79,31.79,0,0,0,4.36-3.78l1.07-1.06a3.84,3.84,0,0,1,.37-.35,2.33,2.33,0,0,1-.33.39l-1,1.11a29.73,29.73,0,0,1-4.31,3.88,14.63,14.63,0,0,1-3.72,2,10.94,10.94,0,0,1-5,.56,8.23,8.23,0,0,1-2.69-.84,13.44,13.44,0,0,1-2.43-1.75c-1.52-1.29-3-3-5.21-3.41s-4.46.31-6.74,1.13a26.92,26.92,0,0,1-3.63,1.1,7.88,7.88,0,0,1-4-.1,9.74,9.74,0,0,1-3.51-2.15c-1-.92-2-1.93-3.05-2.81a7.75,7.75,0,0,0-3.66-1.86,8.38,8.38,0,0,0-4.19.39c-2.77.92-5.31,2.69-8.17,4a13.06,13.06,0,0,1-4.61,1.32,9.26,9.26,0,0,1-2.46-.15,10.68,10.68,0,0,1-2.34-.83c-3-1.43-5.38-3.86-8.44-5a8.86,8.86,0,0,0-4.79-.38,16.59,16.59,0,0,0-4.65,1.86c-3,1.64-5.7,3.75-8.91,5a9.33,9.33,0,0,1-5,.51,9.73,9.73,0,0,1-4.47-2.19c-2.57-2-4.62-4.61-7.53-5.57a7.17,7.17,0,0,0-4.37,0,17,17,0,0,0-4,1.93c-1.26.77-2.43,1.64-3.7,2.39a15.79,15.79,0,0,1-4,1.7,7.53,7.53,0,0,1-4.26,0,6.36,6.36,0,0,1-3.25-2.52c-.8-1.09-1.39-2.26-2.09-3.3a5.81,5.81,0,0,0-2.63-2.39,4.24,4.24,0,0,0-3.33.14A14.41,14.41,0,0,0,297,302.6c-1.77,1.34-3.51,2.77-5.59,3.21a9.76,9.76,0,0,1-5.7-.74c-3.35-1.32-5.81-3.35-8.3-3.75a7.19,7.19,0,0,0-5.49.94A11.37,11.37,0,0,0,270.38,303.55Z"/><path class="cls-9" d="M409.34,266S390,318.6,404.26,363l.78,15.71s-10.91-.74-19.16-16.33S375,330.75,372.16,307.57s9.91-52.7,9.91-52.7S404.6,259.8,409.34,266Z"/><path class="cls-3" d="M405.54,377.46a1,1,0,0,1-.28-.13l-.8-.45a15.6,15.6,0,0,1-2.77-2.2c-2.23-2.15-4.63-6.07-6.13-11.37a69.32,69.32,0,0,1-1.9-8.78c-.55-3.18-1-6.6-1.41-10.2a183.7,183.7,0,0,1-1-23.56,179.83,179.83,0,0,1,2-23.49,143.32,143.32,0,0,1,4-18.83,56.5,56.5,0,0,1,5-12c.76-1.33,1.41-2.33,1.88-3l.54-.74c.12-.17.19-.25.2-.24a1.07,1.07,0,0,1-.15.27l-.49.78c-.43.68-1.05,1.69-1.77,3a60.36,60.36,0,0,0-4.76,12,150.35,150.35,0,0,0-3.88,18.79,184.64,184.64,0,0,0-2,23.43,186.6,186.6,0,0,0,1,23.48c.39,3.59.82,7,1.35,10.18a68.27,68.27,0,0,0,1.81,8.73,26.26,26.26,0,0,0,5.88,11.33A21.12,21.12,0,0,0,405.54,377.46Z"/><path class="cls-3" d="M404.82,376.93l-.32-.11-.91-.38a19.69,19.69,0,0,1-3.25-2c-2.68-2-5.9-5.63-8.81-10.78a113.38,113.38,0,0,1-8.47-18.9,119.8,119.8,0,0,1-5.6-24.72,122.92,122.92,0,0,1-.31-25.35,116.49,116.49,0,0,1,3.75-20.37c.84-2.82,1.54-5.4,2.41-7.58s1.45-4.11,2.16-5.6,1.17-2.64,1.55-3.47l.41-.9c.1-.2.15-.3.16-.29a1.2,1.2,0,0,1-.1.32l-.36.92c-.35.84-.83,2-1.43,3.51s-1.29,3.42-2.07,5.62-1.5,4.76-2.31,7.59a119,119,0,0,0-3.6,20.3,124,124,0,0,0,.36,25.23,121.07,121.07,0,0,0,5.51,24.61,117,117,0,0,0,8.32,18.86c2.84,5.15,6,8.82,8.57,10.81a22.32,22.32,0,0,0,3.16,2.06l.89.43C404.73,376.86,404.83,376.92,404.82,376.93Z"/><polygon class="cls-3" points="395.65 285.88 408.19 289.19 406.38 293.57 394.58 291.22 395.65 285.88"/><path class="cls-10" d="M395.93,290.09A11,11,0,0,1,397.7,288l.21-.22.17.27,1.52,2.38-.4-.11,1.39-.79,1.43-.79.26-.15.15.26,1.35,2.5-.32-.09a10.42,10.42,0,0,1,2.47-1.09,10,10,0,0,1-2.24,1.51l-.2.12-.12-.21c-.47-.78-.95-1.59-1.47-2.44l.41.11-1.42.81-1.4.78-.26.14-.14-.25-1.42-2.44.37.05A10.76,10.76,0,0,1,395.93,290.09Z"/><path class="cls-9" d="M316.31,254.87s-28.8,1.09-35.64,29.85c-7.92,33.31-3.14,70,6.81,88.42l.47-32.76A150.59,150.59,0,0,1,304,275Z"/><path class="cls-3" d="M282.46,349.4a6.2,6.2,0,0,1-.08-1q0-1.06-.09-2.88c0-1.25-.07-2.78,0-4.56s0-3.8.2-6c.06-1.12.14-2.29.21-3.51s.24-2.48.36-3.79c.22-2.63.64-5.41,1.05-8.34a159.46,159.46,0,0,1,10.44-37c1.19-2.72,2.28-5.31,3.46-7.67.58-1.18,1.11-2.34,1.68-3.42l1.65-3.1c1-2,2.09-3.71,3-5.25S306,260,306.71,259l1.59-2.41a5.07,5.07,0,0,1,.58-.81,6.49,6.49,0,0,1-.48.88l-1.48,2.47c-.66,1.06-1.46,2.36-2.31,3.92s-1.9,3.29-2.89,5.29l-1.62,3.11c-.55,1.08-1.07,2.24-1.64,3.42-1.16,2.36-2.23,4.95-3.39,7.67a164,164,0,0,0-10.4,36.87c-.43,2.92-.87,5.69-1.11,8.31-.14,1.3-.3,2.56-.4,3.78s-.17,2.38-.25,3.49c-.2,2.23-.21,4.25-.29,6s-.1,3.3-.09,4.55,0,2.17,0,2.88A6.1,6.1,0,0,1,282.46,349.4Z"/><path class="cls-3" d="M295.63,262.15a4.12,4.12,0,0,1-.34.77l-1.1,2.16c-1,1.85-2.31,4.58-3.86,8-.74,1.72-1.61,3.58-2.38,5.65-.4,1-.84,2.07-1.23,3.18l-1.2,3.41a133.24,133.24,0,0,0-4.16,15.55A148.77,148.77,0,0,0,278.69,330c0,3.74.1,6.78.21,8.87,0,1,.06,1.8.08,2.42a4.9,4.9,0,0,1,0,.84,4,4,0,0,1-.11-.83c-.05-.62-.12-1.42-.2-2.41-.18-2.1-.33-5.13-.4-8.89a138.8,138.8,0,0,1,2.49-29.23A129.14,129.14,0,0,1,285,285.13l1.23-3.42c.4-1.11.86-2.16,1.26-3.18.8-2.07,1.69-3.93,2.46-5.64,1.61-3.4,3-6.11,4.05-7.93l1.2-2.1A4.83,4.83,0,0,1,295.63,262.15Z"/><polygon class="cls-9" points="292.88 361.1 279.22 335.9 237.68 335.9 236.36 338.4 271.53 396.88 311.34 398.8 292.88 361.1"/><path class="cls-12" d="M451.29,375v44a26.76,26.76,0,0,1-9.84,20.73h0a26.76,26.76,0,0,1-27,4.05l-97-43,9.5-32.34,78,25.71-.09-20.05Z"/><polygon class="cls-3" points="291.56 363.6 277.9 338.4 236.36 338.4 270.21 399.38 310.02 401.3 291.56 363.6"/><path class="cls-12" d="M330.78,372l-6.57-8.15a22.81,22.81,0,0,0-17.75-8.49h-5.74l-3.92,4.4s-28.1,1.23-29.13,4.69l0,1.12v.66l24,1.61s-20.44-.06-21.67,0-5.7-.34-5.61,2.06c.07,2,2.41,3.53,5.94,4,1.45.22,19.16,1.76,19.16,1.76L270,375.46c-2.19,0-1.91,3.5-.61,3.94,1,.34,26,7.63,26,7.63s-4.2,2.81-7.62,2.57S278.44,385,277.22,387s-1,3.3-.25,3.79,8.82,4.65,11.51,5.39,24.67,4.21,24.67,4.21l7.94,1.28Z"/><path class="cls-12" d="M242.16,348.23s-4.34,1.52-2.13,7.1a47.75,47.75,0,0,0,8.82,14,5.12,5.12,0,0,0,1.73,5s-3.08.77-1.16,6a5.85,5.85,0,0,0,3.66,7.69s-1.54,4.43,4,6.54,11-1.54,11-1.54Z"/><path class="cls-12" d="M251,368.86c4,1.07,8.28,1.92,11.94,3.3,1.2.46,2.39.48,3.19,1.49a2.75,2.75,0,0,1,.07,3.52,3.83,3.83,0,0,1-3.22.65,56.64,56.64,0,0,1-12.24-3.39"/><path class="cls-12" d="M252.55,375.45c3.95,1.07,8.29,1.92,11.94,3.3,1.2.46,2.4.48,3.19,1.49a2.74,2.74,0,0,1,.07,3.52,3.81,3.81,0,0,1-3.21.65A56.48,56.48,0,0,1,252.3,381"/><path class="cls-12" d="M254.8,382.23c3.95,1.07,8.29,1.92,11.94,3.31,1.2.45,2.39.48,3.19,1.48a2.76,2.76,0,0,1,.07,3.53,3.87,3.87,0,0,1-3.22.64,56.64,56.64,0,0,1-12.24-3.39"/><path class="cls-13" d="M251,374.57c.06-.17,2.85.81,6.35,1.78s6.39,1.59,6.36,1.76-3-.18-6.53-1.17S250.9,374.72,251,374.57Z"/><path class="cls-13" d="M250.23,380.38c.06-.16,3.25.89,7.22,2.05s7.23,2,7.19,2.18-3.36-.41-7.36-1.58S250.17,380.53,250.23,380.38Z"/><path class="cls-13" d="M252.82,387.86c0-.17,3.08.45,6.78,1.38a39.34,39.34,0,0,1,6.64,2c0,.17-3.08-.45-6.79-1.37A39.94,39.94,0,0,1,252.82,387.86Z"/><path class="cls-13" d="M247.69,368.06c.07-.17,3.56,1,8,2.14s8,1.81,8,2a8.83,8.83,0,0,1-2.43-.2c-1.48-.22-3.51-.62-5.73-1.19a57.73,57.73,0,0,1-5.59-1.74A9.59,9.59,0,0,1,247.69,368.06Z"/><path class="cls-13" d="M287.24,360.07c0-.17,4.41-.33,9.86-.36s9.86.09,9.86.26-4.41.33-9.86.36S287.24,360.24,287.24,360.07Z"/><path class="cls-6" d="M257.45,349a2.08,2.08,0,1,0-.32-2.93A2.08,2.08,0,0,0,257.45,349Z"/><path class="cls-13" d="M399.88,393.08c0-.05.35,0,1,.1a20.21,20.21,0,0,1,2.54.65,29.2,29.2,0,0,1,14.05,9.75,18,18,0,0,1,1.49,2.15,3.06,3.06,0,0,1,.44.86c-.09.06-.84-1.08-2.27-2.74a33.5,33.5,0,0,0-13.85-9.61C401.19,393.49,399.86,393.18,399.88,393.08Z"/></g></g></svg>